<?xml version="1.0" standalone="no"?>
<!DOCTYPE svg PUBLIC "-//W3C//DTD SVG 1.1//EN" "http://www.w3.org/Graphics/SVG/1.1/DTD/svg11.dtd" >
<svg xmlns="http://www.w3.org/2000/svg">
<metadata></metadata>
<defs>
<font id="ristretto_probold" horiz-adv-x="317" >
<font-face units-per-em="1000" ascent="750" descent="-250" />
<missing-glyph horiz-adv-x="173" />
<glyph horiz-adv-x="1000" />
<glyph horiz-adv-x="1000" />
<glyph unicode="&#xd;" horiz-adv-x="1000" />
<glyph unicode=" "  horiz-adv-x="173" />
<glyph unicode="&#x09;" horiz-adv-x="173" />
<glyph unicode="&#xa0;" horiz-adv-x="173" />
<glyph unicode="!" horiz-adv-x="165" d="M31 196v504h103v-504h-103zM31 0v116h103v-116h-103z" />
<glyph unicode="&#x22;" horiz-adv-x="252" d="M27 550v175h78v-175h-78zM148 550v175h77v-175h-77z" />
<glyph unicode="#" horiz-adv-x="361" d="M55 0v150h-34v82h34v236h-34v82h34v150h102v-150h48v150h103v-150h33v-82h-33v-236h33v-82h-33v-150h-103v150h-48v-150h-102zM157 232h48v236h-48v-236z" />
<glyph unicode="$" d="M115 -100v100q-41 9 -65.5 37.5t-24.5 72.5v90h103v-90q0 -16 8.5 -25t21.5 -9t22 9t9 25v114q0 20 -17 35.5t-40.5 28t-47.5 28t-41 44.5t-17 69v111q0 42 24.5 71t64.5 39v100h86v-100q40 -10 65 -39t25 -71v-90h-102v90q0 16 -9 25t-22 9t-21.5 -9t-8.5 -25v-111 q0 -20 17 -35.5t41 -28t47.5 -28t40.5 -44.5t17 -69v-114q0 -44 -24.5 -72.5t-65.5 -37.5v-100h-86z" />
<glyph unicode="%" horiz-adv-x="518" d="M101 0l243 700h74l-243 -700h-74zM27 496v106q0 48 29 76t74 28q44 0 73.5 -28t29.5 -76v-106q0 -47 -29.5 -74.5t-73.5 -27.5q-45 0 -74 27.5t-29 74.5zM92 602v-106q0 -21 11 -32t27 -11t27 11t11 32v106q0 21 -11 33t-27 12t-27 -12t-11 -33zM285 96v106q0 48 29 76 t74 28q44 0 73.5 -28t29.5 -76v-106q0 -47 -29.5 -74.5t-73.5 -27.5q-45 0 -74 27.5t-29 74.5zM350 202v-106q0 -21 11 -32t27 -11t27 11t11 32v106q0 21 -11 33t-27 12t-27 -12t-11 -33z" />
<glyph unicode="&#x26;" d="M158 386h31v35h102v-311q0 -54 -38 -85t-95 -31t-95 31t-38 85v137q0 68 58 99q-58 31 -58 99v119q0 54 38 85.5t95 31.5t95 -31.5t38 -85.5v-64h-102v64q0 17 -9 26t-22 9t-21.5 -9t-8.5 -26v-144q0 -15 9 -24.5t21 -9.5zM158 304q-13 0 -21.5 -9.5t-8.5 -25.5v-159 q0 -16 8.5 -25t21.5 -9t22 9t9 25v194h-31z" />
<glyph unicode="'" horiz-adv-x="132" d="M27 550v175h78v-175h-78z" />
<glyph unicode="(" horiz-adv-x="181" d="M158 674q-13 0 -21.5 -9t-8.5 -26v-629q0 -16 8.5 -25t21.5 -9h10v-82h-10q-57 0 -95 31t-38 85v629q0 54 38 85.5t95 31.5h10v-82h-10z" />
<glyph unicode=")" horiz-adv-x="181" d="M23 -24q13 0 22 9t9 26v629q0 16 -9 25t-22 9h-9v82h9q57 0 95 -31t38 -85v-629q0 -54 -38 -85.5t-95 -31.5h-9v82h9z" />
<glyph unicode="*" horiz-adv-x="328" d="M19 519v82h73l-36 64l70 41l37 -65l37 65l72 -40l-38 -65h75v-82h-75l37 -64l-71 -41l-37 64l-36 -64l-71 41l36 64h-73z" />
<glyph unicode="+" horiz-adv-x="328" d="M19 271v82h103v109h82v-109h105v-82h-105v-109h-82v109h-103z" />
<glyph unicode="," horiz-adv-x="152" d="M83 -124h-82q26 65 26 124v116h98v-116q0 -26 -10.5 -57t-20.5 -49z" />
<glyph unicode="-" horiz-adv-x="212" d="M19 239v82h173v-82h-173z" />
<glyph unicode="." horiz-adv-x="152" d="M27 0v116h98v-116h-98z" />
<glyph unicode="/" horiz-adv-x="284" d="M19 -100l143 842h103l-143 -842h-103z" />
<glyph unicode="0" d="M158 681q57 0 95 -31.5t38 -85.5v-454q0 -54 -38 -85t-95 -31t-95 31t-38 85v454q0 54 38 85.5t95 31.5zM128 564v-454q0 -16 8.5 -25t21.5 -9t22 9t9 25v454q0 17 -9 26t-22 9t-21.5 -9t-8.5 -26z" />
<glyph unicode="1" horiz-adv-x="231" d="M14 528v95l83 52h103v-675h-103v580z" />
<glyph unicode="2" horiz-adv-x="313" d="M25 0v149q0 38 16.5 71t40 56t47 44t40 43.5t16.5 45.5v155q0 17 -9 26t-22 9t-21.5 -9t-8.5 -24v-78h-103v78q0 54 38 84.5t95 30.5t95 -31.5t38 -85.5v-155q0 -38 -16.5 -71t-40 -56.5t-47 -44t-40 -43t-16.5 -45.5v-67h160v-82h-262z" />
<glyph unicode="3" horiz-adv-x="313" d="M158 76q13 0 22 9t9 26v163q0 15 -9 24.5t-22 9.5h-56v82h52q13 0 22 9t9 25v140q0 17 -9 26t-22 9t-21.5 -9t-8.5 -24v-78h-103v78q0 54 38 84.5t95 30.5t95 -31.5t38 -85.5v-114q0 -70 -61 -100q66 -30 66 -102v-137q0 -54 -38.5 -85.5t-95.5 -31.5t-95 31t-38 85v77 h103v-77q0 -16 8.5 -25t21.5 -9z" />
<glyph unicode="4" horiz-adv-x="316" d="M14 128v82l111 465h156v-465h20v-82h-20v-128h-99v128h-168zM106 210h76v361h-2z" />
<glyph unicode="5" d="M128 318h-103v357h261v-82h-158v-197q37 43 88 43q32 0 53.5 -21.5t21.5 -58.5v-249q0 -54 -38 -85t-95 -31t-95 31t-38 85v77h103v-77q0 -16 8.5 -25t21.5 -9t22 9t9 25v220q0 27 -23 27q-16 0 -27 -11.5t-11 -27.5z" />
<glyph unicode="6" d="M159 599q-13 0 -22 -9t-9 -26v-193q37 43 88 43q32 0 53.5 -21.5t21.5 -58.5v-224q0 -54 -38 -85t-95 -31t-95 31t-38 85v454q0 54 38.5 85.5t95.5 31.5t94.5 -31t37.5 -85v-77h-103v77q0 34 -29 34zM128 289v-179q0 -16 8.5 -25t21.5 -9t22 9t9 25v195q0 27 -23 27 q-16 0 -27 -11.5t-11 -31.5z" />
<glyph unicode="7" horiz-adv-x="300" d="M19 593v82h262v-45l-126 -630h-105l121 593h-152z" />
<glyph unicode="8" d="M158 681q57 0 95 -31.5t38 -85.5v-119q0 -68 -58 -99q58 -31 58 -99v-137q0 -54 -38 -85t-95 -31t-95 31t-38 85v137q0 68 58 99q-58 31 -58 99v119q0 54 38 85.5t95 31.5zM128 564v-144q0 -15 9 -24.5t21 -9.5q13 0 22 9.5t9 24.5v144q0 17 -9 26t-22 9t-21.5 -9 t-8.5 -26zM128 269v-159q0 -16 8.5 -25t21.5 -9t22 9t9 25v159q0 16 -9 25.5t-22 9.5t-21.5 -9.5t-8.5 -25.5z" />
<glyph unicode="9" d="M158 76q13 0 22 9.5t9 25.5v193q-39 -44 -88 -44q-32 0 -54 21.5t-22 59.5v224q0 54 38 85t96 31q57 0 94.5 -31t37.5 -85v-454q0 -54 -38 -85.5t-95 -31.5t-95 31t-38 85v77h103v-77q0 -16 8.5 -25t21.5 -9zM189 386v179q0 16 -8.5 25t-21.5 9t-22 -9t-9 -25v-196 q0 -27 23 -27q16 0 27 12t11 32z" />
<glyph unicode=":" horiz-adv-x="152" d="M27 0v116h98v-116h-98zM27 384v116h98v-116h-98z" />
<glyph unicode=";" horiz-adv-x="152" d="M83 -124h-82q26 65 26 124v116h98v-116q0 -26 -10.5 -57t-20.5 -49zM27 384v116h98v-116h-98z" />
<glyph unicode="&#x3c;" horiz-adv-x="395" d="M27 366l341 85v-105l-257 -45v-2l257 -46v-105l-341 85v133z" />
<glyph unicode="=" horiz-adv-x="328" d="M19 336v82h290v-82h-290zM19 182v82h290v-82h-290z" />
<glyph unicode="&#x3e;" horiz-adv-x="395" d="M368 234l-341 -85v105l257 45v2l-257 46v105l341 -85v-133z" />
<glyph unicode="?" horiz-adv-x="313" d="M102 196v82q0 37 8.5 62t21 37t24.5 22.5t20.5 28t8.5 44.5v117q0 17 -9 26t-22 9t-21.5 -9t-8.5 -24v-78h-103v78q0 54 38 84.5t95 30.5t95 -31.5t38 -85.5v-117q0 -38 -8.5 -62.5t-20.5 -36.5t-24 -22.5t-20.5 -28t-8.5 -44.5v-82h-103zM102 0v116h103v-116h-103z" />
<glyph unicode="@" horiz-adv-x="648" d="M323 -124v-82q-128 0 -212 77t-84 211v336q0 133 84 210.5t211 77.5q128 0 213.5 -77.5t85.5 -210.5v-418h-267v37q-37 -43 -87 -43q-33 0 -54.5 21.5t-21.5 58.5v316q0 54 38 85t95 31q36 0 69 -9t49 -19l15 -9v-387h61v336q0 93 -56 149.5t-139 56.5t-138.5 -56 t-55.5 -150v-336q0 -95 55.5 -150.5t138.5 -55.5zM354 415q-12 9 -30 9q-13 0 -22 -9t-9 -25v-287q0 -27 23 -27q16 0 27 11.5t11 31.5v296z" />
<glyph unicode="A" horiz-adv-x="315" d="M6 0l85 700h133l85 -700h-105l-12 142h-69l-12 -142h-105zM128 224h59l-28 362h-2z" />
<glyph unicode="B" horiz-adv-x="321" d="M31 0v700h131q57 0 95.5 -31.5t38.5 -85.5v-123q0 -70 -62 -100q66 -30 66 -102v-141q0 -54 -38.5 -85.5t-95.5 -31.5h-135zM166 318h-32v-236h32q13 0 22 9.5t9 25.5v167q0 15 -9 24.5t-22 9.5zM134 400h28q13 0 22 9t9 25v149q0 16 -9 25.5t-22 9.5h-28v-218z" />
<glyph unicode="C" horiz-adv-x="315" d="M128 590v-481q0 -15 8.5 -24t20.5 -9q13 0 21.5 9t8.5 24v91h103v-91q0 -54 -38 -84.5t-95 -30.5t-94.5 30.5t-37.5 84.5v481q0 54 37.5 85t94.5 31t95 -31t38 -85v-90h-103v90q0 16 -8.5 25t-21.5 9t-21 -9t-8 -25z" />
<glyph unicode="D" horiz-adv-x="322" d="M31 0v700h132q57 0 95 -31.5t38 -85.5v-467q0 -54 -38 -85t-95 -31h-132zM134 82h29q13 0 22 9t9 25v467q0 16 -9 25.5t-22 9.5h-29v-536z" />
<glyph unicode="E" horiz-adv-x="298" d="M31 0v700h242v-82h-139v-219h119v-82h-119v-235h139v-82h-242z" />
<glyph unicode="F" horiz-adv-x="298" d="M31 0v700h242v-82h-139v-219h119v-82h-119v-317h-103z" />
<glyph unicode="G" horiz-adv-x="315" d="M159 311v82h131v-284q0 -54 -38 -84.5t-95 -30.5t-94.5 30.5t-37.5 84.5v481q0 54 37.5 85t94.5 31t95 -31t38 -85v-90h-103v90q0 16 -8.5 25t-21.5 9t-21 -9t-8 -25v-481q0 -15 8.5 -24t20.5 -9q13 0 21.5 9t8.5 24v202h-28z" />
<glyph unicode="H" horiz-adv-x="328" d="M31 0v700h103v-301h61v301h102v-700h-102v317h-61v-317h-103z" />
<glyph unicode="I" horiz-adv-x="165" d="M31 0v700h103v-700h-103z" />
<glyph unicode="J" horiz-adv-x="315" d="M25 200h103v-90q0 -16 8.5 -25t21.5 -9t21 9t8 25v590h103v-590q0 -54 -37.5 -85t-94.5 -31t-95 31t-38 85v90z" />
<glyph unicode="K" horiz-adv-x="320" d="M31 0v700h103v-301h16l57 300h105l-85 -341l87 -358h-105l-58 317h-17v-317h-103z" />
<glyph unicode="L" horiz-adv-x="282" d="M31 0v700h103v-618h134v-82h-237z" />
<glyph unicode="M" horiz-adv-x="525" d="M31 0v700h150l80 -546h2l81 546h150v-700h-99v535h-2l-74 -535h-113l-75 535h-2v-535h-98z" />
<glyph unicode="N" horiz-adv-x="332" d="M31 0v700h76l92 -359h3v359h99v-700h-76l-94 359h-2v-359h-98z" />
<glyph unicode="O" d="M158 706q57 0 95 -31.5t38 -85.5v-479q0 -54 -38 -85t-95 -31t-95 31t-38 85v479q0 54 38 85.5t95 31.5zM128 589v-479q0 -16 8.5 -25t21.5 -9t22 9t9 25v479q0 17 -9 26t-22 9t-21.5 -9t-8.5 -26z" />
<glyph unicode="P" horiz-adv-x="321" d="M31 0v700h131q57 0 95.5 -31.5t38.5 -85.5v-196q0 -54 -38 -85t-96 -31h-28v-271h-103zM134 353h28q13 0 22 9.5t9 24.5v196q0 16 -9 25.5t-22 9.5h-28v-265z" />
<glyph unicode="Q" d="M105 -15v17q-80 26 -80 108v479q0 54 38 85.5t95 31.5t95 -31.5t38 -85.5v-479q0 -41 -23 -69.5t-60 -39.5v-16q0 -16 8.5 -25t21.5 -9h53v-82h-53q-57 0 -95 31t-38 85zM128 589v-479q0 -16 8.5 -25t21.5 -9t22 9t9 25v479q0 17 -9 26t-22 9t-21.5 -9t-8.5 -26z" />
<glyph unicode="R" horiz-adv-x="321" d="M209 0l-48 287h-27v-287h-103v700h131q57 0 95.5 -31.5t38.5 -85.5v-180q0 -62 -52 -92l68 -311h-103zM134 369h28q13 0 22 9t9 25v180q0 16 -9 25.5t-22 9.5h-28v-249z" />
<glyph unicode="S" d="M25 200h103v-90q0 -16 8.5 -25t21.5 -9t22 9t9 25v139q0 20 -17 35.5t-40.5 28t-47.5 28t-41 44.5t-17 69v136q0 54 37.5 85t94.5 31t95 -31t38 -85v-90h-102v90q0 16 -9 25t-22 9t-21.5 -9t-8.5 -25v-136q0 -20 17 -35.5t41 -28t47.5 -28t40.5 -44.5t17 -69v-139 q0 -54 -38 -85t-95 -31t-95 31t-38 85v90z" />
<glyph unicode="T" horiz-adv-x="296" d="M13 618v82h271v-82h-85v-618h-102v618h-84z" />
<glyph unicode="U" d="M25 700h103v-590q0 -16 8.5 -25t21.5 -9t22 9t9 25v590h102v-590q0 -54 -38 -85t-95 -31t-95 31t-38 85v590z" />
<glyph unicode="V" horiz-adv-x="315" d="M91 0l-85 700h105l45 -586h2l46 586h105l-85 -700h-133z" />
<glyph unicode="W" horiz-adv-x="538" d="M93 0l-86 700h106l43 -597h2l46 597h130l45 -597h2l44 597h106l-86 -700h-135l-40 587h-2l-40 -587h-135z" />
<glyph unicode="X" horiz-adv-x="315" d="M5 0l73 360l-71 340h105l44 -306h2l45 305h105l-71 -341l73 -358h-105l-46 326h-2l-47 -326h-105z" />
<glyph unicode="Y" horiz-adv-x="315" d="M106 0v203l-100 497h103l47 -340h2l48 340h103l-101 -497v-203h-102z" />
<glyph unicode="Z" horiz-adv-x="312" d="M25 0v45l151 573h-151v82h261v-45l-147 -573h147v-82h-261z" />
<glyph unicode="[" horiz-adv-x="181" d="M25 -100v850h143v-82h-40v-686h40v-82h-143z" />
<glyph unicode="\" horiz-adv-x="284" d="M162 -100l-143 842h103l143 -842h-103z" />
<glyph unicode="]" horiz-adv-x="181" d="M14 -100v82h40v686h-40v82h142v-850h-142z" />
<glyph unicode="^" horiz-adv-x="296" d="M73 496l-58 58l179 153l178 -153l-58 -58l-120 109z" />
<glyph unicode="_" d="M-4 -107v82h325v-82h-325z" />
<glyph unicode="`" horiz-adv-x="197" d="M143 544l-147 127l58 57l147 -126z" />
<glyph unicode="a" d="M189 0v37q-38 -43 -89 -43q-32 0 -53.5 21t-21.5 58v105q0 53 31 81.5t80 34.5l53 6v90q0 16 -8.5 25t-21.5 9t-22 -9t-9 -25v-61h-103v61q0 54 38 85t96 31q57 0 94.5 -31t37.5 -85v-390h-102zM189 216l-30 -4q-31 -4 -31 -34v-76q0 -26 22 -26q16 0 27.5 12t11.5 31v97 z" />
<glyph unicode="b" horiz-adv-x="318" d="M27 31v694h102v-262q38 43 88 43q33 0 54.5 -21.5t21.5 -58.5v-316q0 -54 -38 -85t-95 -31q-36 0 -69 9t-49 19zM129 85q13 -9 31 -9q13 0 22 9t9 25v287q0 27 -23 27q-16 0 -27.5 -11.5t-11.5 -31.5v-296z" />
<glyph unicode="c" horiz-adv-x="315" d="M128 390v-281q0 -15 8.5 -24t20.5 -9q13 0 21.5 9t8.5 24v62h103v-62q0 -54 -38 -84.5t-95 -30.5t-94.5 30.5t-37.5 84.5v281q0 54 37.5 85t94.5 31t95 -31t38 -85v-61h-103v61q0 16 -8.5 25t-21.5 9t-21 -9t-8 -25z" />
<glyph unicode="d" horiz-adv-x="323" d="M189 0v37q-38 -43 -88 -43q-32 0 -54 21.5t-22 58.5v316q0 54 31.5 85t79.5 31q28 0 53 -10v229h102v-725h-102zM189 415q-12 9 -30 9q-13 0 -22 -9t-9 -25v-287q0 -27 23 -27q16 0 27 11.5t11 31.5v296z" />
<glyph unicode="e" d="M291 216h-163v-106q0 -16 8.5 -25t21.5 -9t22 9t9 25v61h102v-61q0 -54 -38 -85t-95 -31t-95 31t-38 85v279q0 54 38 85.5t95 31.5t95 -31.5t38 -85.5v-173zM128 389v-91h61v91q0 35 -31 35q-13 0 -21.5 -9t-8.5 -26z" />
<glyph unicode="f" horiz-adv-x="231" d="M31 0v600q0 61 39.5 96t98.5 35q13 0 24.5 -1.5t18.5 -3.5l6 -2v-81q-12 6 -37 6q-21 0 -34 -13t-13 -36v-100h84v-82h-84v-418h-103z" />
<glyph unicode="g" d="M25 -68h103v-46q0 -17 9 -26t22 -9q28 0 30 34v152q-38 -43 -88 -43q-32 0 -54 21.5t-22 58.5v316q0 54 38 85t96 31q36 0 69 -9t48 -19l15 -9v-583q0 -54 -37.5 -85.5t-94.5 -31.5t-95.5 31.5t-38.5 85.5v46zM189 415q-12 9 -30 9q-13 0 -22 -9t-9 -25v-287 q0 -27 23 -27q16 0 27 11.5t11 31.5v296z" />
<glyph unicode="h" horiz-adv-x="323" d="M31 0v725h103v-262q37 43 87 43q33 0 54.5 -21.5t21.5 -58.5v-426h-102v397q0 27 -23 27q-16 0 -27 -11.5t-11 -31.5v-381h-103z" />
<glyph unicode="i" horiz-adv-x="165" d="M31 0v500h103v-500h-103zM31 584v116h103v-116h-103z" />
<glyph unicode="j" horiz-adv-x="165" d="M-42 -224v81q12 -6 33 -6q18 0 29 10t11 28v611h103v-611q0 -56 -37 -88t-93 -32q-32 0 -46 7zM31 584v116h103v-116h-103z" />
<glyph unicode="k" horiz-adv-x="320" d="M31 0v725h103v-427h16l54 202h106l-87 -241l91 -259h-106l-58 221h-16v-221h-103z" />
<glyph unicode="l" horiz-adv-x="165" d="M31 0v725h103v-725h-103z" />
<glyph unicode="m" horiz-adv-x="486" d="M134 381v-381h-103v500h103v-37q37 43 87 43q60 0 74 -44q36 44 90 44q33 0 54.5 -21.5t21.5 -58.5v-426h-102v397q0 27 -23 27q-15 0 -26.5 -11t-12.5 -29v-384h-102v397q0 27 -23 27q-16 0 -27 -11.5t-11 -31.5z" />
<glyph unicode="n" horiz-adv-x="323" d="M134 381v-381h-103v500h103v-37q37 43 87 43q33 0 54.5 -21.5t21.5 -58.5v-426h-102v397q0 27 -23 27q-16 0 -27 -11.5t-11 -31.5z" />
<glyph unicode="o" d="M158 506q57 0 95 -31.5t38 -85.5v-279q0 -54 -38 -85t-95 -31t-95 31t-38 85v279q0 54 38 85.5t95 31.5zM128 389v-279q0 -16 8.5 -25t21.5 -9t22 9t9 25v279q0 17 -9 26t-22 9t-21.5 -9t-8.5 -26z" />
<glyph unicode="p" horiz-adv-x="323" d="M31 -200v700h103v-37q37 43 87 43q33 0 54.5 -21.5t21.5 -58.5v-316q0 -54 -31.5 -85t-78.5 -31q-30 0 -53 9v-203h-103zM134 85q12 -9 30 -9q13 0 22 9t9 25v287q0 27 -23 27q-16 0 -27 -11.5t-11 -31.5v-296z" />
<glyph unicode="q" d="M189 -200v237q-38 -43 -88 -43q-32 0 -54 21.5t-22 58.5v316q0 54 38 85t96 31q36 0 69 -9t48 -19l15 -9v-669h-102zM189 415q-12 9 -30 9q-13 0 -22 -9t-9 -25v-287q0 -27 23 -27q16 0 27 11.5t11 31.5v296z" />
<glyph unicode="r" horiz-adv-x="301" d="M31 0v500h103v-51q40 57 94 57q27 0 44.5 -17.5t17.5 -48.5v-111h-102v73q0 22 -18 22q-16 0 -26 -14.5t-10 -37.5v-372h-103z" />
<glyph unicode="s" horiz-adv-x="315" d="M25 171h103v-62q0 -15 8.5 -24t20.5 -9q13 0 21.5 9t8.5 24v70q0 14 -25 26.5t-55.5 23t-55.5 37t-25 64.5v60q0 54 37 85t94 31t94.5 -31t37.5 -85v-61h-102v61q0 16 -8.5 25t-21.5 9t-21 -9t-8 -25v-60q0 -14 25.5 -27t55.5 -23.5t55.5 -36.5t25.5 -64v-70 q0 -54 -38 -84.5t-95 -30.5t-94.5 30.5t-37.5 84.5v62z" />
<glyph unicode="t" horiz-adv-x="232" d="M218 82v-81l-6 -1q-7 -2 -18.5 -4t-24.5 -2q-59 0 -98.5 35t-39.5 96v495h103v-120h84v-82h-84v-293q0 -23 13 -36t34 -13q25 0 37 6z" />
<glyph unicode="u" horiz-adv-x="323" d="M189 0v37q-38 -43 -88 -43q-32 0 -54 21.5t-22 58.5v426h103v-397q0 -27 23 -27q16 0 27 11.5t11 31.5v381h102v-500h-102z" />
<glyph unicode="v" horiz-adv-x="315" d="M91 0l-85 500h105l45 -416h2l46 416h105l-85 -500h-133z" />
<glyph unicode="w" horiz-adv-x="520" d="M87 0l-81 500h105l41 -416h2l41 416h129l41 -416h2l41 416h105l-80 -500h-133l-39 405h-2l-39 -405h-133z" />
<glyph unicode="x" d="M6 0l84 259l-80 241h106l41 -192h2l42 192h106l-80 -241l84 -259h-106l-46 213h-2l-45 -213h-106z" />
<glyph unicode="y" horiz-adv-x="318" d="M25 -68h103v-46q0 -17 9 -26t22 -9q28 0 30 34v152q-38 -43 -88 -43q-32 0 -54 21.5t-22 58.5v426h103v-397q0 -27 23 -27q16 0 27 11.5t11 31.5v381h102v-614q0 -54 -37.5 -85.5t-94.5 -31.5t-95.5 31.5t-38.5 85.5v46z" />
<glyph unicode="z" horiz-adv-x="312" d="M25 0v45l146 373h-146v82h261v-45l-142 -373h142v-82h-261z" />
<glyph unicode="{" horiz-adv-x="214" d="M200 -106h-10q-54 0 -93 31t-39 82v246q0 15 -9 24.5t-21 9.5h-10v84h10q13 0 21.5 9t8.5 26v233q0 54 37.5 85.5t94.5 31.5h10v-82h-10q-13 0 -21.5 -9t-8.5 -26v-233q0 -47 -31 -78q31 -28 31 -75v-246q1 -14 9.5 -22.5t20.5 -8.5h10v-82z" />
<glyph unicode="|" horiz-adv-x="165" d="M31 -100v850h103v-850h-103z" />
<glyph unicode="}" horiz-adv-x="214" d="M18 -106v82h10q13 0 21.5 9t8.5 26v233q0 47 31 78q-31 28 -31 75v246q-1 14 -9.5 22.5t-20.5 8.5h-10v82h10q54 0 93 -31t39 -82v-246q0 -15 9 -24.5t21 -9.5h10v-84h-10q-13 0 -21.5 -9t-8.5 -26v-233q0 -54 -37.5 -85.5t-94.5 -31.5h-10z" />
<glyph unicode="~" horiz-adv-x="365" d="M25 235q0 45 29.5 71.5t73.5 26.5q37 0 62 -20.5t42 -20.5q15 0 25 9.5t10 26.5h73q0 -45 -29.5 -71.5t-73.5 -26.5q-37 0 -62 20.5t-42 20.5q-15 0 -25 -9.5t-10 -26.5h-73z" />
<glyph unicode="&#xa1;" horiz-adv-x="165" d="M31 -200v504h103v-504h-103zM31 384v116h103v-116h-103z" />
<glyph unicode="&#xa2;" horiz-adv-x="315" d="M106 -100v102q-37 11 -59 38.5t-22 68.5v281q0 41 22 68.5t59 39.5v102h102v-102q82 -26 82 -108v-61h-103v61q0 16 -8.5 25t-21.5 9t-21 -9t-8 -25v-281q0 -15 8.5 -24t20.5 -9q13 0 21.5 9t8.5 24v62h103v-62q0 -41 -22.5 -68.5t-59.5 -38.5v-102h-102z" />
<glyph unicode="&#xa3;" horiz-adv-x="337" d="M18 287v82h29v221q0 54 37.5 85t94.5 31t94.5 -31t37.5 -85v-90h-102v90q0 16 -8.5 25t-21.5 9t-21.5 -9t-8.5 -25v-221h162v-82h-162v-205h162v-82h-293v82h29v205h-29z" />
<glyph unicode="&#xa4;" d="M158 406q14 0 28 -3l15 72h106l-38 -118q22 -28 22 -68v-79q0 -36 -19 -63l39 -122h-106l-15 72q-15 -3 -32 -3t-32 3l-14 -72h-106l38 121q-19 27 -19 64v79q0 41 22 69l-37 117h106l14 -71q18 2 28 2zM128 289v-79q0 -16 8.5 -25t21.5 -9t22 9t9 25v79q0 17 -9 26 t-22 9t-21.5 -9t-8.5 -26z" />
<glyph unicode="&#xa5;" horiz-adv-x="315" d="M24 236v81h59l-77 383h103l47 -340h2l48 340h103l-78 -383h60v-81h-77l-6 -33v-20h83v-81h-83v-102h-102v102h-82v81h82v20l-7 33h-75z" />
<glyph unicode="&#xa6;" horiz-adv-x="165" d="M31 -100v375h103v-375h-103zM31 375v375h103v-375h-103z" />
<glyph unicode="&#xa7;" d="M291 130q0 -33 -16 -59q16 -29 16 -67v-119q0 -54 -38 -85t-95 -31t-95 31t-38 85v90h103v-90q0 -16 8.5 -25t21.5 -9t22 9t9 25v119q0 20 -17 35.5t-40.5 28t-47.5 28t-41 44.5t-17 69v136q0 37 16 60q-16 29 -16 69v116q0 54 37.5 85t94.5 31t95 -31t38 -85v-90h-102 v90q0 16 -9 25t-22 9t-21.5 -9t-8.5 -25v-116q0 -20 17 -35.5t41 -28t47.5 -28t40.5 -44.5t17 -69v-139zM189 269q0 21 -14.5 34t-46.5 30v-124q0 -21 15 -34.5t46 -30.5v125z" />
<glyph unicode="&#xa8;" horiz-adv-x="316" d="M36 579v117h86v-117h-86zM188 579v117h86v-117h-86z" />
<glyph unicode="&#xa9;" horiz-adv-x="648" d="M322 706q127 0 213 -70t86 -184v-205q0 -114 -86 -183.5t-212 -69.5t-211 69.5t-85 183.5v205q0 114 84.5 184t210.5 70zM129 452v-205q0 -76 56 -123.5t138 -47.5t138.5 47.5t56.5 123.5v205q0 75 -56.5 123.5t-138.5 48.5t-138 -48.5t-56 -123.5zM293 452v-205 q0 -16 8.5 -25t21.5 -9t22 9t9 25v57h103v-57q0 -54 -38 -85t-96 -31q-57 0 -94.5 31t-37.5 85v205q0 54 37.5 85.5t94.5 31.5q58 0 96 -31.5t38 -85.5v-56h-103v56q0 17 -9 26t-22 9t-21.5 -9t-8.5 -26z" />
<glyph unicode="&#xaa;" horiz-adv-x="178" d="M104 450v18q-20 -21 -44 -21q-16 0 -27 11t-11 29v53q0 50 55 57l27 4v44q0 16 -15 16q-14 0 -14 -16v-30h-53v30q0 28 19 43.5t48 15.5t48 -15.5t19 -43.5v-195h-52zM104 557l-15 -2q-14 -2 -14 -15v-39q0 -12 11 -12q7 0 12.5 5.5t5.5 14.5v48z" />
<glyph unicode="&#xab;" horiz-adv-x="341" d="M176 425l-55 -175l55 -175h-105l-52 175l52 175h105zM324 425l-56 -175l56 -175h-105l-52 175l52 175h105z" />
<glyph unicode="&#xac;" horiz-adv-x="328" d="M19 289v82h290v-173h-102v91h-188z" />
<glyph unicode="&#xad;" horiz-adv-x="212" d="M19 239v82h173v-82h-173z" />
<glyph unicode="&#xae;" horiz-adv-x="648" d="M322 706q127 0 213 -70t86 -184v-205q0 -114 -86 -183.5t-212 -69.5t-211 69.5t-85 183.5v205q0 114 84.5 184t210.5 70zM129 452v-205q0 -76 56 -123.5t138 -47.5t138.5 47.5t56.5 123.5v205q0 75 -56.5 123.5t-138.5 48.5t-138 -48.5t-56 -123.5zM369 164l-47 123h-27 v-123h-103v372h133q57 0 94.5 -30.5t37.5 -83.5v-22q0 -60 -50 -89l58 -147h-96zM295 369h30q13 0 21 8.5t8 22.5v22q0 32 -29 32h-30v-85z" />
<glyph unicode="&#xaf;" horiz-adv-x="165" d="M-24 586v82h212v-82h-212z" />
<glyph unicode="&#xb0;" horiz-adv-x="260" d="M27 577v25q0 48 29 76t74 28q44 0 73.5 -28t29.5 -76v-25q0 -47 -29.5 -74.5t-73.5 -27.5q-45 0 -74 27.5t-29 74.5zM92 602v-25q0 -20 11 -31t27 -11t27 11t11 31v25q0 21 -11 33t-27 12t-27 -12t-11 -33z" />
<glyph unicode="&#xb1;" horiz-adv-x="328" d="M19 271v82h103v109h82v-109h105v-82h-105v-109h-82v109h-103zM19 53v82h290v-82h-290z" />
<glyph unicode="&#xb2;" horiz-adv-x="158" d="M20 400v67q0 20 11 37.5t23.5 28t23.5 23.5t11 24v69q0 12 -12 12q-10 0 -10 -12v-34h-49v34q0 24 17 38t42 14q26 0 43.5 -14t17.5 -38v-69q0 -20 -11 -37.5t-23.5 -28t-23.5 -23.5t-11 -24v-29h69v-38h-118z" />
<glyph unicode="&#xb3;" horiz-adv-x="158" d="M80 436q11 0 11 13v72q0 13 -11 13h-26v39h23q12 0 12 12v64q0 12 -12 12q-10 0 -10 -12v-34h-49v34q0 24 17 38t42 14q26 0 43.5 -14t17.5 -38v-51q0 -30 -26 -44q27 -14 27 -45v-60q0 -24 -16.5 -38t-42.5 -14t-43 14t-17 38v34h49v-34q0 -13 11 -13z" />
<glyph unicode="&#xb4;" horiz-adv-x="197" d="M54 544l-58 58l146 127l58 -58z" />
<glyph unicode="&#xb5;" horiz-adv-x="323" d="M25 -150v650h103v-397q0 -27 23 -27q16 0 27 11.5t11 31.5v381h102v-500h-102v26q-17 -26 -40 -26q-14 0 -21 7v-157h-103z" />
<glyph unicode="&#xb6;" horiz-adv-x="470" d="M290 700v-800h-103v371h-28q-58 0 -96 31t-38 85v196q0 54 38.5 85.5t95.5 31.5h131zM439 700v-800h-102v800h102z" />
<glyph unicode="&#xb7;" horiz-adv-x="152" d="M27 204v117h98v-117h-98z" />
<glyph unicode="&#xb8;" horiz-adv-x="128" d="M27 -146v151h74v-151h-74z" />
<glyph unicode="&#xb9;" horiz-adv-x="123" d="M15 631v44l36 23h49v-298h-49v252z" />
<glyph unicode="&#xba;" horiz-adv-x="178" d="M89 704q28 0 47.5 -16t19.5 -43v-140q0 -27 -19.5 -42.5t-47.5 -15.5q-29 0 -48 15.5t-19 42.5v140q0 27 19 43t48 16zM75 645v-140q0 -16 14 -16q15 0 15 16v140q0 16 -15 16q-14 0 -14 -16z" />
<glyph unicode="&#xbb;" horiz-adv-x="341" d="M18 75l55 175l-55 175h104l52 -175l-52 -175h-104zM165 75l56 175l-56 175h105l52 -175l-52 -175h-105z" />
<glyph unicode="&#xbc;" horiz-adv-x="518" d="M101 0l243 700h74l-243 -700h-74zM352 56v38l45 204h75v-204h8v-38h-8v-56h-48v56h-72zM37 631v44l36 23h49v-298h-49v252zM396 94h28v154z" />
<glyph unicode="&#xbd;" horiz-adv-x="518" d="M101 0l243 700h74l-243 -700h-74zM37 631v44l36 23h49v-298h-49v252zM338 0v67q0 20 11 37.5t23.5 28t23.5 23.5t11 24v69q0 12 -11 12t-11 -12v-34h-49v34q0 24 17 38t43 14t43 -14t17 -38v-69q0 -20 -11 -37.5t-23.5 -28t-23.5 -23.5t-11 -24v-29h69v-38h-118z" />
<glyph unicode="&#xbe;" horiz-adv-x="518" d="M101 0l243 700h74l-243 -700h-74zM352 56v38l45 204h75v-204h8v-38h-8v-56h-48v56h-72zM102 436q10 0 10 13v72q0 13 -10 13h-26v39h23q12 0 12 12v64q0 12 -12 12q-10 0 -10 -12v-34h-49v34q0 24 17 38t42 14q26 0 43.5 -14t17.5 -38v-51q0 -30 -27 -44q28 -13 28 -45 v-60q0 -24 -16.5 -38t-42.5 -14t-43 14t-17 38v34h49v-34q0 -13 11 -13zM396 94h28v154z" />
<glyph unicode="&#xbf;" horiz-adv-x="313" d="M104 310h102v-82q0 -37 -8.5 -62t-20.5 -37t-24 -22.5t-20.5 -28t-8.5 -44.5v-123q0 -16 9 -25.5t22 -9.5t21.5 9t8.5 24v91h102v-91q0 -53 -37.5 -84t-94.5 -31t-95.5 31.5t-38.5 85.5v123q0 38 8.5 62.5t20.5 37t24.5 22.5t21 27.5t8.5 44.5v82zM104 390v116h102v-116 h-102z" />
<glyph unicode="&#xc0;" horiz-adv-x="315" d="M6 0l85 700h133l85 -700h-105l-12 142h-69l-12 -142h-105zM128 224h59l-28 362h-2zM202 744l-147 127l58 57l147 -126z" />
<glyph unicode="&#xc1;" horiz-adv-x="315" d="M6 0l85 700h133l85 -700h-105l-12 142h-69l-12 -142h-105zM128 224h59l-28 362h-2zM114 744l-58 58l146 127l58 -58z" />
<glyph unicode="&#xc2;" horiz-adv-x="315" d="M6 0l85 700h133l85 -700h-105l-12 142h-69l-12 -142h-105zM128 224h59l-28 362h-2zM70 748l-57 58l145 120l145 -120l-58 -58l-87 75z" />
<glyph unicode="&#xc3;" horiz-adv-x="315" d="M6 0l85 700h133l85 -700h-105l-12 142h-69l-12 -142h-105zM128 224h59l-28 362h-2zM26 755q0 44 24.5 69.5t60.5 25.5q27 0 50.5 -19t36.5 -19q12 0 21 8.5t9 24.5h60q0 -44 -24.5 -69.5t-60.5 -25.5q-27 0 -50.5 19t-36.5 19q-12 0 -21 -8.5t-9 -24.5h-60z" />
<glyph unicode="&#xc4;" horiz-adv-x="315" d="M6 0l85 700h133l85 -700h-105l-12 142h-69l-12 -142h-105zM128 224h59l-28 362h-2zM39 779v117h86v-117h-86zM191 779v117h86v-117h-86z" />
<glyph unicode="&#xc5;" horiz-adv-x="315" d="M6 0l85 700h133l85 -700h-105l-12 142h-69l-12 -142h-105zM128 224h59l-28 362h-2zM157 923q40 0 66.5 -25t26.5 -68t-26.5 -68t-66.5 -25t-66.5 25t-26.5 68t26.5 68t66.5 25zM125 830q0 -17 9.5 -27.5t22.5 -10.5t22.5 10.5t9.5 27.5q0 18 -9.5 28.5t-22.5 10.5 t-22.5 -10.5t-9.5 -28.5z" />
<glyph unicode="&#xc6;" horiz-adv-x="440" d="M414 0h-217v142h-68l-22 -142h-101l123 700h285v-82h-114v-219h94v-82h-94v-235h114v-82zM141 224h56v371h-2z" />
<glyph unicode="&#xc7;" horiz-adv-x="315" d="M121 -146v144q-44 9 -70 37.5t-26 73.5v481q0 54 37.5 85t94.5 31t95 -31t38 -85v-90h-103v90q0 16 -8.5 25t-21.5 9t-21 -9t-8 -25v-481q0 -15 8.5 -24t20.5 -9q13 0 21.5 9t8.5 24v91h103v-91q0 -44 -26 -73t-69 -38v-144h-74z" />
<glyph unicode="&#xc8;" horiz-adv-x="298" d="M31 0v700h242v-82h-139v-219h119v-82h-119v-235h139v-82h-242zM194 744l-147 127l58 57l147 -126z" />
<glyph unicode="&#xc9;" horiz-adv-x="298" d="M31 0v700h242v-82h-139v-219h119v-82h-119v-235h139v-82h-242zM105 744l-58 58l146 127l58 -58z" />
<glyph unicode="&#xca;" horiz-adv-x="298" d="M31 0v700h242v-82h-139v-219h119v-82h-119v-235h139v-82h-242zM61 748l-57 58l145 120l145 -120l-58 -58l-87 75z" />
<glyph unicode="&#xcb;" horiz-adv-x="298" d="M31 0v700h242v-82h-139v-219h119v-82h-119v-235h139v-82h-242zM30 779v117h86v-117h-86zM182 779v117h86v-117h-86z" />
<glyph unicode="&#xcc;" horiz-adv-x="165" d="M31 0v700h103v-700h-103zM127 744l-147 127l58 57l147 -126z" />
<glyph unicode="&#xcd;" horiz-adv-x="165" d="M31 0v700h103v-700h-103zM38 744l-58 58l146 127l58 -58z" />
<glyph unicode="&#xce;" horiz-adv-x="165" d="M31 0v700h103v-700h-103zM-5 748l-57 58l145 120l145 -120l-58 -58l-87 75z" />
<glyph unicode="&#xcf;" horiz-adv-x="165" d="M31 0v700h103v-700h-103zM-36 779v117h86v-117h-86zM116 779v117h86v-117h-86z" />
<glyph unicode="&#xd0;" horiz-adv-x="322" d="M9 317v82h22v301h132q57 0 95 -31.5t38 -85.5v-467q0 -54 -38 -85t-95 -31h-132v317h-22zM134 82h29q13 0 22 9t9 25v467q0 16 -9 25.5t-22 9.5h-29v-219h32v-82h-32v-235z" />
<glyph unicode="&#xd1;" horiz-adv-x="332" d="M31 0v700h76l92 -359h3v359h99v-700h-76l-94 359h-2v-359h-98zM35 755q0 44 24.5 69.5t60.5 25.5q27 0 50.5 -19t36.5 -19q12 0 21 8.5t9 24.5h60q0 -44 -24.5 -69.5t-60.5 -25.5q-27 0 -50.5 19t-36.5 19q-12 0 -21 -8.5t-9 -24.5h-60z" />
<glyph unicode="&#xd2;" d="M158 706q57 0 95 -31.5t38 -85.5v-479q0 -54 -38 -85t-95 -31t-95 31t-38 85v479q0 54 38 85.5t95 31.5zM128 589v-479q0 -16 8.5 -25t21.5 -9t22 9t9 25v479q0 17 -9 26t-22 9t-21.5 -9t-8.5 -26zM203 744l-147 127l58 57l147 -126z" />
<glyph unicode="&#xd3;" d="M158 706q57 0 95 -31.5t38 -85.5v-479q0 -54 -38 -85t-95 -31t-95 31t-38 85v479q0 54 38 85.5t95 31.5zM128 589v-479q0 -16 8.5 -25t21.5 -9t22 9t9 25v479q0 17 -9 26t-22 9t-21.5 -9t-8.5 -26zM114 744l-58 58l146 127l58 -58z" />
<glyph unicode="&#xd4;" d="M158 706q57 0 95 -31.5t38 -85.5v-479q0 -54 -38 -85t-95 -31t-95 31t-38 85v479q0 54 38 85.5t95 31.5zM128 589v-479q0 -16 8.5 -25t21.5 -9t22 9t9 25v479q0 17 -9 26t-22 9t-21.5 -9t-8.5 -26zM70 748l-57 58l145 120l145 -120l-58 -58l-87 75z" />
<glyph unicode="&#xd5;" d="M158 706q57 0 95 -31.5t38 -85.5v-479q0 -54 -38 -85t-95 -31t-95 31t-38 85v479q0 54 38 85.5t95 31.5zM128 589v-479q0 -16 8.5 -25t21.5 -9t22 9t9 25v479q0 17 -9 26t-22 9t-21.5 -9t-8.5 -26zM27 755q0 44 24.5 69.5t60.5 25.5q27 0 50.5 -19t36.5 -19q12 0 21 8.5 t9 24.5h60q0 -44 -24.5 -69.5t-60.5 -25.5q-27 0 -50.5 19t-36.5 19q-12 0 -21 -8.5t-9 -24.5h-60z" />
<glyph unicode="&#xd6;" d="M158 706q57 0 95 -31.5t38 -85.5v-479q0 -54 -38 -85t-95 -31t-95 31t-38 85v479q0 54 38 85.5t95 31.5zM128 589v-479q0 -16 8.5 -25t21.5 -9t22 9t9 25v479q0 17 -9 26t-22 9t-21.5 -9t-8.5 -26zM40 779v117h86v-117h-86zM192 779v117h86v-117h-86z" />
<glyph unicode="&#xd7;" horiz-adv-x="328" d="M14 404l58 58l92 -92l92 93l58 -58l-93 -93l94 -93l-58 -58l-93 94l-93 -93l-57 58l92 92z" />
<glyph unicode="&#xd8;" d="M19 0l18 57q-12 23 -12 53v479q0 54 38 85.5t95 31.5q45 0 81 -22l5 16h53l-19 -58q13 -24 13 -53v-479q0 -54 -38 -85t-95 -31q-46 0 -81 20l-4 -14h-54zM158 76q13 0 22 9t9 25v252l-61 -190v-62q0 -16 8.5 -25t21.5 -9zM128 589v-250l61 190v60q0 17 -9 26t-22 9 t-21.5 -9t-8.5 -26z" />
<glyph unicode="&#xd9;" d="M25 700h103v-590q0 -16 8.5 -25t21.5 -9t22 9t9 25v590h102v-590q0 -54 -38 -85t-95 -31t-95 31t-38 85v590zM203 744l-147 127l58 57l147 -126z" />
<glyph unicode="&#xda;" d="M25 700h103v-590q0 -16 8.5 -25t21.5 -9t22 9t9 25v590h102v-590q0 -54 -38 -85t-95 -31t-95 31t-38 85v590zM114 744l-58 58l146 127l58 -58z" />
<glyph unicode="&#xdb;" d="M25 700h103v-590q0 -16 8.5 -25t21.5 -9t22 9t9 25v590h102v-590q0 -54 -38 -85t-95 -31t-95 31t-38 85v590zM70 748l-57 58l145 120l145 -120l-58 -58l-87 75z" />
<glyph unicode="&#xdc;" d="M25 700h103v-590q0 -16 8.5 -25t21.5 -9t22 9t9 25v590h102v-590q0 -54 -38 -85t-95 -31t-95 31t-38 85v590zM40 779v117h86v-117h-86zM192 779v117h86v-117h-86z" />
<glyph unicode="&#xdd;" horiz-adv-x="315" d="M106 0v203l-100 497h103l47 -340h2l48 340h103l-101 -497v-203h-102zM114 744l-58 58l146 127l58 -58z" />
<glyph unicode="&#xde;" horiz-adv-x="316" d="M31 0v700h103v-124h24q57 0 95 -31t38 -85v-219q0 -54 -38 -85.5t-95 -31.5h-24v-124h-103zM134 206h24q13 0 22 9.5t9 25.5v219q0 15 -9 24.5t-22 9.5h-24v-288z" />
<glyph unicode="&#xdf;" horiz-adv-x="457" d="M167 171h103v-62q0 -15 8.5 -24t20.5 -9q13 0 21.5 9t8.5 24v70q0 14 -25.5 26.5t-55.5 23t-55.5 37t-25.5 64.5v69q0 35 24 65.5t24 61.5v77q0 22 -12.5 34t-30.5 12q-19 0 -31.5 -12t-12.5 -34v-603h-103v603q0 60 42 94t105 34t104.5 -34t41.5 -94v-93 q0 -36 -24 -66.5t-24 -61.5v-52q0 -14 25.5 -27t55.5 -23.5t55.5 -36.5t25.5 -64v-70q0 -54 -38 -84.5t-95 -30.5t-94.5 30.5t-37.5 84.5v62z" />
<glyph unicode="&#xe0;" d="M189 0v37q-38 -43 -89 -43q-32 0 -53.5 21t-21.5 58v105q0 53 31 81.5t80 34.5l53 6v90q0 16 -8.5 25t-21.5 9t-22 -9t-9 -25v-61h-103v61q0 54 38 85t96 31q57 0 94.5 -31t37.5 -85v-390h-102zM189 216l-30 -4q-31 -4 -31 -34v-76q0 -26 22 -26q16 0 27.5 12t11.5 31v97 zM203 544l-147 127l58 57l147 -126z" />
<glyph unicode="&#xe1;" d="M189 0v37q-38 -43 -89 -43q-32 0 -53.5 21t-21.5 58v105q0 53 31 81.5t80 34.5l53 6v90q0 16 -8.5 25t-21.5 9t-22 -9t-9 -25v-61h-103v61q0 54 38 85t96 31q57 0 94.5 -31t37.5 -85v-390h-102zM189 216l-30 -4q-31 -4 -31 -34v-76q0 -26 22 -26q16 0 27.5 12t11.5 31v97 zM114 544l-58 58l146 127l58 -58z" />
<glyph unicode="&#xe2;" d="M189 0v37q-38 -43 -89 -43q-32 0 -53.5 21t-21.5 58v105q0 53 31 81.5t80 34.5l53 6v90q0 16 -8.5 25t-21.5 9t-22 -9t-9 -25v-61h-103v61q0 54 38 85t96 31q57 0 94.5 -31t37.5 -85v-390h-102zM189 216l-30 -4q-31 -4 -31 -34v-76q0 -26 22 -26q16 0 27.5 12t11.5 31v97 zM70 548l-57 58l145 120l145 -120l-58 -58l-87 75z" />
<glyph unicode="&#xe3;" d="M189 0v37q-38 -43 -89 -43q-32 0 -53.5 21t-21.5 58v105q0 53 31 81.5t80 34.5l53 6v90q0 16 -8.5 25t-21.5 9t-22 -9t-9 -25v-61h-103v61q0 54 38 85t96 31q57 0 94.5 -31t37.5 -85v-390h-102zM189 216l-30 -4q-31 -4 -31 -34v-76q0 -26 22 -26q16 0 27.5 12t11.5 31v97 zM27 555q0 44 24.5 69.5t60.5 25.5q27 0 50.5 -19t36.5 -19q12 0 21 8.5t9 24.5h60q0 -44 -24.5 -69.5t-60.5 -25.5q-27 0 -50.5 19t-36.5 19q-12 0 -21 -8.5t-9 -24.5h-60z" />
<glyph unicode="&#xe4;" d="M189 0v37q-38 -43 -89 -43q-32 0 -53.5 21t-21.5 58v105q0 53 31 81.5t80 34.5l53 6v90q0 16 -8.5 25t-21.5 9t-22 -9t-9 -25v-61h-103v61q0 54 38 85t96 31q57 0 94.5 -31t37.5 -85v-390h-102zM189 216l-30 -4q-31 -4 -31 -34v-76q0 -26 22 -26q16 0 27.5 12t11.5 31v97 zM40 579v117h86v-117h-86zM192 579v117h86v-117h-86z" />
<glyph unicode="&#xe5;" d="M189 0v37q-38 -43 -89 -43q-32 0 -53.5 21t-21.5 58v105q0 53 31 81.5t80 34.5l53 6v90q0 16 -8.5 25t-21.5 9t-22 -9t-9 -25v-61h-103v61q0 54 38 85t96 31q57 0 94.5 -31t37.5 -85v-390h-102zM189 216l-30 -4q-31 -4 -31 -34v-76q0 -26 22 -26q16 0 27.5 12t11.5 31v97 zM158 723q40 0 66.5 -25t26.5 -68t-26.5 -68t-66.5 -25t-66.5 25t-26.5 68t26.5 68t66.5 25zM126 630q0 -17 9.5 -27.5t22.5 -10.5t22.5 10.5t9.5 27.5q0 18 -9.5 28.5t-22.5 10.5t-22.5 -10.5t-9.5 -28.5z" />
<glyph unicode="&#xe6;" horiz-adv-x="480" d="M455 217h-164v-107q0 -16 9 -25t22 -9t22 9t9 25v61h102v-61q0 -54 -38 -85t-95 -31q-81 0 -114 56q-36 -56 -108 -56q-32 0 -53.5 21t-21.5 58v101q0 53 31 82.5t80 35.5l53 5v93q0 16 -8.5 25t-21.5 9t-22 -9t-9 -25v-61h-103v61q0 54 38 85t96 31q57 0 81 -38 q24 38 82 38q57 0 95 -31.5t38 -85.5v-172zM189 119v94l-30 -3q-31 -4 -31 -36v-72q0 -26 22 -26q16 0 27.5 12t11.5 31zM291 389v-90h62v90q0 35 -31 35t-31 -35z" />
<glyph unicode="&#xe7;" horiz-adv-x="315" d="M121 -146v144q-44 9 -70 37.5t-26 73.5v281q0 54 37.5 85t94.5 31t95 -31t38 -85v-61h-103v61q0 16 -8.5 25t-21.5 9t-21 -9t-8 -25v-281q0 -15 8.5 -24t20.5 -9q13 0 21.5 9t8.5 24v62h103v-62q0 -44 -26 -73t-69 -38v-144h-74z" />
<glyph unicode="&#xe8;" d="M291 216h-163v-106q0 -16 8.5 -25t21.5 -9t22 9t9 25v61h102v-61q0 -54 -38 -85t-95 -31t-95 31t-38 85v279q0 54 38 85.5t95 31.5t95 -31.5t38 -85.5v-173zM128 389v-91h61v91q0 35 -31 35q-13 0 -21.5 -9t-8.5 -26zM203 544l-147 127l58 57l147 -126z" />
<glyph unicode="&#xe9;" d="M291 216h-163v-106q0 -16 8.5 -25t21.5 -9t22 9t9 25v61h102v-61q0 -54 -38 -85t-95 -31t-95 31t-38 85v279q0 54 38 85.5t95 31.5t95 -31.5t38 -85.5v-173zM128 389v-91h61v91q0 35 -31 35q-13 0 -21.5 -9t-8.5 -26zM114 544l-58 58l146 127l58 -58z" />
<glyph unicode="&#xea;" d="M291 216h-163v-106q0 -16 8.5 -25t21.5 -9t22 9t9 25v61h102v-61q0 -54 -38 -85t-95 -31t-95 31t-38 85v279q0 54 38 85.5t95 31.5t95 -31.5t38 -85.5v-173zM128 389v-91h61v91q0 35 -31 35q-13 0 -21.5 -9t-8.5 -26zM70 548l-57 58l145 120l145 -120l-58 -58l-87 75z " />
<glyph unicode="&#xeb;" d="M291 216h-163v-106q0 -16 8.5 -25t21.5 -9t22 9t9 25v61h102v-61q0 -54 -38 -85t-95 -31t-95 31t-38 85v279q0 54 38 85.5t95 31.5t95 -31.5t38 -85.5v-173zM128 389v-91h61v91q0 35 -31 35q-13 0 -21.5 -9t-8.5 -26zM40 579v117h86v-117h-86zM192 579v117h86v-117h-86z " />
<glyph unicode="&#xec;" horiz-adv-x="165" d="M127 544l-147 127l58 57l147 -126zM31 0v500h103v-500h-103z" />
<glyph unicode="&#xed;" horiz-adv-x="165" d="M38 544l-58 58l146 127l58 -58zM31 0v500h103v-500h-103z" />
<glyph unicode="&#xee;" horiz-adv-x="165" d="M31 0v500h103v-500h-103zM-5 548l-57 58l145 120l145 -120l-58 -58l-87 75z" />
<glyph unicode="&#xef;" horiz-adv-x="165" d="M-36 579v117h86v-117h-86zM116 579v117h86v-117h-86zM31 0v500h103v-500h-103z" />
<glyph unicode="&#xf0;" d="M134 545l-50 50l45 44q-15 14 -31.5 27.5t-25.5 19.5l-9 6l37 38q38 -13 80 -39l40 40l50 -50l-34 -34q55 -55 55 -122v-415q0 -54 -37.5 -85t-94.5 -31q-58 0 -96 31t-38 85v316q0 37 22 58.5t54 21.5q50 0 88 -43v62q0 27 -17 58zM189 110v271q0 20 -11 31.5t-27 11.5 q-23 0 -23 -27v-287q0 -16 9 -25t22 -9t21.5 9t8.5 25z" />
<glyph unicode="&#xf1;" horiz-adv-x="323" d="M134 381v-381h-103v500h103v-37q37 43 87 43q33 0 54.5 -21.5t21.5 -58.5v-426h-102v397q0 27 -23 27q-16 0 -27 -11.5t-11 -31.5zM30 555q0 44 24.5 69.5t60.5 25.5q27 0 50.5 -19t36.5 -19q12 0 21 8.5t9 24.5h60q0 -44 -24.5 -69.5t-60.5 -25.5q-27 0 -50.5 19 t-36.5 19q-12 0 -21 -8.5t-9 -24.5h-60z" />
<glyph unicode="&#xf2;" d="M158 506q57 0 95 -31.5t38 -85.5v-279q0 -54 -38 -85t-95 -31t-95 31t-38 85v279q0 54 38 85.5t95 31.5zM128 389v-279q0 -16 8.5 -25t21.5 -9t22 9t9 25v279q0 17 -9 26t-22 9t-21.5 -9t-8.5 -26zM203 544l-147 127l58 57l147 -126z" />
<glyph unicode="&#xf3;" d="M158 506q57 0 95 -31.5t38 -85.5v-279q0 -54 -38 -85t-95 -31t-95 31t-38 85v279q0 54 38 85.5t95 31.5zM128 389v-279q0 -16 8.5 -25t21.5 -9t22 9t9 25v279q0 17 -9 26t-22 9t-21.5 -9t-8.5 -26zM114 544l-58 58l146 127l58 -58z" />
<glyph unicode="&#xf4;" d="M158 506q57 0 95 -31.5t38 -85.5v-279q0 -54 -38 -85t-95 -31t-95 31t-38 85v279q0 54 38 85.5t95 31.5zM128 389v-279q0 -16 8.5 -25t21.5 -9t22 9t9 25v279q0 17 -9 26t-22 9t-21.5 -9t-8.5 -26zM70 548l-57 58l145 120l145 -120l-58 -58l-87 75z" />
<glyph unicode="&#xf5;" d="M158 506q57 0 95 -31.5t38 -85.5v-279q0 -54 -38 -85t-95 -31t-95 31t-38 85v279q0 54 38 85.5t95 31.5zM128 389v-279q0 -16 8.5 -25t21.5 -9t22 9t9 25v279q0 17 -9 26t-22 9t-21.5 -9t-8.5 -26zM27 555q0 44 24.5 69.5t60.5 25.5q27 0 50.5 -19t36.5 -19q12 0 21 8.5 t9 24.5h60q0 -44 -24.5 -69.5t-60.5 -25.5q-27 0 -50.5 19t-36.5 19q-12 0 -21 -8.5t-9 -24.5h-60z" />
<glyph unicode="&#xf6;" d="M158 506q57 0 95 -31.5t38 -85.5v-279q0 -54 -38 -85t-95 -31t-95 31t-38 85v279q0 54 38 85.5t95 31.5zM128 389v-279q0 -16 8.5 -25t21.5 -9t22 9t9 25v279q0 17 -9 26t-22 9t-21.5 -9t-8.5 -26zM40 579v117h86v-117h-86zM192 579v117h86v-117h-86z" />
<glyph unicode="&#xf7;" horiz-adv-x="328" d="M19 239v82h290v-82h-290zM114 69v117h99v-117h-99zM114 375v116h99v-116h-99z" />
<glyph unicode="&#xf8;" d="M19 0l22 49q-16 27 -16 61v279q0 54 38 85.5t95 31.5q46 0 79 -21l7 15h53l-23 -51q17 -26 17 -60v-279q0 -54 -38 -85t-95 -31q-47 0 -79 19l-6 -13h-54zM158 76q13 0 22 9t9 25v149l-61 -136v-13q0 -16 8.5 -25t21.5 -9zM128 389v-147l61 135v12q0 17 -9 26t-22 9 t-21.5 -9t-8.5 -26z" />
<glyph unicode="&#xf9;" horiz-adv-x="323" d="M189 0v37q-38 -43 -88 -43q-32 0 -54 21.5t-22 58.5v426h103v-397q0 -27 23 -27q16 0 27 11.5t11 31.5v381h102v-500h-102zM206 544l-147 127l58 57l147 -126z" />
<glyph unicode="&#xfa;" horiz-adv-x="323" d="M189 0v37q-38 -43 -88 -43q-32 0 -54 21.5t-22 58.5v426h103v-397q0 -27 23 -27q16 0 27 11.5t11 31.5v381h102v-500h-102zM117 544l-58 58l146 127l58 -58z" />
<glyph unicode="&#xfb;" horiz-adv-x="323" d="M189 0v37q-38 -43 -88 -43q-32 0 -54 21.5t-22 58.5v426h103v-397q0 -27 23 -27q16 0 27 11.5t11 31.5v381h102v-500h-102zM74 548l-57 58l145 120l145 -120l-58 -58l-87 75z" />
<glyph unicode="&#xfc;" horiz-adv-x="323" d="M189 0v37q-38 -43 -88 -43q-32 0 -54 21.5t-22 58.5v426h103v-397q0 -27 23 -27q16 0 27 11.5t11 31.5v381h102v-500h-102zM42 579v117h86v-117h-86zM194 579v117h86v-117h-86z" />
<glyph unicode="&#xfd;" horiz-adv-x="318" d="M25 -68h103v-46q0 -17 9 -26t22 -9q28 0 30 34v152q-38 -43 -88 -43q-32 0 -54 21.5t-22 58.5v426h103v-397q0 -27 23 -27q16 0 27 11.5t11 31.5v381h102v-614q0 -54 -37.5 -85.5t-94.5 -31.5t-95.5 31.5t-38.5 85.5v46zM115 544l-58 58l146 127l58 -58z" />
<glyph unicode="&#xfe;" horiz-adv-x="323" d="M31 -200v925h103v-262q37 43 87 43q33 0 54.5 -21.5t21.5 -58.5v-316q0 -54 -31.5 -85t-78.5 -31q-30 0 -53 9v-203h-103zM134 85q12 -9 30 -9q13 0 22 9t9 25v287q0 27 -23 27q-16 0 -27 -11.5t-11 -31.5v-296z" />
<glyph unicode="&#xff;" horiz-adv-x="318" d="M25 -68h103v-46q0 -17 9 -26t22 -9q28 0 30 34v152q-38 -43 -88 -43q-32 0 -54 21.5t-22 58.5v426h103v-397q0 -27 23 -27q16 0 27 11.5t11 31.5v381h102v-614q0 -54 -37.5 -85.5t-94.5 -31.5t-95.5 31.5t-38.5 85.5v46zM40 579v117h86v-117h-86zM192 579v117h86v-117 h-86z" />
<glyph unicode="&#x152;" horiz-adv-x="425" d="M182 0v11q-25 -17 -55 -17q-43 0 -71.5 31t-28.5 85v479q0 54 28.5 85.5t71.5 31.5q30 0 55 -17v11h217v-82h-114v-219h94v-82h-94v-235h114v-82h-217zM160 76q13 0 22 9v529q-9 10 -22 10t-22 -9t-9 -26v-479q0 -16 9 -25t22 -9z" />
<glyph unicode="&#x153;" horiz-adv-x="353" d="M455 216h-164v-106q0 -16 9 -25t22 -9t22 9t9 25v61h102v-61q0 -54 -38 -85t-95 -31q-26 0 -50 10t-33 27q-9 -17 -32 -27t-49 -10q-57 0 -95 31t-38 85v279q0 54 38 85.5t95 31.5q26 0 49 -10t32 -28q9 18 33 28t50 10q57 0 95 -31.5t38 -85.5v-173zM128 389v-279 q0 -16 8.5 -25t21.5 -9t22 9t9 25v279q0 17 -9 26t-22 9t-21.5 -9t-8.5 -26zM291 389v-91h62v91q0 35 -31 35t-31 -35z" />
<glyph unicode="&#x178;" horiz-adv-x="315" d="M106 0v203l-100 497h103l47 -340h2l48 340h103l-101 -497v-203h-102zM39 779v117h86v-117h-86zM191 779v117h86v-117h-86z" />
<glyph unicode="&#x2c6;" horiz-adv-x="197" d="M11 548l-57 58l145 120l145 -120l-58 -58l-87 75z" />
<glyph unicode="&#x2dc;" d="M27 555q0 44 24.5 69.5t60.5 25.5q27 0 50.5 -19t36.5 -19q12 0 21 8.5t9 24.5h60q0 -44 -24.5 -69.5t-60.5 -25.5q-27 0 -50.5 19t-36.5 19q-12 0 -21 -8.5t-9 -24.5h-60z" />
<glyph unicode="&#x2000;" horiz-adv-x="464" />
<glyph unicode="&#x2001;" horiz-adv-x="929" />
<glyph unicode="&#x2002;" horiz-adv-x="464" />
<glyph unicode="&#x2003;" horiz-adv-x="929" />
<glyph unicode="&#x2004;" horiz-adv-x="309" />
<glyph unicode="&#x2005;" horiz-adv-x="232" />
<glyph unicode="&#x2006;" horiz-adv-x="154" />
<glyph unicode="&#x2007;" horiz-adv-x="154" />
<glyph unicode="&#x2008;" horiz-adv-x="116" />
<glyph unicode="&#x2009;" horiz-adv-x="185" />
<glyph unicode="&#x200a;" horiz-adv-x="51" />
<glyph unicode="&#x2010;" horiz-adv-x="212" d="M19 239v82h173v-82h-173z" />
<glyph unicode="&#x2011;" horiz-adv-x="212" d="M19 239v82h173v-82h-173z" />
<glyph unicode="&#x2012;" horiz-adv-x="212" d="M19 239v82h173v-82h-173z" />
<glyph unicode="&#x2013;" horiz-adv-x="328" d="M19 239v82h290v-82h-290z" />
<glyph unicode="&#x2014;" horiz-adv-x="491" d="M19 239v82h453v-82h-453z" />
<glyph unicode="&#x2018;" horiz-adv-x="152" d="M69 725h82q-26 -65 -26 -124v-116h-98v116q0 26 10.5 57t20.5 49z" />
<glyph unicode="&#x2019;" horiz-adv-x="152" d="M83 485h-82q26 65 26 124v116h98v-116q0 -26 -10.5 -57t-20.5 -49z" />
<glyph unicode="&#x201a;" horiz-adv-x="152" d="M83 -124h-82q26 65 26 124v116h98v-116q0 -26 -10.5 -57t-20.5 -49z" />
<glyph unicode="&#x201c;" horiz-adv-x="289" d="M69 725h82q-26 -65 -26 -124v-116h-98v116q0 26 10.5 57t20.5 49zM208 725h82q-26 -65 -26 -124v-116h-98v116q0 26 10.5 57t21.5 49z" />
<glyph unicode="&#x201d;" horiz-adv-x="289" d="M83 485h-82q26 65 26 124v116h98v-116q0 -26 -10.5 -57t-20.5 -49zM222 485h-82q26 65 26 124v116h98v-116q0 -26 -10.5 -57t-21.5 -49z" />
<glyph unicode="&#x201e;" horiz-adv-x="289" d="M83 -124h-82q26 65 26 124v116h98v-116q0 -26 -10.5 -57t-20.5 -49zM222 -124h-82q26 65 26 124v116h98v-116q0 -26 -10.5 -57t-21.5 -49z" />
<glyph unicode="&#x2022;" horiz-adv-x="257" d="M29 203v193h198v-193h-198z" />
<glyph unicode="&#x2026;" horiz-adv-x="435" d="M27 0v116h98v-116h-98zM168 0v116h99v-116h-99zM309 0v116h99v-116h-99z" />
<glyph unicode="&#x202f;" horiz-adv-x="185" />
<glyph unicode="&#x2039;" horiz-adv-x="194" d="M176 425l-55 -175l55 -175h-105l-52 175l52 175h105z" />
<glyph unicode="&#x203a;" horiz-adv-x="194" d="M18 75l55 175l-55 175h104l52 -175l-52 -175h-104z" />
<glyph unicode="&#x205f;" horiz-adv-x="232" />
<glyph unicode="&#x20ac;" horiz-adv-x="337" d="M18 379v82h29v129q0 54 37.5 85t94.5 31t94.5 -31t37.5 -85v-90h-102v90q0 16 -8.5 25t-21.5 9t-21.5 -9t-8.5 -25v-129h162v-82h-162v-53h162v-81h-162v-136q0 -15 8.5 -24t21.5 -9t21.5 9t8.5 24v91h102v-91q0 -54 -37.5 -84.5t-94.5 -30.5t-94.5 30.5t-37.5 84.5v136 h-29v81h29v53h-29z" />
<glyph unicode="&#x2122;" horiz-adv-x="203" d="M16 668v42h137v-42h-42v-218h-53v218h-42zM173 450v260h77l36 -193h1l35 193h77v-260h-48v202h-1l-35 -202h-57l-35 202h-1v-202h-49z" />
</font>
</defs>
</svg>
