<?xml version="1.0" standalone="no"?>
<!DOCTYPE svg PUBLIC "-//W3C//DTD SVG 1.1//EN" "http://www.w3.org/Graphics/SVG/1.1/DTD/svg11.dtd" >
<svg xmlns="http://www.w3.org/2000/svg">
<metadata></metadata>
<defs>
<font id="ristretto_proextralight" horiz-adv-x="324" >
<font-face units-per-em="1000" ascent="750" descent="-250" />
<missing-glyph horiz-adv-x="145" />
<glyph horiz-adv-x="0" />
<glyph horiz-adv-x="333" />
<glyph unicode=" "  horiz-adv-x="145" />
<glyph unicode="&#x09;" horiz-adv-x="145" />
<glyph unicode="&#xa0;" horiz-adv-x="145" />
<glyph unicode="!" horiz-adv-x="143" d="M56 178v522h31v-522h-31zM56 0v81h31v-81h-31z" />
<glyph unicode="&#x22;" horiz-adv-x="242" d="M55 550v175h28v-175h-28zM158 550v175h28v-175h-28z" />
<glyph unicode="#" horiz-adv-x="364" d="M94 0v150h-48v29h48v342h-48v29h48v150h31v-150h123v150h32v-150h47v-29h-47v-342h47v-29h-47v-150h-32v150h-123v-150h-31zM125 179h123v342h-123v-342z" />
<glyph unicode="$" d="M147 -100v99q-44 3 -72 32.5t-28 78.5v90h31v-90q0 -39 23.5 -61.5t59.5 -22.5t60.5 22.5t24.5 61.5v111q0 36 -20.5 58.5t-49.5 33.5t-58 23t-49.5 39.5t-20.5 71.5v95q0 48 27.5 76.5t71.5 32.5v99h29v-99q43 -4 71.5 -32.5t28.5 -76.5v-92h-32v92q0 38 -23.5 60 t-59.5 22q-35 0 -58 -22t-23 -60v-95q0 -36 20.5 -58.5t49 -33.5t57.5 -23.5t49.5 -39.5t20.5 -71v-111q0 -49 -28.5 -78.5t-72.5 -32.5v-99h-29z" />
<glyph unicode="%" horiz-adv-x="491" d="M83 0l296 700h29l-296 -700h-29zM55 481v136q0 39 24.5 62.5t60.5 23.5q37 0 61.5 -23.5t24.5 -62.5v-136q0 -39 -25 -61.5t-61 -22.5t-60.5 22.5t-24.5 61.5zM82 617v-136q0 -26 16.5 -42t41.5 -16t42.5 16t17.5 42v136q0 27 -17.5 43.5t-42.5 16.5t-41.5 -16.5 t-16.5 -43.5zM265 81v136q0 40 24 63t61 23t61.5 -23.5t24.5 -62.5v-136q0 -39 -25 -61.5t-61 -22.5q-37 0 -61 22.5t-24 61.5zM292 217v-136q0 -26 16.5 -42t41.5 -16t42.5 16t17.5 42v136q0 27 -17.5 43.5t-42.5 16.5t-41.5 -16.5t-16.5 -43.5z" />
<glyph unicode="&#x26;" d="M161 358h85v45h31v-293q0 -52 -33 -82.5t-83 -30.5q-49 0 -81.5 30.5t-32.5 82.5v130q0 76 63 103q-63 27 -63 103v118q0 52 32.5 83t81.5 31q50 0 83 -31t33 -83v-64h-31v64q0 39 -24.5 62t-60.5 23t-59.5 -23t-23.5 -62v-122q0 -39 23.5 -61.5t59.5 -22.5zM161 329 q-36 0 -59.5 -23t-23.5 -62v-134q0 -39 23.5 -61.5t59.5 -22.5t60.5 22.5t24.5 61.5v219h-85z" />
<glyph unicode="'" horiz-adv-x="139" d="M55 550v175h28v-175h-28z" />
<glyph unicode="(" horiz-adv-x="199" d="M161 724q-36 0 -59.5 -23t-23.5 -62v-629q0 -39 23.5 -61.5t59.5 -22.5h10v-29h-10q-49 0 -81.5 30.5t-32.5 82.5v629q0 52 32.5 83t81.5 31h10v-29h-10z" />
<glyph unicode=")" horiz-adv-x="199" d="M38 -74q36 0 59.5 23t23.5 62v629q0 39 -23.5 61.5t-59.5 22.5h-10v29h10q49 0 82 -30.5t33 -82.5v-629q0 -52 -33 -83t-82 -31h-10v29h10z" />
<glyph unicode="*" horiz-adv-x="343" d="M37 565v28h108l-54 95l25 15l55 -96l54 96l25 -15l-55 -95h111v-28h-111l54 -95l-24 -14l-54 94l-54 -94l-25 14l54 95h-109z" />
<glyph unicode="+" horiz-adv-x="343" d="M37 296v29h119v125h29v-125h121v-29h-121v-124h-29v124h-119z" />
<glyph unicode="," horiz-adv-x="142" d="M55 -121h-29q29 65 29 121v81h31v-81q0 -25 -8 -55t-16 -48z" />
<glyph unicode="-" horiz-adv-x="219" d="M37 257v29h145v-29h-145z" />
<glyph unicode="." horiz-adv-x="142" d="M55 0v81h31v-81h-31z" />
<glyph unicode="/" horiz-adv-x="302" d="M37 -100l196 849h32l-196 -849h-32z" />
<glyph unicode="0" d="M161 678q50 0 83 -31t33 -83v-454q0 -52 -33 -82.5t-83 -30.5q-49 0 -81.5 30.5t-32.5 82.5v454q0 52 32.5 83t81.5 31zM78 564v-454q0 -39 23.5 -61.5t59.5 -22.5t60.5 22.5t24.5 61.5v454q0 39 -24.5 62t-60.5 23t-59.5 -23t-23.5 -62z" />
<glyph unicode="1" horiz-adv-x="214" d="M28 583v33l98 59h32v-675h-32v642z" />
<glyph unicode="2" horiz-adv-x="320" d="M48 0v115q0 44 20 78.5t48.5 57.5t57 45.5t48.5 53.5t20 69v145q0 39 -24.5 62t-60.5 23q-34 0 -57 -21.5t-23 -58.5v-71h-31v71q0 51 31.5 80t79.5 29q50 0 83 -31t33 -83v-145q0 -44 -20 -78.5t-48.5 -58t-56.5 -45.5t-48 -53t-20 -69v-86h193v-29h-225z" />
<glyph unicode="3" horiz-adv-x="320" d="M158 26q36 0 60 23t24 62v145q0 39 -24 61.5t-60 22.5h-45v28h44q36 0 60.5 22.5t24.5 61.5v112q0 39 -24.5 62t-60.5 23q-34 0 -57 -21.5t-23 -58.5v-71h-31v71q0 51 31.5 80t79.5 29q50 0 83 -31t33 -83v-104q0 -40 -20 -67.5t-54 -38.5q34 -10 54.5 -37.5t20.5 -68.5 v-137q0 -52 -33 -83t-83 -31q-48 0 -79.5 29.5t-31.5 80.5v70h31v-70q0 -37 23 -59t57 -22z" />
<glyph unicode="4" horiz-adv-x="315" d="M28 138v29l181 508h50v-508h28v-29h-28v-138h-31v138h-200zM59 167h169v467h-2z" />
<glyph unicode="5" d="M78 312h-31v363h225v-29h-194v-279q36 62 111 62q37 0 62.5 -24t25.5 -65v-230q0 -52 -33 -82.5t-83 -30.5q-49 0 -81.5 30.5t-32.5 82.5v67h31v-67q0 -39 23.5 -61.5t59.5 -22.5t60.5 22.5t24.5 61.5v226q0 29 -18.5 46.5t-45.5 17.5q-42 0 -73 -28t-31 -60z" />
<glyph unicode="6" d="M162 649q-36 0 -60 -23t-24 -62v-222q36 62 111 62q37 0 62.5 -24t25.5 -65v-205q0 -52 -33 -82.5t-83 -30.5q-49 0 -81.5 30.5t-32.5 82.5v454q0 52 33 83t82 31q48 0 80 -29.5t32 -80.5v-70h-32v70q0 37 -23 59t-57 22zM78 269v-159q0 -39 23.5 -61.5t59.5 -22.5 t60.5 22.5t24.5 61.5v201q0 29 -18.5 46.5t-45.5 17.5q-45 0 -74.5 -29t-29.5 -77z" />
<glyph unicode="7" horiz-adv-x="300" d="M37 646v29h226v-23l-138 -652h-33l137 646h-192z" />
<glyph unicode="8" d="M161 678q50 0 83 -31t33 -83v-118q0 -76 -64 -103q64 -27 64 -103v-130q0 -52 -33 -82.5t-83 -30.5q-49 0 -81.5 30.5t-32.5 82.5v130q0 76 63 103q-63 27 -63 103v118q0 52 32.5 83t81.5 31zM78 564v-122q0 -39 23.5 -61.5t59.5 -22.5t60.5 22.5t24.5 61.5v122 q0 39 -24.5 62t-60.5 23t-59.5 -23t-23.5 -62zM78 244v-134q0 -39 23.5 -61.5t59.5 -22.5t60.5 22.5t24.5 61.5v134q0 39 -24.5 62t-60.5 23t-59.5 -23t-23.5 -62z" />
<glyph unicode="9" d="M160 26q36 0 61 24t25 63v219q-36 -62 -111 -62q-37 0 -62.5 24t-25.5 65v206q0 52 33 82.5t82 30.5q50 0 82.5 -30.5t32.5 -82.5v-452q0 -53 -33.5 -84.5t-83.5 -31.5q-48 0 -80.5 30t-32.5 81v69h31v-69q0 -37 23.5 -59.5t58.5 -22.5zM246 405v160q0 39 -24 61.5 t-60 22.5t-60 -22.5t-24 -61.5v-202q0 -29 18.5 -46.5t44.5 -17.5q45 0 75 29t30 77z" />
<glyph unicode=":" horiz-adv-x="142" d="M55 0v81h31v-81h-31zM55 419v81h31v-81h-31z" />
<glyph unicode=";" horiz-adv-x="142" d="M55 -121h-29q29 65 29 121v81h31v-81q0 -25 -8 -55t-16 -48zM55 419v81h31v-81h-31z" />
<glyph unicode="&#x3c;" horiz-adv-x="417" d="M55 321l306 115v-33l-272 -102v-2l272 -103v-33l-306 115v43z" />
<glyph unicode="=" horiz-adv-x="343" d="M37 361v29h269v-29h-269zM37 210v29h269v-29h-269z" />
<glyph unicode="&#x3e;" horiz-adv-x="417" d="M361 279l-306 -115v33l272 102v2l-272 103v33l306 -115v-43z" />
<glyph unicode="?" horiz-adv-x="320" d="M141 178v85q0 41 10.5 67.5t25.5 40t29.5 26t25 36t10.5 59.5v97q0 39 -24.5 62t-60.5 23q-34 0 -57 -21.5t-23 -58.5v-71h-31v71q0 51 31.5 80t79.5 29q50 0 83 -31t33 -83v-97q0 -41 -10.5 -68t-25 -40t-29.5 -25.5t-25.5 -36t-10.5 -59.5v-85h-31zM141 0v81h31v-81 h-31z" />
<glyph unicode="@" horiz-adv-x="740" d="M369 -174v-29q-136 0 -225 83.5t-89 229.5v278q0 146 89.5 230.5t224.5 84.5t225.5 -85t90.5 -230v-388h-231v59q-36 -62 -111 -62q-37 0 -62.5 24t-25.5 65v304q0 52 33 82.5t83 30.5q33 0 61.5 -9.5t40.5 -18.5l12 -9v-437h168v359q0 130 -81.5 208t-202.5 78 t-201.5 -78t-80.5 -208v-278q0 -131 80.5 -207.5t201.5 -76.5zM454 449q-33 25 -83 25q-36 0 -60.5 -22.5t-24.5 -61.5v-300q0 -29 18.5 -46.5t45.5 -17.5q45 0 74.5 29t29.5 77v317z" />
<glyph unicode="A" horiz-adv-x="315" d="M21 0l115 700h43l115 -700h-32l-35 213h-139l-35 -213h-32zM91 242h133l-65 415h-2z" />
<glyph unicode="B" d="M56 0v700h106q50 0 83 -30.5t33 -83.5v-116q0 -40 -20 -67.5t-54 -38.5q33 -10 53.5 -37.5t20.5 -68.5v-144q0 -53 -33 -83.5t-82 -30.5h-107zM163 350h-76v-321h76q36 0 60 23t24 62v152q0 39 -24 61.5t-60 22.5zM87 378h75q36 0 60 22.5t24 61.5v124q0 39 -24 62 t-60 23h-75v-293z" />
<glyph unicode="C" horiz-adv-x="315" d="M78 593v-487q0 -37 22.5 -58.5t56.5 -21.5t57 21.5t23 58.5v94h31v-94q0 -51 -31.5 -80t-79.5 -29t-79 29t-31 80v487q0 51 31.5 80.5t78.5 29.5q48 0 79.5 -29.5t31.5 -80.5v-93h-31v93q0 37 -23 59t-57 22t-56.5 -22t-22.5 -59z" />
<glyph unicode="D" horiz-adv-x="329" d="M56 0v700h110q50 0 83 -30.5t33 -83.5v-473q0 -53 -33 -83t-83 -30h-110zM87 29h79q36 0 60.5 22.5t24.5 61.5v473q0 39 -24.5 62t-60.5 23h-79v-642z" />
<glyph unicode="E" horiz-adv-x="313" d="M56 0v700h210v-29h-179v-297h159v-29h-159v-316h179v-29h-210z" />
<glyph unicode="F" horiz-adv-x="313" d="M56 0v700h210v-29h-179v-297h159v-29h-159v-345h-31z" />
<glyph unicode="G" horiz-adv-x="315" d="M157 336v29h111v-259q0 -51 -31.5 -80t-79.5 -29t-79 29t-31 80v487q0 51 31.5 80.5t78.5 29.5q48 0 79.5 -29.5t31.5 -80.5v-93h-31v93q0 37 -23 59t-57 22t-56.5 -22t-22.5 -59v-487q0 -37 22.5 -58.5t56.5 -21.5t57 21.5t23 58.5v230h-80z" />
<glyph unicode="H" horiz-adv-x="343" d="M56 0v700h31v-326h168v326h32v-700h-32v345h-168v-345h-31z" />
<glyph unicode="I" horiz-adv-x="143" d="M56 0v700h31v-700h-31z" />
<glyph unicode="J" horiz-adv-x="315" d="M47 200h31v-93q0 -37 23 -59t57 -22t56.5 22t22.5 59v593h31v-593q0 -51 -31.5 -80.5t-78.5 -29.5q-48 0 -79.5 29.5t-31.5 80.5v93z" />
<glyph unicode="K" horiz-adv-x="320" d="M56 0v700h31v-326h49l123 326h33l-130 -340l134 -360h-34l-126 345h-49v-345h-31z" />
<glyph unicode="L" horiz-adv-x="289" d="M56 0v700h31v-671h174v-29h-205z" />
<glyph unicode="M" horiz-adv-x="443" d="M56 0v700h48l116 -651h2l117 651h48v-700h-31v635h-2l-112 -635h-41l-112 635h-2v-635h-31z" />
<glyph unicode="N" horiz-adv-x="343" d="M56 0v700h38l160 -621h2v621h31v-700h-38l-160 621h-2v-621h-31z" />
<glyph unicode="O" d="M161 703q50 0 83 -31t33 -83v-479q0 -52 -33 -82.5t-83 -30.5q-49 0 -81.5 30.5t-32.5 82.5v479q0 52 32.5 83t81.5 31zM78 589v-479q0 -39 23.5 -61.5t59.5 -22.5t60.5 22.5t24.5 61.5v479q0 39 -24.5 62t-60.5 23t-59.5 -23t-23.5 -62z" />
<glyph unicode="P" d="M56 0v700h106q50 0 83 -30.5t33 -83.5v-177q0 -53 -33 -83t-83 -30h-75v-296h-31zM87 325h75q36 0 60 22.5t24 61.5v177q0 39 -24 62t-60 23h-75v-346z" />
<glyph unicode="Q" d="M146 -15v14q-44 5 -71.5 34t-27.5 77v479q0 52 32.5 83t81.5 31q50 0 83 -31t33 -83v-479q0 -48 -27.5 -77t-71.5 -34v-14q0 -39 24 -61.5t60 -22.5h15v-29h-15q-50 0 -83 30.5t-33 82.5zM78 589v-479q0 -39 23.5 -61.5t59.5 -22.5t60.5 22.5t24.5 61.5v479 q0 39 -24.5 62t-60.5 23t-59.5 -23t-23.5 -62z" />
<glyph unicode="R" d="M264 0l-103 315h-74v-315h-31v700h106q50 0 83 -30.5t33 -83.5v-158q0 -44 -24 -72.5t-63 -35.5l106 -320h-33zM87 344h75q36 0 60 22.5t24 61.5v158q0 39 -24 62t-60 23h-75v-327z" />
<glyph unicode="S" d="M47 200h31v-90q0 -39 23.5 -61.5t59.5 -22.5t60.5 22.5t24.5 61.5v136q0 36 -20.5 58.5t-49.5 33.5t-58 23t-49.5 39.5t-20.5 71.5v120q0 52 32.5 81.5t80.5 29.5q49 0 82 -30t33 -81v-92h-32v92q0 38 -23.5 60t-59.5 22q-35 0 -58 -22t-23 -60v-120q0 -36 20.5 -58.5 t49 -33.5t57.5 -23.5t49.5 -39.5t20.5 -71v-136q0 -52 -33 -82.5t-83 -30.5q-49 0 -81.5 30.5t-32.5 82.5v90z" />
<glyph unicode="T" horiz-adv-x="282" d="M23 671v29h236v-29h-102v-671h-32v671h-102z" />
<glyph unicode="U" d="M47 700h31v-590q0 -39 23.5 -61.5t59.5 -22.5t60.5 22.5t24.5 61.5v590h31v-590q0 -52 -33 -82.5t-83 -30.5q-49 0 -81.5 30.5t-32.5 82.5v590z" />
<glyph unicode="V" horiz-adv-x="315" d="M136 0l-115 700h32l103 -657h2l104 657h32l-115 -700h-43z" />
<glyph unicode="W" horiz-adv-x="531" d="M133 0l-111 700h32l99 -652h2l88 652h44l87 -652h2l99 652h33l-112 -700h-44l-86 651h-2l-87 -651h-44z" />
<glyph unicode="X" horiz-adv-x="315" d="M20 0l115 360l-112 340h33l101 -316h2l100 316h33l-111 -340l114 -360h-32l-104 336h-2l-105 -336h-32z" />
<glyph unicode="Y" horiz-adv-x="315" d="M141 0v250l-120 450h33l102 -392h2l103 392h33l-121 -450v-250h-32z" />
<glyph unicode="Z" horiz-adv-x="319" d="M47 0v23l192 648h-192v29h225v-23l-192 -648h192v-29h-225z" />
<glyph unicode="[" horiz-adv-x="199" d="M47 -102v852h124v-29h-93v-792h93v-31h-124z" />
<glyph unicode="\" horiz-adv-x="302" d="M233 -100l-196 849h32l196 -849h-32z" />
<glyph unicode="]" horiz-adv-x="199" d="M28 -102v29h93v793h-93v30h125v-852h-125z" />
<glyph unicode="^" horiz-adv-x="355" d="M57 561l-20 20l147 123l148 -123l-20 -20l-128 107z" />
<glyph unicode="_" d="M-1 -54v29h325v-29h-325z" />
<glyph unicode="`" horiz-adv-x="307" d="M198 576l-110 89l21 21l110 -89z" />
<glyph unicode="a" d="M246 0v59q-17 -29 -49.5 -45.5t-66.5 -16.5q-35 0 -59 23t-24 62v82q0 52 30.5 79t81.5 34l87 11v102q0 39 -24 61.5t-60 22.5t-60 -22.5t-24 -61.5v-43h-31v43q0 52 33 82.5t82 30.5q50 0 82.5 -30.5t32.5 -82.5v-390h-31zM246 260l-84 -11q-37 -5 -60.5 -26t-23.5 -59 v-78q0 -28 17 -44t42 -16q43 0 76 29.5t33 76.5v128z" />
<glyph unicode="b" horiz-adv-x="333" d="M55 34v691h32v-284q36 62 111 62q37 0 62.5 -24t25.5 -65v-304q0 -52 -33 -82.5t-83 -30.5q-33 0 -62 9.5t-41 18.5zM87 51q33 -25 83 -25q36 0 60.5 22.5t24.5 61.5v300q0 29 -18.5 46.5t-45.5 17.5q-45 0 -74.5 -29t-29.5 -77v-317z" />
<glyph unicode="c" horiz-adv-x="315" d="M78 393v-287q0 -37 22.5 -58.5t56.5 -21.5t57 21.5t23 58.5v47h31v-47q0 -51 -31.5 -80t-79.5 -29t-79 29t-31 80v287q0 51 31.5 80.5t78.5 29.5q48 0 79.5 -29.5t31.5 -80.5v-46h-31v46q0 37 -23 59t-57 22t-56.5 -22t-22.5 -59z" />
<glyph unicode="d" horiz-adv-x="333" d="M246 0v59q-36 -62 -111 -62q-37 0 -62.5 24t-25.5 65v304q0 52 32 82.5t80 30.5q51 0 87 -22v244h31v-725h-31zM246 449q-33 25 -84 25q-36 0 -60 -22.5t-24 -61.5v-300q0 -29 18.5 -46.5t44.5 -17.5q45 0 75 29t30 77v317z" />
<glyph unicode="e" d="M277 241h-199v-131q0 -39 23.5 -61.5t59.5 -22.5t60.5 22.5t24.5 61.5v43h31v-43q0 -52 -33 -82.5t-83 -30.5q-49 0 -81.5 30.5t-32.5 82.5v279q0 52 32.5 83t81.5 31q50 0 83 -31t33 -83v-148zM78 389v-119h168v119q0 42 -24 63.5t-61 21.5t-60 -21.5t-23 -63.5z" />
<glyph unicode="f" horiz-adv-x="234" d="M56 0v622q0 49 30.5 77.5t76.5 28.5q24 0 48 -6v-30q-21 7 -46 7q-33 0 -55.5 -20.5t-22.5 -56.5v-122h124v-29h-124v-471h-31z" />
<glyph unicode="g" d="M47 -86h31v-28q0 -39 24 -62t60 -23t60 23t24 62v173q-36 -62 -111 -62q-37 0 -62.5 24t-25.5 65v304q0 52 33 82.5t82 30.5q34 0 62.5 -9.5t40.5 -18.5l12 -9v-580q0 -53 -32.5 -83.5t-82.5 -30.5q-49 0 -82 31t-33 83v28zM246 449q-33 25 -84 25q-36 0 -60 -22.5 t-24 -61.5v-300q0 -29 18.5 -46.5t44.5 -17.5q45 0 75 29t30 77v317z" />
<glyph unicode="h" horiz-adv-x="333" d="M56 0v725h31v-284q37 62 112 62q37 0 62.5 -24t25.5 -65v-414h-32v410q0 29 -18.5 46.5t-44.5 17.5q-45 0 -75 -29t-30 -77v-368h-31z" />
<glyph unicode="i" horiz-adv-x="143" d="M56 0v500h31v-500h-31zM56 619v81h31v-81h-31z" />
<glyph unicode="j" horiz-adv-x="143" d="M-49 -221v29q18 -7 41 -7q27 0 45.5 17.5t18.5 45.5v636h31v-636q0 -43 -26.5 -67.5t-66.5 -24.5q-24 0 -43 7zM56 619v81h31v-81h-31z" />
<glyph unicode="k" horiz-adv-x="320" d="M56 0v725h31v-457h64l108 232h35l-117 -246l120 -254h-35l-111 240h-64v-240h-31z" />
<glyph unicode="l" horiz-adv-x="143" d="M56 0v725h31v-725h-31z" />
<glyph unicode="m" horiz-adv-x="533" d="M87 368v-368h-31v500h31v-59q37 62 112 62q32 0 55.5 -17.5t30.5 -48.5q36 66 113 66q37 0 62.5 -24t25.5 -65v-414h-32v410q0 29 -18.5 46.5t-44.5 17.5q-43 0 -73.5 -30t-30.5 -75v-369h-32v410q0 29 -18.5 46.5t-44.5 17.5q-45 0 -75 -29t-30 -77z" />
<glyph unicode="n" horiz-adv-x="333" d="M87 368v-368h-31v500h31v-59q37 62 112 62q37 0 62.5 -24t25.5 -65v-414h-32v410q0 29 -18.5 46.5t-44.5 17.5q-45 0 -75 -29t-30 -77z" />
<glyph unicode="o" d="M161 503q50 0 83 -31t33 -83v-279q0 -52 -33 -82.5t-83 -30.5q-49 0 -81.5 30.5t-32.5 82.5v279q0 52 32.5 83t81.5 31zM78 389v-279q0 -39 23.5 -61.5t59.5 -22.5t60.5 22.5t24.5 61.5v279q0 39 -24.5 62t-60.5 23t-59.5 -23t-23.5 -62z" />
<glyph unicode="p" horiz-adv-x="333" d="M56 -200v700h31v-59q37 62 112 62q37 0 62.5 -24t25.5 -65v-304q0 -52 -32.5 -82.5t-80.5 -30.5q-49 0 -87 21v-218h-31zM87 51q33 -25 84 -25q36 0 60 22.5t24 61.5v300q0 29 -18.5 46.5t-44.5 17.5q-45 0 -75 -29t-30 -77v-317z" />
<glyph unicode="q" d="M246 -200v259q-36 -62 -111 -62q-37 0 -62.5 24t-25.5 65v304q0 52 33 82.5t82 30.5q34 0 62.5 -9.5t40.5 -18.5l12 -9v-666h-31zM246 449q-33 25 -84 25q-36 0 -60 -22.5t-24 -61.5v-300q0 -29 18.5 -46.5t44.5 -17.5q45 0 75 29t30 77v317z" />
<glyph unicode="r" horiz-adv-x="283" d="M56 0v500h31v-85q31 88 104 88q26 0 43 -16.5t17 -44.5v-95h-31v89q0 17 -10.5 27.5t-26.5 10.5q-45 0 -70.5 -44t-25.5 -107v-323h-31z" />
<glyph unicode="s" horiz-adv-x="315" d="M47 153h31v-47q0 -37 22.5 -58.5t56.5 -21.5t57 21.5t23 58.5v55q0 35 -19.5 54t-47.5 26.5t-55.5 16t-47 33t-19.5 67.5v38q0 50 31 78.5t78 28.5t78.5 -28.5t31.5 -78.5v-49h-32v49q0 36 -22 57t-56 21q-33 0 -55 -21t-22 -57v-38q0 -35 19.5 -54t47 -26.5t55 -16 t47 -33t19.5 -67.5v-55q0 -51 -31.5 -80t-79.5 -29t-79 29t-31 80v47z" />
<glyph unicode="t" horiz-adv-x="239" d="M211 33v-30q-24 -6 -48 -6q-46 0 -76.5 28.5t-30.5 77.5v517h31v-120h124v-29h-124v-368q0 -36 22.5 -56.5t55.5 -20.5q25 0 46 7z" />
<glyph unicode="u" horiz-adv-x="333" d="M246 0v59q-36 -62 -111 -62q-37 0 -62.5 24t-25.5 65v414h31v-410q0 -29 18.5 -46.5t44.5 -17.5q45 0 75 29t30 77v368h31v-500h-31z" />
<glyph unicode="v" horiz-adv-x="315" d="M136 0l-115 500h33l102 -465h2l103 465h33l-115 -500h-43z" />
<glyph unicode="w" horiz-adv-x="503" d="M127 0l-106 500h33l93 -463h2l80 463h43l80 -463h2l92 463h33l-105 -500h-42l-81 462h-2l-80 -462h-42z" />
<glyph unicode="x" d="M23 0l119 254l-116 246h35l99 -219h2l101 219h34l-116 -246l120 -254h-35l-104 228h-2l-102 -228h-35z" />
<glyph unicode="y" horiz-adv-x="333" d="M47 -86h31v-28q0 -39 24 -62t60 -23t60 23t24 62v173q-36 -62 -111 -62q-37 0 -62.5 24t-25.5 65v414h31v-410q0 -29 18.5 -46.5t44.5 -17.5q45 0 75 29t30 77v368h31v-614q0 -53 -32.5 -83.5t-82.5 -30.5q-49 0 -82 31t-33 83v28z" />
<glyph unicode="z" horiz-adv-x="319" d="M47 0v23l190 448h-190v29h225v-23l-190 -448h190v-29h-225z" />
<glyph unicode="{" horiz-adv-x="274" d="M247 -103h-10q-50 0 -82.5 30.5t-32.5 82.5v216q0 39 -24 61.5t-60 22.5h-10v31h10q36 0 60 23t24 62v213q0 53 32.5 83.5t82.5 30.5h10v-29h-10q-36 0 -60 -23t-24 -62v-213q0 -72 -60 -101q60 -27 60 -99v-216q0 -39 24 -61.5t60 -22.5h10v-29z" />
<glyph unicode="|" horiz-adv-x="143" d="M56 -100v850h31v-850h-31z" />
<glyph unicode="}" horiz-adv-x="274" d="M28 -103v29h10q36 0 60 23t24 62v213q0 72 60 101q-60 27 -60 99v216q0 39 -24 61.5t-60 22.5h-10v29h10q49 0 82 -30.5t33 -82.5v-216q0 -39 24 -61.5t60 -22.5h10v-31h-10q-36 0 -60 -23t-24 -62v-213q0 -53 -32.5 -83.5t-82.5 -30.5h-10z" />
<glyph unicode="~" horiz-adv-x="387" d="M47 237q0 39 24.5 62t62.5 23q24 0 41 -10t25 -22t21.5 -22t32.5 -10q25 0 42.5 16t17.5 43h27q0 -39 -25 -62t-62 -23q-29 0 -48 16t-35 32t-37 16q-26 0 -43 -16t-17 -43h-27z" />
<glyph unicode="&#xa1;" horiz-adv-x="143" d="M56 -200v522h31v-522h-31zM56 419v81h31v-81h-31z" />
<glyph unicode="&#xa2;" horiz-adv-x="315" d="M141 -100v99q-42 4 -68 32t-26 75v287q0 47 26 75t68 33v99h32v-99q42 -5 68.5 -33.5t26.5 -74.5v-46h-31v46q0 37 -23 59t-57 22t-56.5 -22t-22.5 -59v-287q0 -37 22.5 -58.5t56.5 -21.5t57 21.5t23 58.5v47h31v-47q0 -46 -27 -74.5t-68 -32.5v-99h-32z" />
<glyph unicode="&#xa3;" horiz-adv-x="344" d="M28 315v29h47v249q0 51 31.5 80.5t79.5 29.5t79.5 -29.5t31.5 -80.5v-93h-31v93q0 37 -23 59t-57 22t-56.5 -22t-22.5 -59v-249h190v-29h-190v-286h190v-29h-269v29h47v286h-47z" />
<glyph unicode="&#xa4;" d="M161 403q34 0 63 -16l39 88h34l-49 -107q29 -31 29 -79v-79q0 -46 -27 -76l51 -109h-35l-40 89q-29 -17 -65 -17q-38 0 -64 16l-39 -88h-35l50 109q-26 31 -26 76v79q0 48 29 80l-50 106h35l39 -87q27 15 61 15zM78 289v-79q0 -39 23.5 -61.5t59.5 -22.5t60.5 22.5 t24.5 61.5v79q0 39 -24.5 62t-60.5 23t-59.5 -23t-23.5 -62z" />
<glyph unicode="&#xa5;" horiz-adv-x="315" d="M42 238v28h94l-115 434h33l102 -392h2l103 392h33l-117 -434h96v-28h-100v-85h100v-29h-100v-124h-32v124h-99v29h99v85h-99z" />
<glyph unicode="&#xa6;" horiz-adv-x="143" d="M56 -100v375h31v-375h-31zM56 375v375h31v-375h-31z" />
<glyph unicode="&#xa7;" d="M277 130q0 -37 -17 -62q17 -29 17 -67v-116q0 -52 -33 -82.5t-83 -30.5q-49 0 -81.5 30.5t-32.5 82.5v90h31v-90q0 -39 23.5 -61.5t59.5 -22.5t60.5 22.5t24.5 61.5v116q0 36 -20.5 58.5t-49.5 33.5t-58 23t-49.5 39.5t-20.5 71.5v120q0 42 23 70q-23 28 -23 75v100 q0 52 32.5 81.5t80.5 29.5q49 0 82 -30t33 -81v-92h-32v92q0 38 -23.5 60t-59.5 22q-35 0 -58 -22t-23 -60v-100q0 -36 20.5 -58.5t49 -33.5t57.5 -23.5t49.5 -39.5t20.5 -71v-136zM246 266q0 41 -23 62.5t-67.5 38t-62.5 29.5q-13 -21 -13 -49v-120q0 -33 17.5 -55t39 -31 t53 -22t48.5 -27q8 18 8 38v136z" />
<glyph unicode="&#xa8;" horiz-adv-x="298" d="M61 597v81h29v-81h-29zM198 597v81h29v-81h-29z" />
<glyph unicode="&#xa9;" horiz-adv-x="740" d="M369 703q135 0 225.5 -75.5t90.5 -203.5v-149q0 -128 -90.5 -203t-225.5 -75t-224.5 74.5t-89.5 203.5v149q0 128 89.5 203.5t224.5 75.5zM87 424v-149q0 -114 80.5 -181.5t201.5 -67.5t202.5 67.5t81.5 181.5v149q0 113 -81.5 181.5t-202.5 68.5q-120 0 -201 -68.5 t-81 -181.5zM286 424v-149q0 -39 24 -61.5t60 -22.5q35 0 59.5 23t24.5 61v23h31v-23q0 -52 -33 -82t-82 -30q-50 0 -82.5 30t-32.5 82v149q0 53 32.5 83t82.5 30q49 0 82 -30t33 -83v-22h-31v22q0 38 -24.5 61.5t-59.5 23.5q-36 0 -60 -23t-24 -62z" />
<glyph unicode="&#xaa;" horiz-adv-x="181" d="M126 450v27q-18 -28 -55 -28q-17 0 -28.5 11t-11.5 30v44q0 49 56 56l39 5v50q0 17 -10 26.5t-25 9.5t-25.5 -9.5t-10.5 -26.5v-23h-24v23q0 26 17 41.5t43 15.5q25 0 42.5 -15.5t17.5 -41.5v-195h-25zM126 574l-35 -4q-36 -6 -36 -36v-39q0 -12 7.5 -19t17.5 -7 q18 0 32 13t14 32v60z" />
<glyph unicode="&#xab;" horiz-adv-x="278" d="M152 425l-81 -175l81 -175h-34l-81 175l81 175h34zM250 425l-81 -175l81 -175h-34l-81 175l81 175h34z" />
<glyph unicode="&#xac;" horiz-adv-x="343" d="M37 307v29h269v-145h-32v116h-237z" />
<glyph unicode="&#xad;" horiz-adv-x="219" d="M37 257v29h145v-29h-145z" />
<glyph unicode="&#xae;" horiz-adv-x="740" d="M369 703q135 0 225.5 -75.5t90.5 -203.5v-149q0 -128 -90.5 -203t-225.5 -75t-224.5 74.5t-89.5 203.5v149q0 128 89.5 203.5t224.5 75.5zM87 424v-149q0 -114 80.5 -181.5t201.5 -67.5t202.5 67.5t81.5 181.5v149q0 113 -81.5 181.5t-202.5 68.5q-120 0 -201 -68.5 t-81 -181.5zM467 169l-90 148h-82v-148h-32v364h115q49 0 78 -25.5t29 -70.5v-25q0 -77 -78 -91l92 -152h-32zM295 346h83q35 0 55.5 17.5t20.5 48.5v25q0 31 -20.5 49t-55.5 18h-83v-158z" />
<glyph unicode="&#xaf;" horiz-adv-x="143" d="M-19 611v29h180v-29h-180z" />
<glyph unicode="&#xb0;" horiz-adv-x="282" d="M55 592v25q0 39 24.5 62.5t60.5 23.5q37 0 61.5 -23.5t24.5 -62.5v-25q0 -40 -25 -62t-61 -22q-37 0 -61 22.5t-24 61.5zM82 617v-25q0 -27 16.5 -43t41.5 -16t42.5 16t17.5 43v25q0 27 -17.5 43.5t-42.5 16.5t-41.5 -16.5t-16.5 -43.5z" />
<glyph unicode="&#xb1;" horiz-adv-x="343" d="M37 296v29h119v125h29v-125h121v-29h-121v-124h-29v124h-119zM37 105v28h269v-28h-269z" />
<glyph unicode="&#xb2;" horiz-adv-x="161" d="M28 400v56q0 22 12.5 40.5t28 28.5t28 25t12.5 33v66q0 13 -9 21.5t-21 8.5t-20 -7.5t-8 -20.5v-33h-24v33q0 23 14.5 35.5t37.5 12.5t38.5 -13.5t15.5 -36.5v-66q0 -22 -12.5 -40t-28 -28.5t-28 -25.5t-12.5 -33v-36h81v-20h-105z" />
<glyph unicode="&#xb3;" horiz-adv-x="160" d="M80 419q12 0 20.5 8t8.5 22v66q0 14 -8.5 22t-20.5 8h-22v20h21q13 0 21.5 8t8.5 22v54q0 13 -9 21.5t-21 8.5t-20 -7.5t-8 -20.5v-33h-24v33q0 23 14.5 35.5t37.5 12.5t38.5 -13.5t15.5 -36.5v-48q0 -35 -31 -45q31 -12 31 -47v-60q0 -23 -15 -36.5t-38 -13.5 t-37.5 12.5t-14.5 35.5v33h24v-33q0 -13 8 -20.5t20 -7.5z" />
<glyph unicode="&#xb4;" horiz-adv-x="307" d="M109 576l-21 21l109 90l21 -21z" />
<glyph unicode="&#xb5;" horiz-adv-x="333" d="M47 -150v650h31v-410q0 -29 18.5 -46.5t44.5 -17.5q45 0 75 29t30 77v368h31v-500h-31v58q-32 -60 -105 -60q-40 0 -63 26v-174h-31z" />
<glyph unicode="&#xb6;" horiz-adv-x="431" d="M268 700v-800h-31v396h-75q-49 0 -82 30t-33 83v177q0 53 33 83.5t82 30.5h106zM375 700v-800h-31v800h31z" />
<glyph unicode="&#xb7;" horiz-adv-x="142" d="M55 222v81h31v-81h-31z" />
<glyph unicode="&#xb8;" horiz-adv-x="138" d="M55 -128v133h28v-133h-28z" />
<glyph unicode="&#xb9;" horiz-adv-x="117" d="M20 649v23l41 26h24v-298h-24v274z" />
<glyph unicode="&#xba;" horiz-adv-x="181" d="M91 702q25 0 42.5 -15.5t17.5 -41.5v-140q0 -26 -17.5 -41t-42.5 -15q-26 0 -43 15t-17 41v140q0 26 17 41.5t43 15.5zM55 645v-140q0 -17 10 -26.5t26 -9.5q15 0 25 9.5t10 26.5v140q0 16 -10 26t-25 10t-25.5 -10t-10.5 -26z" />
<glyph unicode="&#xbb;" horiz-adv-x="278" d="M28 75l81 175l-81 175h35l80 -175l-80 -175h-35zM126 75l81 175l-81 175h35l80 -175l-80 -175h-35z" />
<glyph unicode="&#xbc;" horiz-adv-x="491" d="M83 0l296 700h29l-296 -700h-29zM335 59v20l70 219h37v-219h11v-20h-11v-59h-24v59h-83zM49 649v23l41 26h24v-298h-24v274zM357 79h61v191z" />
<glyph unicode="&#xbd;" horiz-adv-x="491" d="M83 0l296 700h29l-296 -700h-29zM49 649v23l41 26h24v-298h-24v274zM339 0v56q0 28 20.5 49t40.5 38.5t20 39.5v66q0 13 -9 21.5t-21 8.5t-20 -8t-8 -20v-33h-24v33q0 23 14.5 35.5t37.5 12.5t38.5 -13.5t15.5 -36.5v-66q0 -22 -12.5 -40t-28 -28.5t-28 -25.5t-12.5 -33 v-36h81v-20h-105z" />
<glyph unicode="&#xbe;" horiz-adv-x="491" d="M83 0l296 700h29l-296 -700h-29zM335 59v20l70 219h37v-219h11v-20h-11v-59h-24v59h-83zM109 419q12 0 20.5 8t8.5 22v66q0 14 -8.5 22t-20.5 8h-22v20h21q13 0 21.5 8t8.5 22v54q0 13 -9 21.5t-21 8.5t-20.5 -8t-8.5 -20v-33h-24v33q0 22 15 35t38 13t38.5 -13.5 t15.5 -36.5v-48q0 -35 -32 -45q32 -12 32 -47v-60q0 -23 -15 -36.5t-38 -13.5t-37.5 12.5t-14.5 35.5v33h24v-33q0 -13 8 -20.5t20 -7.5zM357 79h61v191z" />
<glyph unicode="&#xbf;" horiz-adv-x="320" d="M147 325h31v-85q0 -41 -10.5 -68t-25 -40t-29.5 -25.5t-25.5 -36t-10.5 -59.5v-98q0 -39 24.5 -62t60.5 -23q34 0 57 21.5t23 57.5v93h31v-93q0 -50 -31.5 -79t-79.5 -29q-50 0 -83 30.5t-33 83.5v98q0 41 10.5 67.5t25 40t29.5 26t25.5 36t10.5 59.5v85zM147 422v81h31 v-81h-31z" />
<glyph unicode="&#xc0;" horiz-adv-x="315" d="M21 0l115 700h43l115 -700h-32l-35 213h-139l-35 -213h-32zM91 242h133l-65 415h-2zM202 776l-110 89l21 21l110 -89z" />
<glyph unicode="&#xc1;" horiz-adv-x="315" d="M21 0l115 700h43l115 -700h-32l-35 213h-139l-35 -213h-32zM91 242h133l-65 415h-2zM114 776l-21 21l109 90l21 -21z" />
<glyph unicode="&#xc2;" horiz-adv-x="315" d="M21 0l115 700h43l115 -700h-32l-35 213h-139l-35 -213h-32zM91 242h133l-65 415h-2zM78 776l-20 20l100 77l100 -77l-20 -20l-80 61z" />
<glyph unicode="&#xc3;" horiz-adv-x="315" d="M21 0l115 700h43l115 -700h-32l-35 213h-139l-35 -213h-32zM91 242h133l-65 415h-2zM43 784q0 31 19 48.5t48 17.5q30 0 53 -22.5t43 -22.5q17 0 29 11t12 29h26q0 -31 -19 -48.5t-48 -17.5t-53 22.5t-43 22.5q-17 0 -29.5 -10.5t-12.5 -29.5h-25z" />
<glyph unicode="&#xc4;" horiz-adv-x="315" d="M21 0l115 700h43l115 -700h-32l-35 213h-139l-35 -213h-32zM91 242h133l-65 415h-2zM74 797v81h29v-81h-29zM211 797v81h29v-81h-29z" />
<glyph unicode="&#xc5;" horiz-adv-x="315" d="M21 0l115 700h43l115 -700h-32l-35 213h-139l-35 -213h-32zM91 242h133l-65 415h-2zM157 905q33 0 54.5 -20t21.5 -55t-21.5 -55t-54.5 -20q-32 0 -53 19.5t-21 54.5q0 36 21 56t53 20zM108 829q0 -23 14 -36t35 -13q22 0 36.5 13t14.5 36t-14.5 37t-36.5 14 q-21 0 -35 -14t-14 -37z" />
<glyph unicode="&#xc6;" horiz-adv-x="422" d="M375 0h-185v213h-93l-44 -213h-32l146 700h208v-29h-153v-297h133v-29h-133v-316h153v-29zM102 242h88v418h-2z" />
<glyph unicode="&#xc7;" horiz-adv-x="315" d="M143 -128v126q-43 4 -69.5 32.5t-26.5 75.5v487q0 51 31.5 80.5t78.5 29.5q48 0 79.5 -29.5t31.5 -80.5v-93h-31v93q0 37 -23 59t-57 22t-56.5 -22t-22.5 -59v-487q0 -37 22.5 -58.5t56.5 -21.5t57 21.5t23 58.5v94h31v-94q0 -47 -27.5 -75.5t-69.5 -32.5v-126h-28z" />
<glyph unicode="&#xc8;" horiz-adv-x="313" d="M56 0v700h210v-29h-179v-297h159v-29h-159v-316h179v-29h-210zM201 776l-110 89l21 21l110 -89z" />
<glyph unicode="&#xc9;" horiz-adv-x="313" d="M56 0v700h210v-29h-179v-297h159v-29h-159v-316h179v-29h-210zM113 776l-21 21l109 90l21 -21z" />
<glyph unicode="&#xca;" horiz-adv-x="313" d="M56 0v700h210v-29h-179v-297h159v-29h-159v-316h179v-29h-210zM77 776l-20 20l100 77l100 -77l-20 -20l-80 61z" />
<glyph unicode="&#xcb;" horiz-adv-x="313" d="M56 0v700h210v-29h-179v-297h159v-29h-159v-316h179v-29h-210zM73 797v81h29v-81h-29zM210 797v81h29v-81h-29z" />
<glyph unicode="&#xcc;" horiz-adv-x="143" d="M56 0v700h31v-700h-31zM117 776l-110 89l21 21l110 -89z" />
<glyph unicode="&#xcd;" horiz-adv-x="143" d="M56 0v700h31v-700h-31zM28 776l-21 21l109 90l21 -21z" />
<glyph unicode="&#xce;" horiz-adv-x="143" d="M56 0v700h31v-700h-31zM-8 776l-20 20l100 77l100 -77l-20 -20l-80 61z" />
<glyph unicode="&#xcf;" horiz-adv-x="143" d="M56 0v700h31v-700h-31zM-11 797v81h29v-81h-29zM126 797v81h29v-81h-29z" />
<glyph unicode="&#xd0;" horiz-adv-x="329" d="M27 345v29h29v326h110q50 0 83 -30.5t33 -83.5v-473q0 -53 -33 -83t-83 -30h-110v345h-29zM87 29h79q36 0 60.5 22.5t24.5 61.5v473q0 39 -24.5 62t-60.5 23h-79v-297h87v-29h-87v-316z" />
<glyph unicode="&#xd1;" horiz-adv-x="343" d="M56 0v700h38l160 -621h2v621h31v-700h-38l-160 621h-2v-621h-31zM57 784q0 31 19 48.5t48 17.5q30 0 53 -22.5t43 -22.5q17 0 29 11t12 29h26q0 -31 -19 -48.5t-48 -17.5t-53 22.5t-43 22.5q-17 0 -29.5 -10.5t-12.5 -29.5h-25z" />
<glyph unicode="&#xd2;" d="M161 703q50 0 83 -31t33 -83v-479q0 -52 -33 -82.5t-83 -30.5q-49 0 -81.5 30.5t-32.5 82.5v479q0 52 32.5 83t81.5 31zM78 589v-479q0 -39 23.5 -61.5t59.5 -22.5t60.5 22.5t24.5 61.5v479q0 39 -24.5 62t-60.5 23t-59.5 -23t-23.5 -62zM206 776l-110 89l21 21l110 -89z " />
<glyph unicode="&#xd3;" d="M161 703q50 0 83 -31t33 -83v-479q0 -52 -33 -82.5t-83 -30.5q-49 0 -81.5 30.5t-32.5 82.5v479q0 52 32.5 83t81.5 31zM78 589v-479q0 -39 23.5 -61.5t59.5 -22.5t60.5 22.5t24.5 61.5v479q0 39 -24.5 62t-60.5 23t-59.5 -23t-23.5 -62zM117 776l-21 21l109 90l21 -21z " />
<glyph unicode="&#xd4;" d="M161 703q50 0 83 -31t33 -83v-479q0 -52 -33 -82.5t-83 -30.5q-49 0 -81.5 30.5t-32.5 82.5v479q0 52 32.5 83t81.5 31zM78 589v-479q0 -39 23.5 -61.5t59.5 -22.5t60.5 22.5t24.5 61.5v479q0 39 -24.5 62t-60.5 23t-59.5 -23t-23.5 -62zM82 776l-20 20l100 77l100 -77 l-20 -20l-80 61z" />
<glyph unicode="&#xd5;" d="M161 703q50 0 83 -31t33 -83v-479q0 -52 -33 -82.5t-83 -30.5q-49 0 -81.5 30.5t-32.5 82.5v479q0 52 32.5 83t81.5 31zM78 589v-479q0 -39 23.5 -61.5t59.5 -22.5t60.5 22.5t24.5 61.5v479q0 39 -24.5 62t-60.5 23t-59.5 -23t-23.5 -62zM47 784q0 31 19 48.5t48 17.5 q30 0 53 -22.5t43 -22.5q17 0 29 11t12 29h26q0 -31 -19 -48.5t-48 -17.5t-53 22.5t-43 22.5q-17 0 -29.5 -10.5t-12.5 -29.5h-25z" />
<glyph unicode="&#xd6;" d="M161 703q50 0 83 -31t33 -83v-479q0 -52 -33 -82.5t-83 -30.5q-49 0 -81.5 30.5t-32.5 82.5v479q0 52 32.5 83t81.5 31zM78 589v-479q0 -39 23.5 -61.5t59.5 -22.5t60.5 22.5t24.5 61.5v479q0 39 -24.5 62t-60.5 23t-59.5 -23t-23.5 -62zM79 797v81h29v-81h-29zM216 797 v81h29v-81h-29z" />
<glyph unicode="&#xd7;" horiz-adv-x="343" d="M36 424l21 21l114 -115l114 115l20 -20l-114 -115l114 -114l-20 -20l-114 114l-114 -114l-21 21l115 113z" />
<glyph unicode="&#xd8;" d="M37 0l19 61q-9 21 -9 49v479q0 52 32.5 83t81.5 31q56 0 88 -37l11 34h27l-20 -62q10 -23 10 -49v-479q0 -52 -33 -82.5t-83 -30.5q-56 0 -88 36l-10 -33h-26zM161 26q36 0 60.5 22.5t24.5 61.5v462l-161 -501q20 -45 76 -45zM78 589v-461l159 501q-23 45 -76 45 q-36 0 -59.5 -23t-23.5 -62z" />
<glyph unicode="&#xd9;" d="M47 700h31v-590q0 -39 23.5 -61.5t59.5 -22.5t60.5 22.5t24.5 61.5v590h31v-590q0 -52 -33 -82.5t-83 -30.5q-49 0 -81.5 30.5t-32.5 82.5v590zM206 776l-110 89l21 21l110 -89z" />
<glyph unicode="&#xda;" d="M47 700h31v-590q0 -39 23.5 -61.5t59.5 -22.5t60.5 22.5t24.5 61.5v590h31v-590q0 -52 -33 -82.5t-83 -30.5q-49 0 -81.5 30.5t-32.5 82.5v590zM117 776l-21 21l109 90l21 -21z" />
<glyph unicode="&#xdb;" d="M47 700h31v-590q0 -39 23.5 -61.5t59.5 -22.5t60.5 22.5t24.5 61.5v590h31v-590q0 -52 -33 -82.5t-83 -30.5q-49 0 -81.5 30.5t-32.5 82.5v590zM82 776l-20 20l100 77l100 -77l-20 -20l-80 61z" />
<glyph unicode="&#xdc;" d="M47 700h31v-590q0 -39 23.5 -61.5t59.5 -22.5t60.5 22.5t24.5 61.5v590h31v-590q0 -52 -33 -82.5t-83 -30.5q-49 0 -81.5 30.5t-32.5 82.5v590zM79 797v81h29v-81h-29zM216 797v81h29v-81h-29z" />
<glyph unicode="&#xdd;" horiz-adv-x="315" d="M141 0v250l-120 450h33l102 -392h2l103 392h33l-121 -450v-250h-32zM114 776l-21 21l109 90l21 -21z" />
<glyph unicode="&#xde;" horiz-adv-x="302" d="M56 0v700h31v-121h53q49 0 82.5 -30t33.5 -82v-233q0 -52 -33.5 -82.5t-82.5 -30.5h-53v-121h-31zM87 149h53q36 0 60 23t24 62v233q0 39 -24 61.5t-60 22.5h-53v-402z" />
<glyph unicode="&#xdf;" horiz-adv-x="404" d="M135 153h32v-47q0 -37 22.5 -58.5t56.5 -21.5t57 21.5t23 58.5v55q0 35 -19.5 54t-47.5 26.5t-55.5 16t-47 33t-19.5 67.5v39q0 32 16 51.5t35 27t35 26.5t16 50v66q0 37 -23.5 59t-57.5 22t-57 -22t-23 -59v-618h-31v618q0 51 31.5 80.5t79.5 29.5q49 0 81 -29.5 t32 -80.5v-68q0 -35 -16 -57t-35.5 -30.5t-35.5 -25t-16 -42.5v-37q0 -35 19.5 -54t47 -26.5t55.5 -16t47.5 -33t19.5 -67.5v-55q0 -51 -31.5 -80t-79.5 -29t-79.5 29t-31.5 80v47z" />
<glyph unicode="&#xe0;" d="M246 0v59q-17 -29 -49.5 -45.5t-66.5 -16.5q-35 0 -59 23t-24 62v82q0 52 30.5 79t81.5 34l87 11v102q0 39 -24 61.5t-60 22.5t-60 -22.5t-24 -61.5v-43h-31v43q0 52 33 82.5t82 30.5q50 0 82.5 -30.5t32.5 -82.5v-390h-31zM246 260l-84 -11q-37 -5 -60.5 -26t-23.5 -59 v-78q0 -28 17 -44t42 -16q43 0 76 29.5t33 76.5v128zM206 576l-110 89l21 21l110 -89z" />
<glyph unicode="&#xe1;" d="M246 0v59q-17 -29 -49.5 -45.5t-66.5 -16.5q-35 0 -59 23t-24 62v82q0 52 30.5 79t81.5 34l87 11v102q0 39 -24 61.5t-60 22.5t-60 -22.5t-24 -61.5v-43h-31v43q0 52 33 82.5t82 30.5q50 0 82.5 -30.5t32.5 -82.5v-390h-31zM246 260l-84 -11q-37 -5 -60.5 -26t-23.5 -59 v-78q0 -28 17 -44t42 -16q43 0 76 29.5t33 76.5v128zM117 576l-21 21l109 90l21 -21z" />
<glyph unicode="&#xe2;" d="M246 0v59q-17 -29 -49.5 -45.5t-66.5 -16.5q-35 0 -59 23t-24 62v82q0 52 30.5 79t81.5 34l87 11v102q0 39 -24 61.5t-60 22.5t-60 -22.5t-24 -61.5v-43h-31v43q0 52 33 82.5t82 30.5q50 0 82.5 -30.5t32.5 -82.5v-390h-31zM246 260l-84 -11q-37 -5 -60.5 -26t-23.5 -59 v-78q0 -28 17 -44t42 -16q43 0 76 29.5t33 76.5v128zM82 576l-20 20l100 77l100 -77l-20 -20l-80 61z" />
<glyph unicode="&#xe3;" d="M246 0v59q-17 -29 -49.5 -45.5t-66.5 -16.5q-35 0 -59 23t-24 62v82q0 52 30.5 79t81.5 34l87 11v102q0 39 -24 61.5t-60 22.5t-60 -22.5t-24 -61.5v-43h-31v43q0 52 33 82.5t82 30.5q50 0 82.5 -30.5t32.5 -82.5v-390h-31zM246 260l-84 -11q-37 -5 -60.5 -26t-23.5 -59 v-78q0 -28 17 -44t42 -16q43 0 76 29.5t33 76.5v128zM47 584q0 31 19 48.5t48 17.5q30 0 53 -22.5t43 -22.5q17 0 29 11t12 29h26q0 -31 -19 -48.5t-48 -17.5t-53 22.5t-43 22.5q-17 0 -29.5 -10.5t-12.5 -29.5h-25z" />
<glyph unicode="&#xe4;" d="M246 0v59q-17 -29 -49.5 -45.5t-66.5 -16.5q-35 0 -59 23t-24 62v82q0 52 30.5 79t81.5 34l87 11v102q0 39 -24 61.5t-60 22.5t-60 -22.5t-24 -61.5v-43h-31v43q0 52 33 82.5t82 30.5q50 0 82.5 -30.5t32.5 -82.5v-390h-31zM246 260l-84 -11q-37 -5 -60.5 -26t-23.5 -59 v-78q0 -28 17 -44t42 -16q43 0 76 29.5t33 76.5v128zM79 597v81h29v-81h-29zM216 597v81h29v-81h-29z" />
<glyph unicode="&#xe5;" d="M246 0v59q-17 -29 -49.5 -45.5t-66.5 -16.5q-35 0 -59 23t-24 62v82q0 52 30.5 79t81.5 34l87 11v102q0 39 -24 61.5t-60 22.5t-60 -22.5t-24 -61.5v-43h-31v43q0 52 33 82.5t82 30.5q50 0 82.5 -30.5t32.5 -82.5v-390h-31zM246 260l-84 -11q-37 -5 -60.5 -26t-23.5 -59 v-78q0 -28 17 -44t42 -16q43 0 76 29.5t33 76.5v128zM161 705q33 0 54.5 -20t21.5 -55t-21.5 -55t-54.5 -20q-32 0 -53 19.5t-21 54.5q0 36 21 56t53 20zM112 629q0 -23 14 -36t35 -13q22 0 36.5 13t14.5 36t-14.5 37t-36.5 14q-21 0 -35 -14t-14 -37z" />
<glyph unicode="&#xe6;" horiz-adv-x="523" d="M477 245h-200v-135q0 -39 24 -61.5t60 -22.5t60 22.5t24 61.5v43h32v-43q0 -52 -33.5 -82.5t-82.5 -30.5q-38 0 -67 19t-40 52q-45 -71 -124 -71q-35 0 -59 23t-24 62v64q0 53 32 85.5t80 35.5l87 6v117q0 39 -24 61.5t-60 22.5t-60 -22.5t-24 -61.5v-43h-31v43 q0 52 33 82.5t82 30.5q73 0 100 -61q12 29 38.5 45t60.5 16q49 0 82.5 -31t33.5 -83v-144zM246 132v113l-84 -7q-35 -2 -59.5 -27.5t-24.5 -64.5v-60q0 -28 17 -44t42 -16q43 0 76 29.5t33 76.5zM277 389v-115h168v115q0 42 -23.5 63.5t-60.5 21.5t-60.5 -21.5t-23.5 -63.5z " />
<glyph unicode="&#xe7;" horiz-adv-x="315" d="M143 -128v126q-43 4 -69.5 32.5t-26.5 75.5v287q0 51 31.5 80.5t78.5 29.5q48 0 79.5 -29.5t31.5 -80.5v-46h-31v46q0 37 -23 59t-57 22t-56.5 -22t-22.5 -59v-287q0 -37 22.5 -58.5t56.5 -21.5t57 21.5t23 58.5v47h31v-47q0 -47 -27.5 -75.5t-69.5 -32.5v-126h-28z" />
<glyph unicode="&#xe8;" d="M277 241h-199v-131q0 -39 23.5 -61.5t59.5 -22.5t60.5 22.5t24.5 61.5v43h31v-43q0 -52 -33 -82.5t-83 -30.5q-49 0 -81.5 30.5t-32.5 82.5v279q0 52 32.5 83t81.5 31q50 0 83 -31t33 -83v-148zM78 389v-119h168v119q0 42 -24 63.5t-61 21.5t-60 -21.5t-23 -63.5z M206 576l-110 89l21 21l110 -89z" />
<glyph unicode="&#xe9;" d="M277 241h-199v-131q0 -39 23.5 -61.5t59.5 -22.5t60.5 22.5t24.5 61.5v43h31v-43q0 -52 -33 -82.5t-83 -30.5q-49 0 -81.5 30.5t-32.5 82.5v279q0 52 32.5 83t81.5 31q50 0 83 -31t33 -83v-148zM78 389v-119h168v119q0 42 -24 63.5t-61 21.5t-60 -21.5t-23 -63.5z M117 576l-21 21l109 90l21 -21z" />
<glyph unicode="&#xea;" d="M277 241h-199v-131q0 -39 23.5 -61.5t59.5 -22.5t60.5 22.5t24.5 61.5v43h31v-43q0 -52 -33 -82.5t-83 -30.5q-49 0 -81.5 30.5t-32.5 82.5v279q0 52 32.5 83t81.5 31q50 0 83 -31t33 -83v-148zM78 389v-119h168v119q0 42 -24 63.5t-61 21.5t-60 -21.5t-23 -63.5zM82 576 l-20 20l100 77l100 -77l-20 -20l-80 61z" />
<glyph unicode="&#xeb;" d="M277 241h-199v-131q0 -39 23.5 -61.5t59.5 -22.5t60.5 22.5t24.5 61.5v43h31v-43q0 -52 -33 -82.5t-83 -30.5q-49 0 -81.5 30.5t-32.5 82.5v279q0 52 32.5 83t81.5 31q50 0 83 -31t33 -83v-148zM78 389v-119h168v119q0 42 -24 63.5t-61 21.5t-60 -21.5t-23 -63.5zM79 597 v81h29v-81h-29zM216 597v81h29v-81h-29z" />
<glyph unicode="&#xec;" horiz-adv-x="143" d="M117 576l-110 89l21 21l110 -89zM56 0v500h31v-500h-31z" />
<glyph unicode="&#xed;" horiz-adv-x="143" d="M28 576l-21 21l109 90l21 -21zM56 0v500h31v-500h-31z" />
<glyph unicode="&#xee;" horiz-adv-x="143" d="M56 0v500h31v-500h-31zM-8 576l-20 20l100 77l100 -77l-20 -20l-80 61z" />
<glyph unicode="&#xef;" horiz-adv-x="143" d="M-11 597v81h29v-81h-29zM126 597v81h29v-81h-29zM56 0v500h31v-500h-31z" />
<glyph unicode="&#xf0;" d="M137 582l-19 19l56 55q-22 17 -48 31t-42 19l-15 6l16 16q56 -15 108 -53l54 54l19 -19l-52 -51q63 -58 63 -134v-415q0 -52 -32.5 -82.5t-82.5 -30.5q-49 0 -82 30.5t-33 82.5v304q0 41 25.5 65t62.5 24q75 0 111 -62v84q0 62 -52 114zM246 110v258q0 48 -30 77t-75 29 q-26 0 -44.5 -17.5t-18.5 -46.5v-300q0 -39 24 -61.5t60 -22.5t60 22.5t24 61.5z" />
<glyph unicode="&#xf1;" horiz-adv-x="333" d="M87 368v-368h-31v500h31v-59q37 62 112 62q37 0 62.5 -24t25.5 -65v-414h-32v410q0 29 -18.5 46.5t-44.5 17.5q-45 0 -75 -29t-30 -77zM52 584q0 31 19 48.5t48 17.5q30 0 53 -22.5t43 -22.5q17 0 29 11t12 29h26q0 -31 -19 -48.5t-48 -17.5t-53 22.5t-43 22.5 q-17 0 -29.5 -10.5t-12.5 -29.5h-25z" />
<glyph unicode="&#xf2;" d="M161 503q50 0 83 -31t33 -83v-279q0 -52 -33 -82.5t-83 -30.5q-49 0 -81.5 30.5t-32.5 82.5v279q0 52 32.5 83t81.5 31zM78 389v-279q0 -39 23.5 -61.5t59.5 -22.5t60.5 22.5t24.5 61.5v279q0 39 -24.5 62t-60.5 23t-59.5 -23t-23.5 -62zM206 576l-110 89l21 21l110 -89z " />
<glyph unicode="&#xf3;" d="M161 503q50 0 83 -31t33 -83v-279q0 -52 -33 -82.5t-83 -30.5q-49 0 -81.5 30.5t-32.5 82.5v279q0 52 32.5 83t81.5 31zM78 389v-279q0 -39 23.5 -61.5t59.5 -22.5t60.5 22.5t24.5 61.5v279q0 39 -24.5 62t-60.5 23t-59.5 -23t-23.5 -62zM117 576l-21 21l109 90l21 -21z " />
<glyph unicode="&#xf4;" d="M161 503q50 0 83 -31t33 -83v-279q0 -52 -33 -82.5t-83 -30.5q-49 0 -81.5 30.5t-32.5 82.5v279q0 52 32.5 83t81.5 31zM78 389v-279q0 -39 23.5 -61.5t59.5 -22.5t60.5 22.5t24.5 61.5v279q0 39 -24.5 62t-60.5 23t-59.5 -23t-23.5 -62zM82 576l-20 20l100 77l100 -77 l-20 -20l-80 61z" />
<glyph unicode="&#xf5;" d="M161 503q50 0 83 -31t33 -83v-279q0 -52 -33 -82.5t-83 -30.5q-49 0 -81.5 30.5t-32.5 82.5v279q0 52 32.5 83t81.5 31zM78 389v-279q0 -39 23.5 -61.5t59.5 -22.5t60.5 22.5t24.5 61.5v279q0 39 -24.5 62t-60.5 23t-59.5 -23t-23.5 -62zM47 584q0 31 19 48.5t48 17.5 q30 0 53 -22.5t43 -22.5q17 0 29 11t12 29h26q0 -31 -19 -48.5t-48 -17.5t-53 22.5t-43 22.5q-17 0 -29.5 -10.5t-12.5 -29.5h-25z" />
<glyph unicode="&#xf6;" d="M161 503q50 0 83 -31t33 -83v-279q0 -52 -33 -82.5t-83 -30.5q-49 0 -81.5 30.5t-32.5 82.5v279q0 52 32.5 83t81.5 31zM78 389v-279q0 -39 23.5 -61.5t59.5 -22.5t60.5 22.5t24.5 61.5v279q0 39 -24.5 62t-60.5 23t-59.5 -23t-23.5 -62zM79 597v81h29v-81h-29zM216 597 v81h29v-81h-29z" />
<glyph unicode="&#xf7;" horiz-adv-x="343" d="M37 257v29h269v-29h-269zM156 87v81h31v-81h-31zM156 375v81h31v-81h-31z" />
<glyph unicode="&#xf8;" d="M37 0l23 52q-13 26 -13 58v279q0 52 32.5 83t81.5 31q53 0 85 -34l14 31h27l-24 -53q14 -25 14 -58v-279q0 -52 -33 -82.5t-83 -30.5q-53 0 -85 33l-13 -30h-26zM246 389q0 11 -1 17l-155 -344q22 -36 71 -36q36 0 60.5 22.5t24.5 61.5v279zM78 389v-279q0 -11 1 -16 l153 344q-23 36 -71 36q-36 0 -59.5 -23t-23.5 -62z" />
<glyph unicode="&#xf9;" horiz-adv-x="333" d="M246 0v59q-36 -62 -111 -62q-37 0 -62.5 24t-25.5 65v414h31v-410q0 -29 18.5 -46.5t44.5 -17.5q45 0 75 29t30 77v368h31v-500h-31zM211 576l-110 89l21 21l110 -89z" />
<glyph unicode="&#xfa;" horiz-adv-x="333" d="M246 0v59q-36 -62 -111 -62q-37 0 -62.5 24t-25.5 65v414h31v-410q0 -29 18.5 -46.5t44.5 -17.5q45 0 75 29t30 77v368h31v-500h-31zM122 576l-21 21l109 90l21 -21z" />
<glyph unicode="&#xfb;" horiz-adv-x="333" d="M246 0v59q-36 -62 -111 -62q-37 0 -62.5 24t-25.5 65v414h31v-410q0 -29 18.5 -46.5t44.5 -17.5q45 0 75 29t30 77v368h31v-500h-31zM86 576l-20 20l100 77l100 -77l-20 -20l-80 61z" />
<glyph unicode="&#xfc;" horiz-adv-x="333" d="M246 0v59q-36 -62 -111 -62q-37 0 -62.5 24t-25.5 65v414h31v-410q0 -29 18.5 -46.5t44.5 -17.5q45 0 75 29t30 77v368h31v-500h-31zM83 597v81h29v-81h-29zM220 597v81h29v-81h-29z" />
<glyph unicode="&#xfd;" horiz-adv-x="333" d="M47 -86h31v-28q0 -39 24 -62t60 -23t60 23t24 62v173q-36 -62 -111 -62q-37 0 -62.5 24t-25.5 65v414h31v-410q0 -29 18.5 -46.5t44.5 -17.5q45 0 75 29t30 77v368h31v-614q0 -53 -32.5 -83.5t-82.5 -30.5q-49 0 -82 31t-33 83v28zM122 576l-21 21l109 90l21 -21z" />
<glyph unicode="&#xfe;" horiz-adv-x="333" d="M56 -200v925h31v-284q37 62 112 62q37 0 62.5 -24t25.5 -65v-304q0 -52 -32.5 -82.5t-80.5 -30.5q-49 0 -87 21v-218h-31zM87 51q33 -25 84 -25q36 0 60 22.5t24 61.5v300q0 29 -18.5 46.5t-44.5 17.5q-45 0 -75 -29t-30 -77v-317z" />
<glyph unicode="&#xff;" horiz-adv-x="333" d="M47 -86h31v-28q0 -39 24 -62t60 -23t60 23t24 62v173q-36 -62 -111 -62q-37 0 -62.5 24t-25.5 65v414h31v-410q0 -29 18.5 -46.5t44.5 -17.5q45 0 75 29t30 77v368h31v-614q0 -53 -32.5 -83.5t-82.5 -30.5q-49 0 -82 31t-33 83v28zM83 597v81h29v-81h-29zM220 597v81h29 v-81h-29z" />
<glyph unicode="&#x152;" horiz-adv-x="464" d="M232 0v17q-29 -20 -66 -20q-48 0 -79.5 30.5t-31.5 82.5v479q0 52 32 83t79 31q37 0 66 -20v17h185v-29h-154v-297h134v-29h-134v-316h154v-29h-185zM170 26q38 0 62 24v598q-24 26 -62 26q-36 0 -59.5 -23t-23.5 -62v-479q0 -39 23.5 -61.5t59.5 -22.5z" />
<glyph unicode="&#x153;" horiz-adv-x="505" d="M477 241h-200v-131q0 -39 24 -61.5t60 -22.5t60 22.5t24 61.5v43h32v-43q0 -52 -33.5 -82.5t-82.5 -30.5q-74 0 -100 60q-12 -29 -39 -44.5t-61 -15.5q-49 0 -81.5 30.5t-32.5 82.5v279q0 52 32.5 83t81.5 31q34 0 61 -16t39 -45q27 61 100 61q49 0 82.5 -31t33.5 -83 v-148zM78 389v-279q0 -39 23.5 -61.5t59.5 -22.5t60.5 22.5t24.5 61.5v279q0 39 -24.5 62t-60.5 23t-59.5 -23t-23.5 -62zM277 389v-119h168v119q0 42 -23.5 63.5t-60.5 21.5t-60.5 -21.5t-23.5 -63.5z" />
<glyph unicode="&#x178;" horiz-adv-x="315" d="M141 0v250l-120 450h33l102 -392h2l103 392h33l-121 -450v-250h-32zM74 797v81h29v-81h-29zM211 797v81h29v-81h-29z" />
<glyph unicode="&#x2c6;" horiz-adv-x="307" d="M74 576l-20 20l100 77l100 -77l-20 -20l-80 61z" />
<glyph unicode="&#x2dc;" d="M47 584q0 31 19 48.5t48 17.5q30 0 53 -22.5t43 -22.5q17 0 29 11t12 29h26q0 -31 -19 -48.5t-48 -17.5t-53 22.5t-43 22.5q-17 0 -29.5 -10.5t-12.5 -29.5h-25z" />
<glyph unicode="&#x2000;" horiz-adv-x="452" />
<glyph unicode="&#x2001;" horiz-adv-x="905" />
<glyph unicode="&#x2002;" horiz-adv-x="452" />
<glyph unicode="&#x2003;" horiz-adv-x="905" />
<glyph unicode="&#x2004;" horiz-adv-x="301" />
<glyph unicode="&#x2005;" horiz-adv-x="226" />
<glyph unicode="&#x2006;" horiz-adv-x="150" />
<glyph unicode="&#x2007;" horiz-adv-x="150" />
<glyph unicode="&#x2008;" horiz-adv-x="113" />
<glyph unicode="&#x2009;" horiz-adv-x="181" />
<glyph unicode="&#x200a;" horiz-adv-x="50" />
<glyph unicode="&#x2010;" horiz-adv-x="219" d="M37 257v29h145v-29h-145z" />
<glyph unicode="&#x2011;" horiz-adv-x="219" d="M37 257v29h145v-29h-145z" />
<glyph unicode="&#x2012;" horiz-adv-x="219" d="M37 257v29h145v-29h-145z" />
<glyph unicode="&#x2013;" horiz-adv-x="343" d="M37 257v29h269v-29h-269z" />
<glyph unicode="&#x2014;" horiz-adv-x="542" d="M37 257v29h468v-29h-468z" />
<glyph unicode="&#x2018;" horiz-adv-x="142" d="M87 725h29q-30 -65 -30 -121v-80h-31v80q0 25 8 55t16 48z" />
<glyph unicode="&#x2019;" horiz-adv-x="142" d="M55 524h-29q29 65 29 120v81h31v-81q0 -24 -8 -54t-16 -48z" />
<glyph unicode="&#x201a;" horiz-adv-x="142" d="M55 -121h-29q29 65 29 121v81h31v-81q0 -25 -8 -55t-16 -48z" />
<glyph unicode="&#x201c;" horiz-adv-x="225" d="M87 725h29q-30 -65 -30 -121v-80h-31v80q0 25 8 55t16 48zM180 725h28q-29 -65 -29 -121v-80h-31v80q0 25 8 55t16 48z" />
<glyph unicode="&#x201d;" horiz-adv-x="225" d="M55 524h-29q29 65 29 120v81h31v-81q0 -24 -8 -54t-16 -48zM147 524h-29q30 65 30 120v81h31v-81q0 -24 -8 -54t-16 -48z" />
<glyph unicode="&#x201e;" horiz-adv-x="225" d="M55 -121h-29q29 65 29 121v81h31v-81q0 -25 -8 -55t-16 -48zM147 -121h-29q30 65 30 121v81h31v-81q0 -25 -8 -55t-16 -48z" />
<glyph unicode="&#x2022;" horiz-adv-x="264" d="M47 218v164h170v-164h-170z" />
<glyph unicode="&#x2026;" horiz-adv-x="353" d="M55 0v81h31v-81h-31zM161 0v81h31v-81h-31zM267 0v81h31v-81h-31z" />
<glyph unicode="&#x202f;" horiz-adv-x="181" />
<glyph unicode="&#x2039;" horiz-adv-x="180" d="M152 425l-81 -175l81 -175h-34l-81 175l81 175h34z" />
<glyph unicode="&#x203a;" horiz-adv-x="180" d="M28 75l81 175l-81 175h35l80 -175l-80 -175h-35z" />
<glyph unicode="&#x205f;" horiz-adv-x="226" />
<glyph unicode="&#x20ac;" horiz-adv-x="344" d="M28 397v29h47v167q0 51 31.5 80.5t79.5 29.5t79.5 -29.5t31.5 -80.5v-93h-31v93q0 37 -23 59t-57 22t-56.5 -22t-22.5 -59v-167h190v-29h-190v-85h190v-28h-190v-178q0 -37 22.5 -58.5t56.5 -21.5t57 21.5t23 58.5v94h31v-94q0 -51 -31.5 -80t-79.5 -29t-79.5 29 t-31.5 80v178h-47v28h47v85h-47z" />
<glyph unicode="&#x2122;" horiz-adv-x="336" d="M20 690v20h123v-20h-49v-240h-25v240h-49zM167 450v260h37l52 -228h1l52 228h38v-260h-24v229h-1l-51 -229h-29l-51 229h-1v-229h-23z" />
<glyph unicode="&#x25fc;" horiz-adv-x="500" d="M0 500h500v-500h-500v500z" />
</font>
</defs>
</svg>
