<?xml version="1.0" standalone="no"?>
<!DOCTYPE svg PUBLIC "-//W3C//DTD SVG 1.1//EN" "http://www.w3.org/Graphics/SVG/1.1/DTD/svg11.dtd" >
<svg xmlns="http://www.w3.org/2000/svg">
<metadata></metadata>
<defs>
<font id="ristretto_prothin" horiz-adv-x="325" >
<font-face units-per-em="1000" ascent="750" descent="-250" />
<missing-glyph horiz-adv-x="140" />
<glyph horiz-adv-x="0" />
<glyph horiz-adv-x="333" />
<glyph unicode=" "  horiz-adv-x="140" />
<glyph unicode="&#x09;" horiz-adv-x="140" />
<glyph unicode="&#xa0;" horiz-adv-x="140" />
<glyph unicode="!" horiz-adv-x="140" d="M60 175v525h20v-525h-20zM60 0v75h20v-75h-20z" />
<glyph unicode="&#x22;" horiz-adv-x="240" d="M60 550v175h20v-175h-20zM160 550v175h20v-175h-20z" />
<glyph unicode="#" horiz-adv-x="365" d="M100 0v150h-50v20h50v360h-50v20h50v150h20v-150h135v150h20v-150h50v-20h-50v-360h50v-20h-50v-150h-20v150h-135v-150h-20zM120 170h135v360h-135v-360z" />
<glyph unicode="$" d="M152 -100v99q-44 2 -73 32t-29 79v90h20v-90q0 -42 26 -67t66 -25t66.5 25t26.5 67v110q0 39 -21 62.5t-50.5 34.5t-59.5 22.5t-51 38.5t-21 72v92q0 49 28 77.5t72 31.5v99h20v-99q44 -3 72.5 -32t28.5 -77v-92h-20v92q0 41 -26 65.5t-65 24.5t-64.5 -24t-25.5 -66v-92 q0 -39 21 -62.5t51 -34.5t59.5 -22.5t50.5 -38.5t21 -72v-110q0 -49 -29.5 -79t-73.5 -32v-99h-20z" />
<glyph unicode="%" horiz-adv-x="487" d="M80 0l305 700h22l-305 -700h-22zM60 479v140q0 39 23 61t59 22q35 0 59 -22.5t24 -60.5v-140q0 -38 -24 -59.5t-59 -21.5q-36 0 -59 21.5t-23 59.5zM80 619v-140q0 -28 17.5 -44.5t44.5 -16.5q26 0 44.5 16.5t18.5 44.5v140q0 28 -18.5 45.5t-44.5 17.5q-27 0 -44.5 -17 t-17.5 -46zM262 79v140q0 39 23 61t59 22q35 0 59 -22.5t24 -60.5v-140q0 -38 -24 -59.5t-59 -21.5q-36 0 -59 21.5t-23 59.5zM282 219v-140q0 -28 17.5 -44.5t44.5 -16.5q26 0 44.5 16.5t18.5 44.5v140q0 28 -18.5 45.5t-44.5 17.5q-27 0 -44.5 -17t-17.5 -46z" />
<glyph unicode="&#x26;" d="M162 353h93v47h20v-290q0 -52 -32.5 -82t-80.5 -30t-80 30t-32 82v129q0 77 64 104q-64 25 -64 103v118q0 52 32 82.5t80 30.5t80.5 -30.5t32.5 -82.5v-64h-20v64q0 42 -26.5 67.5t-66.5 25.5q-39 0 -65.5 -25.5t-26.5 -67.5v-119q0 -42 26 -67t66 -25zM162 333 q-39 0 -65.5 -25.5t-26.5 -67.5v-130q0 -42 26 -67t66 -25t66.5 25t26.5 67v223h-93z" />
<glyph unicode="'" horiz-adv-x="140" d="M60 550v175h20v-175h-20z" />
<glyph unicode="(" horiz-adv-x="202" d="M162 732q-39 0 -65.5 -25.5t-26.5 -67.5v-629q0 -42 26 -67t66 -25h10v-20h-10q-48 0 -80 30t-32 82v629q0 52 32 82.5t80 30.5h10v-20h-10z" />
<glyph unicode=")" horiz-adv-x="202" d="M40 -82q39 0 65.5 25.5t26.5 67.5v629q0 42 -26 67t-66 25h-10v20h10q48 0 80 -30t32 -82v-629q0 -52 -32 -82.5t-80 -30.5h-10v20h10z" />
<glyph unicode="*" horiz-adv-x="345" d="M40 572v20h114l-57 100l17 10l58 -101l57 101l18 -10l-58 -100h116v-20h-116l57 -99l-17 -10l-57 99l-57 -99l-17 9l57 100h-115z" />
<glyph unicode="+" horiz-adv-x="345" d="M40 300v20h122v128h20v-128h123v-20h-123v-127h-20v127h-122z" />
<glyph unicode="," horiz-adv-x="140" d="M50 -120h-20q30 65 30 120v75h20v-75q0 -24 -7.5 -54t-14.5 -48z" />
<glyph unicode="-" horiz-adv-x="220" d="M40 260v20h140v-20h-140z" />
<glyph unicode="." horiz-adv-x="140" d="M60 0v75h20v-75h-20z" />
<glyph unicode="/" horiz-adv-x="305" d="M40 -100l205 850h20l-205 -850h-20z" />
<glyph unicode="0" d="M162 677q48 0 80.5 -30.5t32.5 -82.5v-454q0 -52 -32.5 -82t-80.5 -30t-80 30t-32 82v454q0 52 32 82.5t80 30.5zM70 564v-454q0 -42 26 -67t66 -25t66.5 25t26.5 67v454q0 42 -26.5 67.5t-66.5 25.5q-39 0 -65.5 -25.5t-26.5 -67.5z" />
<glyph unicode="1" horiz-adv-x="211" d="M30 592v23l101 60h20v-675h-20v652z" />
<glyph unicode="2" horiz-adv-x="321" d="M52 0v110q0 38 14.5 69t37 50.5t48 40.5t48 39.5t37 47.5t14.5 63v144q0 42 -26.5 67.5t-66.5 25.5q-37 0 -62.5 -23.5t-25.5 -63.5v-70h-20v70q0 50 31 78.5t77 28.5q48 0 80.5 -30.5t32.5 -82.5v-144q0 -45 -20.5 -79.5t-49.5 -57.5t-58.5 -45.5t-50 -54.5t-20.5 -73 v-90h199v-20h-219z" />
<glyph unicode="3" horiz-adv-x="321" d="M158 18q40 0 66.5 25.5t26.5 67.5v142q0 42 -26.5 67t-66.5 25h-43v20h43q40 0 66.5 25t26.5 67v107q0 42 -26.5 67.5t-66.5 25.5q-37 0 -62.5 -23.5t-25.5 -63.5v-70h-20v70q0 50 31 78.5t77 28.5q48 0 80.5 -30.5t32.5 -82.5v-102q0 -41 -21 -69t-55 -38q34 -10 55 -38 t21 -69v-137q0 -52 -32.5 -82.5t-80.5 -30.5q-46 0 -77 29t-31 79v69h20v-69q0 -40 25.5 -64t62.5 -24z" />
<glyph unicode="4" horiz-adv-x="315" d="M30 140v20l193 515h32v-515h30v-20h-30v-140h-20v140h-205zM52 160h183v484h-2z" />
<glyph unicode="5" d="M70 311h-20v364h220v-20h-200v-293q36 65 115 65q38 0 64 -24.5t26 -65.5v-227q0 -52 -32.5 -82t-80.5 -30t-80 30t-32 82v65h20v-65q0 -42 26 -67t66 -25t66.5 25t26.5 67v227q0 32 -20 51t-50 19q-46 0 -80.5 -31t-34.5 -65z" />
<glyph unicode="6" d="M163 657q-40 0 -66.5 -25.5t-26.5 -67.5v-227q36 65 115 65q38 0 64 -24.5t26 -65.5v-202q0 -52 -32.5 -82t-80.5 -30t-80 30t-32 82v454q0 52 32.5 82.5t80.5 30.5q46 0 77 -29t31 -79v-69h-20v69q0 40 -25.5 64t-62.5 24zM70 266v-156q0 -42 26 -67t66 -25t66.5 25 t26.5 67v202q0 32 -20 51t-50 19q-49 0 -82 -31.5t-33 -84.5z" />
<glyph unicode="7" horiz-adv-x="300" d="M40 655v20h220v-20l-140 -655h-21l140 655h-199z" />
<glyph unicode="8" d="M162 677q48 0 80.5 -30.5t32.5 -82.5v-118q0 -77 -65 -103q65 -27 65 -104v-129q0 -52 -32.5 -82t-80.5 -30t-80 30t-32 82v129q0 77 64 104q-64 25 -64 103v118q0 52 32 82.5t80 30.5zM70 564v-119q0 -42 26 -67t66 -25t66.5 25t26.5 67v119q0 42 -26.5 67.5t-66.5 25.5 q-39 0 -65.5 -25.5t-26.5 -67.5zM70 240v-130q0 -42 26 -67t66 -25t66.5 25t26.5 67v130q0 42 -26.5 67.5t-66.5 25.5q-39 0 -65.5 -25.5t-26.5 -67.5z" />
<glyph unicode="9" d="M160 18q40 0 67.5 26t27.5 69v224q-36 -65 -115 -65q-38 0 -64 24.5t-26 65.5v203q0 52 32.5 82t80.5 30t80 -30t32 -82v-452q0 -53 -33 -84t-82 -31q-47 0 -78.5 29.5t-31.5 80.5v67h20v-67q0 -41 26 -65.5t64 -24.5zM255 408v157q0 42 -26 67t-66 25t-66.5 -25 t-26.5 -67v-203q0 -32 20 -51t50 -19q49 0 82 31.5t33 84.5z" />
<glyph unicode=":" horiz-adv-x="140" d="M60 0v75h20v-75h-20zM60 425v75h20v-75h-20z" />
<glyph unicode=";" horiz-adv-x="140" d="M50 -120h-20q30 65 30 120v75h20v-75q0 -24 -7.5 -54t-14.5 -48zM60 425v75h20v-75h-20z" />
<glyph unicode="&#x3c;" horiz-adv-x="420" d="M60 314l300 119v-21l-274 -111v-2l274 -112v-21l-300 119v29z" />
<glyph unicode="=" horiz-adv-x="345" d="M40 365v20h265v-20h-265zM40 215v20h265v-20h-265z" />
<glyph unicode="&#x3e;" horiz-adv-x="420" d="M360 286l-300 -119v21l274 111v2l-274 112v21l300 -119v-29z" />
<glyph unicode="?" horiz-adv-x="321" d="M147 175v85q0 42 10.5 69t26 40.5t31 26.5t26 37t10.5 62v94q0 42 -26.5 67.5t-66.5 25.5q-37 0 -62.5 -23.5t-25.5 -63.5v-70h-20v70q0 50 31 78.5t77 28.5q48 0 80.5 -30.5t32.5 -82.5v-94q0 -42 -10.5 -69t-26 -40.5t-31 -26.5t-26 -37t-10.5 -62v-85h-20zM147 0v75 h20v-75h-20z" />
<glyph unicode="@" horiz-adv-x="755" d="M376 -182v-20q-136 0 -226 84.5t-90 231.5v269q0 148 90 233.5t226 85.5t227.5 -86t91.5 -233v-383h-225v63q-36 -65 -115 -65q-38 0 -64 24.5t-26 65.5v302q0 52 32.5 82t80.5 30q33 0 61 -9t39 -19l12 -9v-445h185v363q0 136 -86 217.5t-213 81.5t-211.5 -81.5 t-84.5 -217.5v-269q0 -136 84.5 -216t211.5 -80zM470 455q-36 27 -92 27q-40 0 -66.5 -25t-26.5 -67v-302q0 -32 20 -51t50 -19q49 0 82 31.5t33 84.5v321z" />
<glyph unicode="A" horiz-adv-x="315" d="M24 0l119 700h29l119 -700h-20l-38 225h-151l-38 -225h-20zM85 245h145l-71 423h-2z" />
<glyph unicode="B" d="M60 0v700h102q48 0 80.5 -30.5t32.5 -82.5v-115q0 -41 -21 -69t-55 -38q34 -10 55 -38t21 -69v-145q0 -52 -32.5 -82.5t-80.5 -30.5h-102zM162 355h-82v-335h82q40 0 66.5 25.5t26.5 67.5v150q0 42 -26.5 67t-66.5 25zM80 375h82q40 0 66.5 25t26.5 67v120 q0 42 -26.5 67.5t-66.5 25.5h-82v-305z" />
<glyph unicode="C" horiz-adv-x="315" d="M70 594v-489q0 -40 25 -63.5t62 -23.5t62.5 23.5t25.5 63.5v95h20v-95q0 -50 -31 -78.5t-77 -28.5t-76.5 28.5t-30.5 78.5v489q0 50 30.5 79t76.5 29t77 -29t31 -79v-94h-20v94q0 40 -25.5 64t-62.5 24t-62 -24t-25 -64z" />
<glyph unicode="D" horiz-adv-x="330" d="M60 0v700h107q48 0 80.5 -30.5t32.5 -82.5v-475q0 -52 -32.5 -82t-80.5 -30h-107zM80 20h87q40 0 66.5 25t26.5 67v475q0 42 -26.5 67.5t-66.5 25.5h-87v-660z" />
<glyph unicode="E" horiz-adv-x="315" d="M60 0v700h205v-20h-185v-310h165v-20h-165v-330h185v-20h-205z" />
<glyph unicode="F" horiz-adv-x="315" d="M60 0v700h205v-20h-185v-310h165v-20h-165v-350h-20z" />
<glyph unicode="G" horiz-adv-x="315" d="M157 340v20h108v-255q0 -50 -31 -78.5t-77 -28.5t-76.5 28.5t-30.5 78.5v489q0 50 30.5 79t76.5 29t77 -29t31 -79v-94h-20v94q0 40 -25.5 64t-62.5 24t-62 -24t-25 -64v-489q0 -40 25 -63.5t62 -23.5t62.5 23.5t25.5 63.5v235h-88z" />
<glyph unicode="H" horiz-adv-x="345" d="M60 0v700h20v-330h185v330h20v-700h-20v350h-185v-350h-20z" />
<glyph unicode="I" horiz-adv-x="140" d="M60 0v700h20v-700h-20z" />
<glyph unicode="J" horiz-adv-x="315" d="M50 200h20v-94q0 -40 25.5 -64t62.5 -24t62 24t25 64v594h20v-594q0 -50 -30.5 -79t-76.5 -29t-77 29t-31 79v94z" />
<glyph unicode="K" horiz-adv-x="320" d="M60 0v700h20v-330h54l133 330h22l-137 -340l141 -360h-22l-137 350h-54v-350h-20z" />
<glyph unicode="L" horiz-adv-x="290" d="M60 0v700h20v-680h180v-20h-200z" />
<glyph unicode="M" horiz-adv-x="430" d="M60 0v700h32l121 -668h2l123 668h32v-700h-20v651h-2l-119 -651h-29l-118 651h-2v-651h-20z" />
<glyph unicode="N" horiz-adv-x="345" d="M60 0v700h32l171 -663h2v663h20v-700h-32l-171 663h-2v-663h-20z" />
<glyph unicode="O" d="M162 702q48 0 80.5 -30.5t32.5 -82.5v-479q0 -52 -32.5 -82t-80.5 -30t-80 30t-32 82v479q0 52 32 82.5t80 30.5zM70 589v-479q0 -42 26 -67t66 -25t66.5 25t26.5 67v479q0 42 -26.5 67.5t-66.5 25.5q-39 0 -65.5 -25.5t-26.5 -67.5z" />
<glyph unicode="P" d="M60 0v700h102q48 0 80.5 -30.5t32.5 -82.5v-175q0 -52 -32.5 -82t-80.5 -30h-82v-300h-20zM80 320h82q40 0 66.5 25t26.5 67v175q0 42 -26.5 67.5t-66.5 25.5h-82v-360z" />
<glyph unicode="Q" d="M153 -15v14q-45 3 -74 32t-29 79v479q0 52 32 82.5t80 30.5t80.5 -30.5t32.5 -82.5v-479q0 -49 -28.5 -78.5t-73.5 -32.5v-14q0 -42 26.5 -67t66.5 -25h9v-20h-9q-49 0 -81 30t-32 82zM70 589v-479q0 -42 26 -67t66 -25t66.5 25t26.5 67v479q0 42 -26.5 67.5t-66.5 25.5 q-39 0 -65.5 -25.5t-26.5 -67.5z" />
<glyph unicode="R" d="M273 0l-112 320h-81v-320h-20v700h102q48 0 80.5 -30.5t32.5 -82.5v-155q0 -46 -26 -75.5t-67 -35.5l113 -321h-22zM80 340h82q40 0 66.5 25t26.5 67v155q0 42 -26.5 67.5t-66.5 25.5h-82v-340z" />
<glyph unicode="S" d="M50 200h20v-90q0 -42 26 -67t66 -25t66.5 25t26.5 67v135q0 39 -21 62.5t-50.5 34.5t-59.5 22.5t-51 38.5t-21 72v117q0 52 31 81t79 29t79.5 -29.5t31.5 -80.5v-92h-20v92q0 41 -26 65.5t-65 24.5t-64.5 -24t-25.5 -66v-117q0 -39 21 -62.5t51 -34.5t59.5 -22.5 t50.5 -38.5t21 -72v-135q0 -52 -32.5 -82t-80.5 -30t-80 30t-32 82v90z" />
<glyph unicode="T" horiz-adv-x="280" d="M25 680v20h230v-20h-105v-680h-20v680h-105z" />
<glyph unicode="U" d="M50 700h20v-590q0 -42 26 -67t66 -25t66.5 25t26.5 67v590h20v-590q0 -52 -32.5 -82t-80.5 -30t-80 30t-32 82v590z" />
<glyph unicode="V" horiz-adv-x="315" d="M143 0l-119 700h20l112 -668h2l113 668h20l-119 -700h-29z" />
<glyph unicode="W" horiz-adv-x="530" d="M140 0l-116 700h21l108 -661h2l94 661h30l94 -661h2l108 661h21l-116 -700h-29l-94 661h-2l-94 -661h-29z" />
<glyph unicode="X" horiz-adv-x="315" d="M22 0l122 360l-118 340h21l110 -318h2l109 318h21l-117 -340l121 -360h-21l-113 338h-2l-114 -338h-21z" />
<glyph unicode="Y" horiz-adv-x="315" d="M147 0v258l-123 442h21l111 -400h2l112 400h21l-124 -442v-258h-20z" />
<glyph unicode="Z" horiz-adv-x="320" d="M50 0v20l199 660h-199v20h220v-20l-199 -660h199v-20h-220z" />
<glyph unicode="[" horiz-adv-x="202" d="M50 -102v852h122v-20h-102v-810h102v-22h-122z" />
<glyph unicode="\" horiz-adv-x="305" d="M245 -100l-205 850h20l205 -850h-20z" />
<glyph unicode="]" horiz-adv-x="202" d="M30 -102v20h102v810h-102v22h122v-852h-122z" />
<glyph unicode="^" horiz-adv-x="365" d="M54 571l-14 14l143 119l143 -119l-14 -14l-129 107z" />
<glyph unicode="_" d="M0 -45v20h325v-20h-325z" />
<glyph unicode="`" d="M207 581l-104 83l15 15l104 -83z" />
<glyph unicode="a" d="M255 0v63q-17 -30 -50.5 -47.5t-69.5 -17.5t-60.5 23t-24.5 62v79q0 97 113 112l92 12v104q0 42 -26 67t-66 25t-66.5 -25t-26.5 -67v-40h-20v40q0 52 32.5 82t80.5 30t80 -30t32 -82v-390h-20zM255 267l-92 -12q-41 -6 -67 -29t-26 -64v-79q0 -30 19 -47.5t46 -17.5 q47 0 83.5 32t36.5 84v133z" />
<glyph unicode="b" horiz-adv-x="335" d="M60 35v690h20v-288q36 65 115 65q38 0 64 -24.5t26 -65.5v-302q0 -52 -32.5 -82t-80.5 -30q-33 0 -61 9t-39 19zM80 45q36 -27 92 -27q40 0 66.5 25t26.5 67v302q0 32 -20 51t-50 19q-49 0 -82 -31.5t-33 -84.5v-321z" />
<glyph unicode="c" horiz-adv-x="315" d="M70 394v-289q0 -40 25 -63.5t62 -23.5t62.5 23.5t25.5 63.5v45h20v-45q0 -50 -31 -78.5t-77 -28.5t-76.5 28.5t-30.5 78.5v289q0 50 30.5 79t76.5 29t77 -29t31 -79v-44h-20v44q0 40 -25.5 64t-62.5 24t-62 -24t-25 -64z" />
<glyph unicode="d" horiz-adv-x="335" d="M255 0v63q-36 -65 -115 -65q-38 0 -64 24.5t-26 65.5v302q0 52 32.5 82t80.5 30q54 0 92 -23v246h20v-725h-20zM255 455q-36 27 -92 27q-40 0 -66.5 -25t-26.5 -67v-302q0 -32 20 -51t50 -19q49 0 82 31.5t33 84.5v321z" />
<glyph unicode="e" d="M275 245h-205v-135q0 -42 26 -67t66 -25t66.5 25t26.5 67v40h20v-40q0 -52 -32.5 -82t-80.5 -30t-80 30t-32 82v279q0 52 32 82.5t80 30.5t80.5 -30.5t32.5 -82.5v-144zM70 389v-124h185v124q0 46 -26 69.5t-67 23.5t-66.5 -23.5t-25.5 -69.5z" />
<glyph unicode="f" horiz-adv-x="235" d="M60 0v625q0 48 29 75t73 27q25 0 48 -5v-22q-25 7 -48 7q-35 0 -58.5 -22t-23.5 -60v-125h130v-20h-130v-480h-20z" />
<glyph unicode="g" d="M50 -89h20v-25q0 -42 26.5 -67.5t66.5 -25.5q39 0 65.5 25.5t26.5 67.5v177q-36 -65 -115 -65q-38 0 -64 24.5t-26 65.5v302q0 52 32.5 82t80.5 30q33 0 61 -9t40 -19l11 -9v-579q0 -52 -32 -82.5t-80 -30.5t-80.5 30.5t-32.5 82.5v25zM255 455q-36 27 -92 27 q-40 0 -66.5 -25t-26.5 -67v-302q0 -32 20 -51t50 -19q49 0 82 31.5t33 84.5v321z" />
<glyph unicode="h" horiz-adv-x="335" d="M60 0v725h20v-288q36 65 115 65q38 0 64 -24.5t26 -65.5v-412h-20v412q0 32 -20 51t-50 19q-49 0 -82 -31.5t-33 -84.5v-366h-20z" />
<glyph unicode="i" horiz-adv-x="140" d="M60 0v500h20v-500h-20zM60 625v75h20v-75h-20z" />
<glyph unicode="j" horiz-adv-x="140" d="M-50 -221v21q19 -7 42 -7q29 0 48.5 18t19.5 49v640h20v-640q0 -41 -25 -64t-63 -23q-24 0 -42 6zM60 625v75h20v-75h-20z" />
<glyph unicode="k" horiz-adv-x="320" d="M60 0v725h20v-462h71l117 237h23l-122 -247l125 -253h-23l-120 243h-71v-243h-20z" />
<glyph unicode="l" horiz-adv-x="140" d="M60 0v725h20v-725h-20z" />
<glyph unicode="m" horiz-adv-x="540" d="M80 366v-366h-20v500h20v-63q36 65 115 65q32 0 56.5 -18.5t31.5 -50.5q36 69 117 69q38 0 64 -24.5t26 -65.5v-412h-20v412q0 32 -20 51t-50 19q-48 0 -81.5 -33t-33.5 -83v-366h-20v412q0 32 -20 51t-50 19q-49 0 -82 -31.5t-33 -84.5z" />
<glyph unicode="n" horiz-adv-x="335" d="M80 366v-366h-20v500h20v-63q36 65 115 65q38 0 64 -24.5t26 -65.5v-412h-20v412q0 32 -20 51t-50 19q-49 0 -82 -31.5t-33 -84.5z" />
<glyph unicode="o" d="M162 502q48 0 80.5 -30.5t32.5 -82.5v-279q0 -52 -32.5 -82t-80.5 -30t-80 30t-32 82v279q0 52 32 82.5t80 30.5zM70 389v-279q0 -42 26 -67t66 -25t66.5 25t26.5 67v279q0 42 -26.5 67.5t-66.5 25.5q-39 0 -65.5 -25.5t-26.5 -67.5z" />
<glyph unicode="p" horiz-adv-x="335" d="M60 -200v700h20v-63q36 65 115 65q38 0 64 -24.5t26 -65.5v-302q0 -52 -32.5 -82t-80.5 -30q-52 0 -92 22v-220h-20zM80 45q36 -27 92 -27q40 0 66.5 25t26.5 67v302q0 32 -20 51t-50 19q-49 0 -82 -31.5t-33 -84.5v-321z" />
<glyph unicode="q" d="M255 -200v263q-36 -65 -115 -65q-38 0 -64 24.5t-26 65.5v302q0 52 32.5 82t80.5 30q33 0 61 -9t40 -19l11 -9v-665h-20zM255 455q-36 27 -92 27q-40 0 -66.5 -25t-26.5 -67v-302q0 -32 20 -51t50 -19q49 0 82 31.5t33 84.5v321z" />
<glyph unicode="r" horiz-adv-x="280" d="M60 0v500h20v-91q28 93 105 93q26 0 43 -16t17 -44v-92h-20v92q0 18 -11.5 29t-28.5 11q-49 0 -77 -48.5t-28 -118.5v-315h-20z" />
<glyph unicode="s" horiz-adv-x="315" d="M50 150h20v-45q0 -40 25 -63.5t62 -23.5t62.5 23.5t25.5 63.5v53q0 39 -20 59.5t-48.5 27.5t-56.5 15t-48 32.5t-20 69.5v35q0 49 30 77t75 28t75.5 -28t30.5 -77v-47h-20v47q0 39 -24.5 62t-61.5 23t-61 -23t-24 -62v-35q0 -39 20 -59.5t48 -27.5t56.5 -15t48.5 -32.5 t20 -69.5v-53q0 -50 -31 -78.5t-77 -28.5t-76.5 28.5t-30.5 78.5v45z" />
<glyph unicode="t" horiz-adv-x="240" d="M210 25v-22q-23 -5 -48 -5q-44 0 -73 27t-29 75v520h20v-120h130v-20h-130v-380q0 -38 23.5 -60t58.5 -22q24 0 48 7z" />
<glyph unicode="u" horiz-adv-x="335" d="M255 0v63q-36 -65 -115 -65q-38 0 -64 24.5t-26 65.5v412h20v-412q0 -32 20 -51t50 -19q49 0 82 31.5t33 84.5v366h20v-500h-20z" />
<glyph unicode="v" horiz-adv-x="315" d="M143 0l-119 500h21l111 -473h2l112 473h21l-119 -500h-29z" />
<glyph unicode="w" horiz-adv-x="500" d="M133 0l-109 500h21l101 -471h2l87 471h28l87 -471h2l100 471h21l-108 -500h-28l-87 471h-2l-87 -471h-28z" />
<glyph unicode="x" d="M26 0l125 253l-122 247h23l109 -223h2l110 223h23l-122 -247l125 -253h-23l-113 230h-2l-112 -230h-23z" />
<glyph unicode="y" horiz-adv-x="335" d="M50 -89h20v-25q0 -42 26.5 -67.5t66.5 -25.5q39 0 65.5 25.5t26.5 67.5v177q-36 -65 -115 -65q-38 0 -64 24.5t-26 65.5v412h20v-412q0 -32 20 -51t50 -19q49 0 82 31.5t33 84.5v366h20v-614q0 -52 -32 -82.5t-80 -30.5t-80.5 30.5t-32.5 82.5v25z" />
<glyph unicode="z" horiz-adv-x="320" d="M50 0v20l198 460h-198v20h220v-20l-198 -460h198v-20h-220z" />
<glyph unicode="{" horiz-adv-x="284" d="M254 -102h-10q-48 0 -80 30t-32 82v212q0 42 -26 67t-66 25h-10v22h10q39 0 65.5 25.5t26.5 67.5v210q0 52 32 82.5t80 30.5h10v-20h-10q-39 0 -65.5 -25.5t-26.5 -67.5v-210q0 -77 -65 -104q65 -27 65 -103v-212q0 -42 26 -67t66 -25h10v-20z" />
<glyph unicode="|" horiz-adv-x="140" d="M60 -100v850h20v-850h-20z" />
<glyph unicode="}" horiz-adv-x="284" d="M30 -102v20h10q39 0 65.5 25.5t26.5 67.5v210q0 77 65 104q-65 27 -65 103v212q0 42 -26 67t-66 25h-10v20h10q48 0 80 -30t32 -82v-212q0 -42 26 -67t66 -25h10v-22h-10q-39 0 -65.5 -25.5t-26.5 -67.5v-210q0 -52 -32 -82.5t-80 -30.5h-10z" />
<glyph unicode="~" horiz-adv-x="391" d="M50 237q0 39 24 61t61 22q24 0 41 -10.5t25 -23.5t22.5 -23.5t34.5 -10.5q27 0 45 17t18 46h20q0 -38 -24 -60.5t-60 -22.5q-23 0 -40.5 10.5t-26.5 23.5t-23.5 23.5t-32.5 10.5q-27 0 -45.5 -17t-18.5 -46h-20z" />
<glyph unicode="&#xa1;" horiz-adv-x="140" d="M60 -200v525h20v-525h-20zM60 425v75h20v-75h-20z" />
<glyph unicode="&#xa2;" horiz-adv-x="315" d="M147 -100v99q-43 2 -70 30.5t-27 75.5v289q0 47 27 75.5t70 31.5v99h20v-99q42 -3 70 -31.5t28 -75.5v-44h-20v44q0 40 -25.5 64t-62.5 24t-62 -24t-25 -64v-289q0 -40 25 -63.5t62 -23.5t62.5 23.5t25.5 63.5v45h20v-45q0 -47 -28 -75.5t-70 -30.5v-99h-20z" />
<glyph unicode="&#xa3;" horiz-adv-x="345" d="M30 320v20h50v254q0 50 30.5 79t76.5 29t77 -29t31 -79v-94h-20v94q0 40 -25.5 64t-62.5 24t-62 -24t-25 -64v-254h195v-20h-195v-300h195v-20h-265v20h50v300h-50z" />
<glyph unicode="&#xa4;" d="M162 402q36 0 66 -19l45 92h23l-52 -105q31 -31 31 -81v-79q0 -48 -29 -79l53 -106h-23l-46 92q-28 -19 -68 -19q-39 0 -68 20l-45 -93h-23l52 106q-28 31 -28 79v79q0 50 31 81l-52 105h23l45 -92q29 19 65 19zM70 289v-79q0 -42 26 -67t66 -25t66.5 25t26.5 67v79 q0 42 -26.5 67.5t-66.5 25.5q-39 0 -65.5 -25.5t-26.5 -67.5z" />
<glyph unicode="&#xa5;" horiz-adv-x="315" d="M45 238v20h102l-123 442h21l111 -400h2l112 400h21l-124 -442h103v-20h-103v-90h103v-20h-103v-128h-20v128h-102v20h102v90h-102z" />
<glyph unicode="&#xa6;" horiz-adv-x="140" d="M60 -100v375h20v-375h-20zM60 375v375h20v-375h-20z" />
<glyph unicode="&#xa7;" d="M275 130q0 -35 -18 -63q18 -28 18 -67v-115q0 -52 -32.5 -82t-80.5 -30t-80 30t-32 82v90h20v-90q0 -42 26 -67t66 -25t66.5 25t26.5 67v115q0 39 -21 62.5t-50.5 34.5t-59.5 22.5t-51 38.5t-21 72v117q0 44 23 72q-23 28 -23 76v97q0 52 31 81t79 29t79.5 -29.5 t31.5 -80.5v-92h-20v92q0 41 -26 65.5t-65 24.5t-64.5 -24t-25.5 -66v-97q0 -39 21 -62.5t51 -34.5t59.5 -22.5t50.5 -38.5t21 -72v-135zM255 265q0 36 -18 59t-41.5 32t-55.5 22t-50 27q-18 -25 -18 -58v-117q0 -37 19.5 -60.5t44.5 -32.5t57.5 -23t50.5 -31q11 20 11 47 v135z" />
<glyph unicode="&#xa8;" horiz-adv-x="295" d="M65 600v75h20v-75h-20zM200 600v75h20v-75h-20z" />
<glyph unicode="&#xa9;" horiz-adv-x="755" d="M376 702q136 0 227.5 -76t91.5 -207v-139q0 -131 -91 -206.5t-228 -75.5q-136 0 -226 75.5t-90 206.5v139q0 131 90 207t226 76zM80 419v-139q0 -121 84.5 -191.5t211.5 -70.5q128 0 213.5 70.5t85.5 191.5v139q0 120 -86 191.5t-213 71.5t-211.5 -71.5t-84.5 -191.5z M285 419v-139q0 -42 26.5 -67t65.5 -25t66 25t27 67v17h20v-17q0 -52 -32.5 -82t-80.5 -30t-80 30t-32 82v139q0 53 32 83t80 30q49 0 81 -30t32 -83v-16h-20v16q0 42 -27 67.5t-66 25.5t-65.5 -25.5t-26.5 -67.5z" />
<glyph unicode="&#xaa;" horiz-adv-x="182" d="M130 450v28q-18 -29 -57 -29q-17 0 -29 11t-12 30v43q0 49 56 56l42 5v51q0 18 -11.5 28.5t-27.5 10.5t-27.5 -10.5t-11.5 -28.5v-22h-20v22q0 26 17 41.5t42 15.5t42 -15.5t17 -41.5v-195h-20zM130 577l-39 -5q-39 -6 -39 -39v-39q0 -13 8 -20.5t19 -7.5q20 0 35.5 13.5 t15.5 35.5v62z" />
<glyph unicode="&#xab;" horiz-adv-x="268" d="M148 425l-85 -175l85 -175h-23l-85 175l85 175h23zM238 425l-85 -175l85 -175h-23l-85 175l85 175h23z" />
<glyph unicode="&#xac;" horiz-adv-x="345" d="M40 310v20h265v-140h-20v120h-245z" />
<glyph unicode="&#xad;" horiz-adv-x="220" d="M40 260v20h140v-20h-140z" />
<glyph unicode="&#xae;" horiz-adv-x="755" d="M376 702q136 0 227.5 -76t91.5 -207v-139q0 -131 -91 -206.5t-228 -75.5q-136 0 -226 75.5t-90 206.5v139q0 131 90 207t226 76zM80 419v-139q0 -121 84.5 -191.5t211.5 -70.5q128 0 213.5 70.5t85.5 191.5v139q0 120 -86 191.5t-213 71.5t-211.5 -71.5t-84.5 -191.5z M483 170l-97 152h-91v-152h-20v362h112q47 0 75 -24.5t28 -68.5v-25q0 -80 -83 -91l98 -153h-22zM295 342h92q38 0 60.5 19t22.5 53v25q0 34 -22.5 53.5t-60.5 19.5h-92v-170z" />
<glyph unicode="&#xaf;" horiz-adv-x="140" d="M-18 615v20h175v-20h-175z" />
<glyph unicode="&#xb0;" horiz-adv-x="285" d="M60 594v25q0 39 23 61t59 22q35 0 59 -22.5t24 -60.5v-25q0 -38 -24 -59.5t-59 -21.5q-36 0 -59 21.5t-23 59.5zM80 619v-25q0 -28 17.5 -44.5t44.5 -16.5q26 0 44.5 16.5t18.5 44.5v25q0 28 -18.5 45.5t-44.5 17.5q-27 0 -44.5 -17t-17.5 -46z" />
<glyph unicode="&#xb1;" horiz-adv-x="345" d="M40 300v20h122v128h20v-128h123v-20h-123v-127h-20v127h-122zM40 113v20h265v-20h-265z" />
<glyph unicode="&#xb2;" horiz-adv-x="161" d="M29 400v54q0 23 13 41t28.5 28t28.5 26t13 35v65q0 15 -9.5 24t-23.5 9q-13 0 -22 -8.5t-9 -22.5v-32h-20v32q0 22 14.5 35t36.5 13q23 0 38 -13.5t15 -36.5v-65q0 -23 -13 -41t-28.5 -28.5t-28.5 -26t-13 -34.5v-37h83v-17h-103z" />
<glyph unicode="&#xb3;" horiz-adv-x="160" d="M80 416q13 0 22.5 9t9.5 24v65q0 15 -9.5 24t-22.5 9h-21v17h20q14 0 23.5 9t9.5 24v52q0 15 -9.5 24t-23.5 9q-13 0 -22 -8.5t-9 -22.5v-32h-20v32q0 22 14.5 35t36.5 13q23 0 38 -13.5t15 -36.5v-47q0 -36 -32 -46q32 -12 32 -47v-60q0 -23 -15 -36.5t-37 -13.5 t-36.5 13t-14.5 35v32h20v-32q0 -14 9 -22.5t22 -8.5z" />
<glyph unicode="&#xb4;" d="M118 581l-15 15l103 84l15 -15z" />
<glyph unicode="&#xb5;" horiz-adv-x="335" d="M50 -150v650h20v-412q0 -32 20 -51t50 -19q49 0 82 31.5t33 84.5v366h20v-500h-20v63q-36 -65 -115 -65q-46 0 -70 29v-177h-20z" />
<glyph unicode="&#xb6;" horiz-adv-x="425" d="M265 700v-800h-20v400h-82q-48 0 -80.5 30t-32.5 82v175q0 52 32.5 82.5t80.5 30.5h102zM365 700v-800h-20v800h20z" />
<glyph unicode="&#xb7;" horiz-adv-x="140" d="M60 225v75h20v-75h-20z" />
<glyph unicode="&#xb8;" horiz-adv-x="140" d="M60 -125v130h20v-130h-20z" />
<glyph unicode="&#xb9;" horiz-adv-x="116" d="M21 652v20l42 26h20v-298h-20v278z" />
<glyph unicode="&#xba;" horiz-adv-x="182" d="M91 702q25 0 42 -15.5t17 -41.5v-140q0 -26 -17 -41t-42 -15q-26 0 -42.5 15t-16.5 41v140q0 26 16.5 41.5t42.5 15.5zM52 645v-140q0 -18 11 -28.5t28 -10.5q16 0 27.5 10.5t11.5 28.5v140q0 17 -11.5 28t-27.5 11q-17 0 -28 -10.5t-11 -28.5z" />
<glyph unicode="&#xbb;" horiz-adv-x="268" d="M30 75l85 175l-85 175h23l85 -175l-85 -175h-23zM120 75l85 175l-85 175h23l85 -175l-85 -175h-23z" />
<glyph unicode="&#xbc;" horiz-adv-x="487" d="M332 60v17l74 221h31v-221h12v-17h-12v-60h-20v60h-85zM80 0l305 700h22l-305 -700h-22zM51 652v20l42 26h20v-298h-20v278zM351 77h66v197z" />
<glyph unicode="&#xbd;" horiz-adv-x="487" d="M80 0l305 700h22l-305 -700h-22zM51 652v20l42 26h20v-298h-20v278zM339 0v54q0 23 13 41t28.5 28t28.5 26t13 35v65q0 15 -9.5 24t-23.5 9q-13 0 -22 -8.5t-9 -22.5v-32h-20v32q0 22 14.5 35t36.5 13q23 0 38 -13.5t15 -36.5v-65q0 -23 -13 -41t-28.5 -28.5t-28.5 -26 t-13 -34.5v-37h83v-17h-103z" />
<glyph unicode="&#xbe;" horiz-adv-x="487" d="M332 60v17l74 221h31v-221h12v-17h-12v-60h-20v60h-85zM80 0l305 700h22l-305 -700h-22zM110 416q13 0 22.5 9t9.5 24v65q0 15 -9.5 24t-22.5 9h-21v17h20q14 0 23.5 9t9.5 24v52q0 15 -9.5 24t-23.5 9q-13 0 -22 -8.5t-9 -22.5v-32h-20v32q0 22 14.5 35t36.5 13 q23 0 38 -13.5t15 -36.5v-47q0 -36 -32 -46q32 -12 32 -47v-60q0 -23 -15 -36.5t-37 -13.5t-36.5 13t-14.5 35v32h20v-32q0 -14 9 -22.5t22 -8.5zM351 77h66v197z" />
<glyph unicode="&#xbf;" horiz-adv-x="321" d="M154 327h20v-85q0 -42 -10.5 -69t-26 -40.5t-31 -26.5t-26 -37t-10.5 -62v-94q0 -42 26.5 -67.5t66.5 -25.5q37 0 62.5 23.5t25.5 63.5v93h20v-93q0 -50 -31 -78.5t-77 -28.5q-48 0 -80.5 30.5t-32.5 82.5v94q0 42 10.5 69t26 40.5t31 26.5t26 37t10.5 62v85zM154 427v75 h20v-75h-20z" />
<glyph unicode="&#xc0;" horiz-adv-x="315" d="M24 0l119 700h29l119 -700h-20l-38 225h-151l-38 -225h-20zM85 245h145l-71 423h-2zM202 781l-104 83l15 15l104 -83z" />
<glyph unicode="&#xc1;" horiz-adv-x="315" d="M24 0l119 700h29l119 -700h-20l-38 225h-151l-38 -225h-20zM85 245h145l-71 423h-2zM114 781l-15 15l103 84l15 -15z" />
<glyph unicode="&#xc2;" horiz-adv-x="315" d="M24 0l119 700h29l119 -700h-20l-38 225h-151l-38 -225h-20zM85 245h145l-71 423h-2zM79 781l-14 14l93 69l93 -69l-14 -14l-79 58z" />
<glyph unicode="&#xc3;" horiz-adv-x="315" d="M24 0l119 700h29l119 -700h-20l-38 225h-151l-38 -225h-20zM85 245h145l-71 423h-2zM45 789q0 28 18 44.5t46 16.5q30 0 53 -23t45 -23q18 0 30.5 11t12.5 30h20q0 -28 -18.5 -44.5t-45.5 -16.5q-29 0 -53.5 23t-44.5 23q-18 0 -30.5 -11t-12.5 -30h-20z" />
<glyph unicode="&#xc4;" horiz-adv-x="315" d="M24 0l119 700h29l119 -700h-20l-38 225h-151l-38 -225h-20zM85 245h145l-71 423h-2zM80 800v75h20v-75h-20zM215 800v75h20v-75h-20z" />
<glyph unicode="&#xc5;" horiz-adv-x="315" d="M24 0l119 700h29l119 -700h-20l-38 225h-151l-38 -225h-20zM85 245h145l-71 423h-2zM157 902q31 0 52 -19.5t21 -52.5q0 -34 -21 -53t-52 -19t-51.5 19t-20.5 52q0 34 20.5 53.5t51.5 19.5zM105 829q0 -23 15 -37t37 -14q23 0 38 14t15 37q0 24 -15.5 38.5t-37.5 14.5 t-37 -14.5t-15 -38.5z" />
<glyph unicode="&#xc6;" horiz-adv-x="419" d="M369 0h-180v225h-97l-48 -225h-20l149 700h196v-20h-160v-310h140v-20h-140v-330h160v-20zM96 245h93v426h-2z" />
<glyph unicode="&#xc7;" horiz-adv-x="315" d="M147 -125v124q-43 2 -70 30.5t-27 75.5v489q0 50 30.5 79t76.5 29t77 -29t31 -79v-94h-20v94q0 40 -25.5 64t-62.5 24t-62 -24t-25 -64v-489q0 -40 25 -63.5t62 -23.5t62.5 23.5t25.5 63.5v95h20v-95q0 -47 -28 -75.5t-70 -30.5v-124h-20z" />
<glyph unicode="&#xc8;" horiz-adv-x="315" d="M60 0v700h205v-20h-185v-310h165v-20h-165v-330h185v-20h-205zM202 781l-104 83l15 15l104 -83z" />
<glyph unicode="&#xc9;" horiz-adv-x="315" d="M60 0v700h205v-20h-185v-310h165v-20h-165v-330h185v-20h-205zM114 781l-15 15l103 84l15 -15z" />
<glyph unicode="&#xca;" horiz-adv-x="315" d="M60 0v700h205v-20h-185v-310h165v-20h-165v-330h185v-20h-205zM79 781l-14 14l93 69l93 -69l-14 -14l-79 58z" />
<glyph unicode="&#xcb;" horiz-adv-x="315" d="M60 0v700h205v-20h-185v-310h165v-20h-165v-330h185v-20h-205zM80 800v75h20v-75h-20zM215 800v75h20v-75h-20z" />
<glyph unicode="&#xcc;" horiz-adv-x="140" d="M60 0v700h20v-700h-20zM115 781l-104 83l15 15l104 -83z" />
<glyph unicode="&#xcd;" horiz-adv-x="140" d="M60 0v700h20v-700h-20zM26 781l-15 15l103 84l15 -15z" />
<glyph unicode="&#xce;" horiz-adv-x="140" d="M60 0v700h20v-700h-20zM-9 781l-14 14l93 69l93 -69l-14 -14l-79 58z" />
<glyph unicode="&#xcf;" horiz-adv-x="140" d="M60 0v700h20v-700h-20zM-7 800v75h20v-75h-20zM128 800v75h20v-75h-20z" />
<glyph unicode="&#xd0;" horiz-adv-x="330" d="M30 350v20h30v330h107q48 0 80.5 -30.5t32.5 -82.5v-475q0 -52 -32.5 -82t-80.5 -30h-107v350h-30zM80 20h87q40 0 66.5 25t26.5 67v475q0 42 -26.5 67.5t-66.5 25.5h-87v-310h95v-20h-95v-330z" />
<glyph unicode="&#xd1;" horiz-adv-x="345" d="M60 0v700h32l171 -663h2v663h20v-700h-32l-171 663h-2v-663h-20zM60 789q0 28 18 44.5t46 16.5q30 0 53 -23t45 -23q18 0 30.5 11t12.5 30h20q0 -28 -18.5 -44.5t-45.5 -16.5q-29 0 -53.5 23t-44.5 23q-18 0 -30.5 -11t-12.5 -30h-20z" />
<glyph unicode="&#xd2;" d="M162 702q48 0 80.5 -30.5t32.5 -82.5v-479q0 -52 -32.5 -82t-80.5 -30t-80 30t-32 82v479q0 52 32 82.5t80 30.5zM70 589v-479q0 -42 26 -67t66 -25t66.5 25t26.5 67v479q0 42 -26.5 67.5t-66.5 25.5q-39 0 -65.5 -25.5t-26.5 -67.5zM207 781l-104 83l15 15l104 -83z" />
<glyph unicode="&#xd3;" d="M162 702q48 0 80.5 -30.5t32.5 -82.5v-479q0 -52 -32.5 -82t-80.5 -30t-80 30t-32 82v479q0 52 32 82.5t80 30.5zM70 589v-479q0 -42 26 -67t66 -25t66.5 25t26.5 67v479q0 42 -26.5 67.5t-66.5 25.5q-39 0 -65.5 -25.5t-26.5 -67.5zM118 781l-15 15l103 84l15 -15z" />
<glyph unicode="&#xd4;" d="M162 702q48 0 80.5 -30.5t32.5 -82.5v-479q0 -52 -32.5 -82t-80.5 -30t-80 30t-32 82v479q0 52 32 82.5t80 30.5zM70 589v-479q0 -42 26 -67t66 -25t66.5 25t26.5 67v479q0 42 -26.5 67.5t-66.5 25.5q-39 0 -65.5 -25.5t-26.5 -67.5zM84 781l-14 14l93 69l93 -69l-14 -14 l-79 58z" />
<glyph unicode="&#xd5;" d="M162 702q48 0 80.5 -30.5t32.5 -82.5v-479q0 -52 -32.5 -82t-80.5 -30t-80 30t-32 82v479q0 52 32 82.5t80 30.5zM70 589v-479q0 -42 26 -67t66 -25t66.5 25t26.5 67v479q0 42 -26.5 67.5t-66.5 25.5q-39 0 -65.5 -25.5t-26.5 -67.5zM50 789q0 28 18 44.5t46 16.5 q30 0 53 -23t45 -23q18 0 30.5 11t12.5 30h20q0 -28 -18.5 -44.5t-45.5 -16.5q-29 0 -53.5 23t-44.5 23q-18 0 -30.5 -11t-12.5 -30h-20z" />
<glyph unicode="&#xd6;" d="M162 702q48 0 80.5 -30.5t32.5 -82.5v-479q0 -52 -32.5 -82t-80.5 -30t-80 30t-32 82v479q0 52 32 82.5t80 30.5zM70 589v-479q0 -42 26 -67t66 -25t66.5 25t26.5 67v479q0 42 -26.5 67.5t-66.5 25.5q-39 0 -65.5 -25.5t-26.5 -67.5zM85 800v75h20v-75h-20zM220 800v75 h20v-75h-20z" />
<glyph unicode="&#xd7;" horiz-adv-x="345" d="M40 427l15 15l117 -118l118 118l14 -14l-118 -118l118 -118l-14 -14l-118 118l-117 -118l-15 15l118 117z" />
<glyph unicode="&#xd8;" d="M40 0l19 61q-9 21 -9 49v479q0 52 32 82.5t80 30.5q57 0 89 -40l12 38h22l-20 -61q10 -21 10 -50v-479q0 -52 -32.5 -82t-80.5 -30q-57 0 -89 38l-11 -36h-22zM255 589q0 3 -0.5 7.5t-0.5 6.5l-173 -541q25 -44 81 -44q40 0 66.5 25t26.5 67v479zM70 589v-493l173 542 q-25 44 -81 44q-39 0 -65.5 -25.5t-26.5 -67.5z" />
<glyph unicode="&#xd9;" d="M50 700h20v-590q0 -42 26 -67t66 -25t66.5 25t26.5 67v590h20v-590q0 -52 -32.5 -82t-80.5 -30t-80 30t-32 82v590zM207 781l-104 83l15 15l104 -83z" />
<glyph unicode="&#xda;" d="M50 700h20v-590q0 -42 26 -67t66 -25t66.5 25t26.5 67v590h20v-590q0 -52 -32.5 -82t-80.5 -30t-80 30t-32 82v590zM118 781l-15 15l103 84l15 -15z" />
<glyph unicode="&#xdb;" d="M50 700h20v-590q0 -42 26 -67t66 -25t66.5 25t26.5 67v590h20v-590q0 -52 -32.5 -82t-80.5 -30t-80 30t-32 82v590zM84 781l-14 14l93 69l93 -69l-14 -14l-79 58z" />
<glyph unicode="&#xdc;" d="M50 700h20v-590q0 -42 26 -67t66 -25t66.5 25t26.5 67v590h20v-590q0 -52 -32.5 -82t-80.5 -30t-80 30t-32 82v590zM85 800v75h20v-75h-20zM220 800v75h20v-75h-20z" />
<glyph unicode="&#xdd;" horiz-adv-x="315" d="M147 0v258l-123 442h21l111 -400h2l112 400h21l-124 -442v-258h-20zM114 781l-15 15l103 84l15 -15z" />
<glyph unicode="&#xde;" horiz-adv-x="300" d="M60 0v700h20v-120h57q48 0 80.5 -30t32.5 -82v-235q0 -52 -32.5 -82.5t-80.5 -30.5h-57v-120h-20zM80 140h57q40 0 66.5 25.5t26.5 67.5v235q0 42 -26.5 67t-66.5 25h-57v-420z" />
<glyph unicode="&#xdf;" horiz-adv-x="395" d="M130 150h20v-45q0 -40 25 -63.5t62 -23.5t62.5 23.5t25.5 63.5v53q0 39 -20 59.5t-48.5 27.5t-56.5 15t-48 32.5t-20 69.5v35q0 33 17.5 53t38 27.5t38 27t17.5 51.5v64q0 40 -25.5 63.5t-61.5 23.5q-37 0 -61.5 -23.5t-24.5 -63.5v-620h-20v620q0 50 30.5 78.5 t75.5 28.5q46 0 76.5 -28.5t30.5 -78.5v-64q0 -37 -17.5 -59.5t-38 -31t-38 -25.5t-17.5 -43v-35q0 -39 20 -59.5t48 -27.5t56.5 -15t48.5 -32.5t20 -69.5v-53q0 -50 -31 -78.5t-77 -28.5t-76.5 28.5t-30.5 78.5v45z" />
<glyph unicode="&#xe0;" d="M255 0v63q-17 -30 -50.5 -47.5t-69.5 -17.5t-60.5 23t-24.5 62v79q0 97 113 112l92 12v104q0 42 -26 67t-66 25t-66.5 -25t-26.5 -67v-40h-20v40q0 52 32.5 82t80.5 30t80 -30t32 -82v-390h-20zM255 267l-92 -12q-41 -6 -67 -29t-26 -64v-79q0 -30 19 -47.5t46 -17.5 q47 0 83.5 32t36.5 84v133zM207 581l-104 83l15 15l104 -83z" />
<glyph unicode="&#xe1;" d="M255 0v63q-17 -30 -50.5 -47.5t-69.5 -17.5t-60.5 23t-24.5 62v79q0 97 113 112l92 12v104q0 42 -26 67t-66 25t-66.5 -25t-26.5 -67v-40h-20v40q0 52 32.5 82t80.5 30t80 -30t32 -82v-390h-20zM255 267l-92 -12q-41 -6 -67 -29t-26 -64v-79q0 -30 19 -47.5t46 -17.5 q47 0 83.5 32t36.5 84v133zM118 581l-15 15l103 84l15 -15z" />
<glyph unicode="&#xe2;" d="M255 0v63q-17 -30 -50.5 -47.5t-69.5 -17.5t-60.5 23t-24.5 62v79q0 97 113 112l92 12v104q0 42 -26 67t-66 25t-66.5 -25t-26.5 -67v-40h-20v40q0 52 32.5 82t80.5 30t80 -30t32 -82v-390h-20zM255 267l-92 -12q-41 -6 -67 -29t-26 -64v-79q0 -30 19 -47.5t46 -17.5 q47 0 83.5 32t36.5 84v133zM84 581l-14 14l93 69l93 -69l-14 -14l-79 58z" />
<glyph unicode="&#xe3;" d="M255 0v63q-17 -30 -50.5 -47.5t-69.5 -17.5t-60.5 23t-24.5 62v79q0 97 113 112l92 12v104q0 42 -26 67t-66 25t-66.5 -25t-26.5 -67v-40h-20v40q0 52 32.5 82t80.5 30t80 -30t32 -82v-390h-20zM255 267l-92 -12q-41 -6 -67 -29t-26 -64v-79q0 -30 19 -47.5t46 -17.5 q47 0 83.5 32t36.5 84v133zM50 589q0 28 18 44.5t46 16.5q30 0 53 -23t45 -23q18 0 30.5 11t12.5 30h20q0 -28 -18.5 -44.5t-45.5 -16.5q-29 0 -53.5 23t-44.5 23q-18 0 -30.5 -11t-12.5 -30h-20z" />
<glyph unicode="&#xe4;" d="M255 0v63q-17 -30 -50.5 -47.5t-69.5 -17.5t-60.5 23t-24.5 62v79q0 97 113 112l92 12v104q0 42 -26 67t-66 25t-66.5 -25t-26.5 -67v-40h-20v40q0 52 32.5 82t80.5 30t80 -30t32 -82v-390h-20zM255 267l-92 -12q-41 -6 -67 -29t-26 -64v-79q0 -30 19 -47.5t46 -17.5 q47 0 83.5 32t36.5 84v133zM85 600v75h20v-75h-20zM220 600v75h20v-75h-20z" />
<glyph unicode="&#xe5;" d="M255 0v63q-17 -30 -50.5 -47.5t-69.5 -17.5t-60.5 23t-24.5 62v79q0 97 113 112l92 12v104q0 42 -26 67t-66 25t-66.5 -25t-26.5 -67v-40h-20v40q0 52 32.5 82t80.5 30t80 -30t32 -82v-390h-20zM255 267l-92 -12q-41 -6 -67 -29t-26 -64v-79q0 -30 19 -47.5t46 -17.5 q47 0 83.5 32t36.5 84v133zM162 702q31 0 52 -19.5t21 -52.5q0 -34 -21 -53t-52 -19t-51.5 19t-20.5 52q0 34 20.5 53.5t51.5 19.5zM110 629q0 -23 15 -37t37 -14q23 0 38 14t15 37q0 24 -15.5 38.5t-37.5 14.5t-37 -14.5t-15 -38.5z" />
<glyph unicode="&#xe6;" horiz-adv-x="530" d="M480 250h-205v-140q0 -42 26 -67t66 -25t66.5 25t26.5 67v40h20v-40q0 -52 -32.5 -82t-80.5 -30q-38 0 -67 19t-39 54q-46 -73 -126 -73q-36 0 -60.5 23t-24.5 62v59q0 52 32.5 85t80.5 36l92 6v121q0 42 -26 67t-66 25t-66.5 -25t-26.5 -67v-40h-20v40q0 52 32.5 82 t80.5 30q75 0 102 -64q27 64 102 64q48 0 80.5 -30.5t32.5 -82.5v-139zM255 134v116l-92 -7q-39 -3 -66 -31t-27 -70v-59q0 -30 19 -47.5t46 -17.5q47 0 83.5 32t36.5 84zM275 389v-119h185v119q0 46 -26 69.5t-67 23.5t-66.5 -23.5t-25.5 -69.5z" />
<glyph unicode="&#xe7;" horiz-adv-x="315" d="M147 -125v124q-43 2 -70 30.5t-27 75.5v289q0 50 30.5 79t76.5 29t77 -29t31 -79v-44h-20v44q0 40 -25.5 64t-62.5 24t-62 -24t-25 -64v-289q0 -40 25 -63.5t62 -23.5t62.5 23.5t25.5 63.5v45h20v-45q0 -47 -28 -75.5t-70 -30.5v-124h-20z" />
<glyph unicode="&#xe8;" d="M275 245h-205v-135q0 -42 26 -67t66 -25t66.5 25t26.5 67v40h20v-40q0 -52 -32.5 -82t-80.5 -30t-80 30t-32 82v279q0 52 32 82.5t80 30.5t80.5 -30.5t32.5 -82.5v-144zM70 389v-124h185v124q0 46 -26 69.5t-67 23.5t-66.5 -23.5t-25.5 -69.5zM207 581l-104 83l15 15 l104 -83z" />
<glyph unicode="&#xe9;" d="M275 245h-205v-135q0 -42 26 -67t66 -25t66.5 25t26.5 67v40h20v-40q0 -52 -32.5 -82t-80.5 -30t-80 30t-32 82v279q0 52 32 82.5t80 30.5t80.5 -30.5t32.5 -82.5v-144zM70 389v-124h185v124q0 46 -26 69.5t-67 23.5t-66.5 -23.5t-25.5 -69.5zM118 581l-15 15l103 84 l15 -15z" />
<glyph unicode="&#xea;" d="M275 245h-205v-135q0 -42 26 -67t66 -25t66.5 25t26.5 67v40h20v-40q0 -52 -32.5 -82t-80.5 -30t-80 30t-32 82v279q0 52 32 82.5t80 30.5t80.5 -30.5t32.5 -82.5v-144zM70 389v-124h185v124q0 46 -26 69.5t-67 23.5t-66.5 -23.5t-25.5 -69.5zM84 581l-14 14l93 69 l93 -69l-14 -14l-79 58z" />
<glyph unicode="&#xeb;" d="M275 245h-205v-135q0 -42 26 -67t66 -25t66.5 25t26.5 67v40h20v-40q0 -52 -32.5 -82t-80.5 -30t-80 30t-32 82v279q0 52 32 82.5t80 30.5t80.5 -30.5t32.5 -82.5v-144zM70 389v-124h185v124q0 46 -26 69.5t-67 23.5t-66.5 -23.5t-25.5 -69.5zM85 600v75h20v-75h-20z M220 600v75h20v-75h-20z" />
<glyph unicode="&#xec;" horiz-adv-x="140" d="M115 581l-104 83l15 15l104 -83zM60 0v500h20v-500h-20z" />
<glyph unicode="&#xed;" horiz-adv-x="140" d="M26 581l-15 15l103 84l15 -15zM60 0v500h20v-500h-20z" />
<glyph unicode="&#xee;" horiz-adv-x="140" d="M60 0v500h20v-500h-20zM-9 581l-14 14l93 69l93 -69l-14 -14l-79 58z" />
<glyph unicode="&#xef;" horiz-adv-x="140" d="M-7 600v75h20v-75h-20zM128 600v75h20v-75h-20zM60 0v500h20v-500h-20z" />
<glyph unicode="&#xf0;" d="M138 588l-14 14l57 57q-23 18 -50.5 32t-44.5 19l-16 5l13 13q59 -15 112 -55l56 56l14 -14l-54 -54q64 -59 64 -136v-415q0 -52 -32 -82t-80 -30t-80.5 30t-32.5 82v302q0 41 26 65.5t64 24.5q79 0 115 -65v88q0 69 -58 122zM255 110v256q0 53 -33 84.5t-82 31.5 q-30 0 -50 -19t-20 -51v-302q0 -42 26.5 -67t66.5 -25t66 25t26 67z" />
<glyph unicode="&#xf1;" horiz-adv-x="335" d="M80 366v-366h-20v500h20v-63q36 65 115 65q38 0 64 -24.5t26 -65.5v-412h-20v412q0 32 -20 51t-50 19q-49 0 -82 -31.5t-33 -84.5zM55 589q0 28 18 44.5t46 16.5q30 0 53 -23t45 -23q18 0 30.5 11t12.5 30h20q0 -28 -18.5 -44.5t-45.5 -16.5q-29 0 -53.5 23t-44.5 23 q-18 0 -30.5 -11t-12.5 -30h-20z" />
<glyph unicode="&#xf2;" d="M162 502q48 0 80.5 -30.5t32.5 -82.5v-279q0 -52 -32.5 -82t-80.5 -30t-80 30t-32 82v279q0 52 32 82.5t80 30.5zM70 389v-279q0 -42 26 -67t66 -25t66.5 25t26.5 67v279q0 42 -26.5 67.5t-66.5 25.5q-39 0 -65.5 -25.5t-26.5 -67.5zM207 581l-104 83l15 15l104 -83z" />
<glyph unicode="&#xf3;" d="M162 502q48 0 80.5 -30.5t32.5 -82.5v-279q0 -52 -32.5 -82t-80.5 -30t-80 30t-32 82v279q0 52 32 82.5t80 30.5zM70 389v-279q0 -42 26 -67t66 -25t66.5 25t26.5 67v279q0 42 -26.5 67.5t-66.5 25.5q-39 0 -65.5 -25.5t-26.5 -67.5zM118 581l-15 15l103 84l15 -15z" />
<glyph unicode="&#xf4;" d="M162 502q48 0 80.5 -30.5t32.5 -82.5v-279q0 -52 -32.5 -82t-80.5 -30t-80 30t-32 82v279q0 52 32 82.5t80 30.5zM70 389v-279q0 -42 26 -67t66 -25t66.5 25t26.5 67v279q0 42 -26.5 67.5t-66.5 25.5q-39 0 -65.5 -25.5t-26.5 -67.5zM84 581l-14 14l93 69l93 -69l-14 -14 l-79 58z" />
<glyph unicode="&#xf5;" d="M162 502q48 0 80.5 -30.5t32.5 -82.5v-279q0 -52 -32.5 -82t-80.5 -30t-80 30t-32 82v279q0 52 32 82.5t80 30.5zM70 389v-279q0 -42 26 -67t66 -25t66.5 25t26.5 67v279q0 42 -26.5 67.5t-66.5 25.5q-39 0 -65.5 -25.5t-26.5 -67.5zM50 589q0 28 18 44.5t46 16.5 q30 0 53 -23t45 -23q18 0 30.5 11t12.5 30h20q0 -28 -18.5 -44.5t-45.5 -16.5q-29 0 -53.5 23t-44.5 23q-18 0 -30.5 -11t-12.5 -30h-20z" />
<glyph unicode="&#xf6;" d="M162 502q48 0 80.5 -30.5t32.5 -82.5v-279q0 -52 -32.5 -82t-80.5 -30t-80 30t-32 82v279q0 52 32 82.5t80 30.5zM70 389v-279q0 -42 26 -67t66 -25t66.5 25t26.5 67v279q0 42 -26.5 67.5t-66.5 25.5q-39 0 -65.5 -25.5t-26.5 -67.5zM85 600v75h20v-75h-20zM220 600v75 h20v-75h-20z" />
<glyph unicode="&#xf7;" horiz-adv-x="345" d="M40 260v20h265v-20h-265zM163 90v75h20v-75h-20zM163 375v75h20v-75h-20z" />
<glyph unicode="&#xf8;" d="M40 0l23 52q-13 26 -13 58v279q0 52 32 82.5t80 30.5q53 0 86 -36l15 34h22l-24 -53q14 -25 14 -58v-279q0 -52 -32.5 -82t-80.5 -30q-55 0 -85 35l-15 -33h-22zM70 389v-279q0 -20 4 -33l164 368q-26 37 -76 37q-39 0 -65.5 -25.5t-26.5 -67.5zM255 389q0 15 -5 32 l-164 -367q27 -36 76 -36q40 0 66.5 25t26.5 67v279z" />
<glyph unicode="&#xf9;" horiz-adv-x="335" d="M255 0v63q-36 -65 -115 -65q-38 0 -64 24.5t-26 65.5v412h20v-412q0 -32 20 -51t50 -19q49 0 82 31.5t33 84.5v366h20v-500h-20zM212 581l-104 83l15 15l104 -83z" />
<glyph unicode="&#xfa;" horiz-adv-x="335" d="M255 0v63q-36 -65 -115 -65q-38 0 -64 24.5t-26 65.5v412h20v-412q0 -32 20 -51t50 -19q49 0 82 31.5t33 84.5v366h20v-500h-20zM123 581l-15 15l103 84l15 -15z" />
<glyph unicode="&#xfb;" horiz-adv-x="335" d="M255 0v63q-36 -65 -115 -65q-38 0 -64 24.5t-26 65.5v412h20v-412q0 -32 20 -51t50 -19q49 0 82 31.5t33 84.5v366h20v-500h-20zM88 581l-14 14l93 69l93 -69l-14 -14l-79 58z" />
<glyph unicode="&#xfc;" horiz-adv-x="335" d="M255 0v63q-36 -65 -115 -65q-38 0 -64 24.5t-26 65.5v412h20v-412q0 -32 20 -51t50 -19q49 0 82 31.5t33 84.5v366h20v-500h-20zM90 600v75h20v-75h-20zM225 600v75h20v-75h-20z" />
<glyph unicode="&#xfd;" horiz-adv-x="335" d="M50 -89h20v-25q0 -42 26.5 -67.5t66.5 -25.5q39 0 65.5 25.5t26.5 67.5v177q-36 -65 -115 -65q-38 0 -64 24.5t-26 65.5v412h20v-412q0 -32 20 -51t50 -19q49 0 82 31.5t33 84.5v366h20v-614q0 -52 -32 -82.5t-80 -30.5t-80.5 30.5t-32.5 82.5v25zM123 581l-15 15l103 84 l15 -15z" />
<glyph unicode="&#xfe;" horiz-adv-x="335" d="M60 -200v925h20v-288q36 65 115 65q38 0 64 -24.5t26 -65.5v-302q0 -52 -32.5 -82t-80.5 -30q-52 0 -92 22v-220h-20zM80 45q36 -27 92 -27q40 0 66.5 25t26.5 67v302q0 32 -20 51t-50 19q-49 0 -82 -31.5t-33 -84.5v-321z" />
<glyph unicode="&#xff;" horiz-adv-x="335" d="M50 -89h20v-25q0 -42 26.5 -67.5t66.5 -25.5q39 0 65.5 25.5t26.5 67.5v177q-36 -65 -115 -65q-38 0 -64 24.5t-26 65.5v412h20v-412q0 -32 20 -51t50 -19q49 0 82 31.5t33 84.5v366h20v-614q0 -52 -32 -82.5t-80 -30.5t-80.5 30.5t-32.5 82.5v25zM90 600v75h20v-75h-20z M225 600v75h20v-75h-20z" />
<glyph unicode="&#x152;" horiz-adv-x="470" d="M240 0v18q-29 -20 -68 -20q-48 0 -80 30t-32 82v479q0 52 32 82.5t80 30.5q39 0 68 -20v18h180v-20h-160v-310h140v-20h-140v-330h160v-20h-180zM172 18q42 0 68 26v610q-26 28 -68 28q-39 0 -65.5 -25.5t-26.5 -67.5v-479q0 -42 26 -67t66 -25z" />
<glyph unicode="&#x153;" horiz-adv-x="530" d="M480 245h-205v-135q0 -42 26 -67t66 -25t66.5 25t26.5 67v40h20v-40q0 -52 -32.5 -82t-80.5 -30q-76 0 -102 63q-13 -30 -40.5 -46.5t-62.5 -16.5q-48 0 -80 30t-32 82v279q0 52 32 82.5t80 30.5q76 0 103 -64q27 64 102 64q48 0 80.5 -30.5t32.5 -82.5v-144zM70 389 v-279q0 -42 26 -67t66 -25t66.5 25t26.5 67v279q0 42 -26.5 67.5t-66.5 25.5q-39 0 -65.5 -25.5t-26.5 -67.5zM275 389v-124h185v124q0 46 -26 69.5t-67 23.5t-66.5 -23.5t-25.5 -69.5z" />
<glyph unicode="&#x178;" horiz-adv-x="315" d="M147 0v258l-123 442h21l111 -400h2l112 400h21l-124 -442v-258h-20zM80 800v75h20v-75h-20zM215 800v75h20v-75h-20z" />
<glyph unicode="&#x2c6;" d="M84 581l-14 14l93 69l93 -69l-14 -14l-79 58z" />
<glyph unicode="&#x2dc;" d="M50 589q0 28 18 44.5t46 16.5q30 0 53 -23t45 -23q18 0 30.5 11t12.5 30h20q0 -28 -18.5 -44.5t-45.5 -16.5q-29 0 -53.5 23t-44.5 23q-18 0 -30.5 -11t-12.5 -30h-20z" />
<glyph unicode="&#x2000;" horiz-adv-x="451" />
<glyph unicode="&#x2001;" horiz-adv-x="902" />
<glyph unicode="&#x2002;" horiz-adv-x="451" />
<glyph unicode="&#x2003;" horiz-adv-x="902" />
<glyph unicode="&#x2004;" horiz-adv-x="300" />
<glyph unicode="&#x2005;" horiz-adv-x="225" />
<glyph unicode="&#x2006;" horiz-adv-x="150" />
<glyph unicode="&#x2007;" horiz-adv-x="150" />
<glyph unicode="&#x2008;" horiz-adv-x="112" />
<glyph unicode="&#x2009;" horiz-adv-x="180" />
<glyph unicode="&#x200a;" horiz-adv-x="50" />
<glyph unicode="&#x2010;" horiz-adv-x="220" d="M40 260v20h140v-20h-140z" />
<glyph unicode="&#x2011;" horiz-adv-x="220" d="M40 260v20h140v-20h-140z" />
<glyph unicode="&#x2012;" horiz-adv-x="220" d="M40 260v20h140v-20h-140z" />
<glyph unicode="&#x2013;" horiz-adv-x="345" d="M40 260v20h265v-20h-265z" />
<glyph unicode="&#x2014;" horiz-adv-x="550" d="M40 260v20h470v-20h-470z" />
<glyph unicode="&#x2018;" horiz-adv-x="140" d="M90 725h20q-30 -65 -30 -120v-75h-20v75q0 24 7.5 54t14.5 48z" />
<glyph unicode="&#x2019;" horiz-adv-x="140" d="M50 530h-20q30 65 30 120v75h20v-75q0 -24 -7.5 -54t-14.5 -48z" />
<glyph unicode="&#x201a;" horiz-adv-x="140" d="M50 -120h-20q30 65 30 120v75h20v-75q0 -24 -7.5 -54t-14.5 -48z" />
<glyph unicode="&#x201c;" horiz-adv-x="215" d="M90 725h20q-30 -65 -30 -120v-75h-20v75q0 24 7.5 54t14.5 48zM175 725h20q-30 -65 -30 -120v-75h-20v75q0 24 7.5 54t15.5 48z" />
<glyph unicode="&#x201d;" horiz-adv-x="215" d="M50 530h-20q30 65 30 120v75h20v-75q0 -24 -7.5 -54t-14.5 -48zM135 530h-20q30 65 30 120v75h20v-75q0 -24 -7.5 -54t-15.5 -48z" />
<glyph unicode="&#x201e;" horiz-adv-x="215" d="M50 -120h-20q30 65 30 120v75h20v-75q0 -24 -7.5 -54t-14.5 -48zM135 -120h-20q30 65 30 120v75h20v-75q0 -24 -7.5 -54t-15.5 -48z" />
<glyph unicode="&#x2022;" horiz-adv-x="265" d="M50 220v160h165v-160h-165z" />
<glyph unicode="&#x2026;" horiz-adv-x="340" d="M60 0v75h20v-75h-20zM160 0v75h20v-75h-20zM260 0v75h20v-75h-20z" />
<glyph unicode="&#x202f;" horiz-adv-x="180" />
<glyph unicode="&#x2039;" horiz-adv-x="178" d="M148 425l-85 -175l85 -175h-23l-85 175l85 175h23z" />
<glyph unicode="&#x203a;" horiz-adv-x="178" d="M30 75l85 175l-85 175h23l85 -175l-85 -175h-23z" />
<glyph unicode="&#x205f;" horiz-adv-x="225" />
<glyph unicode="&#x20ac;" horiz-adv-x="345" d="M30 400v20h50v174q0 50 30.5 79t76.5 29t77 -29t31 -79v-94h-20v94q0 40 -25.5 64t-62.5 24t-62 -24t-25 -64v-174h195v-20h-195v-90h195v-20h-195v-185q0 -40 25 -63.5t62 -23.5t62.5 23.5t25.5 63.5v95h20v-95q0 -50 -31 -78.5t-77 -28.5t-76.5 28.5t-30.5 78.5v185 h-50v20h50v90h-50z" />
<glyph unicode="&#x2122;" horiz-adv-x="358" d="M21 693v17h120v-17h-50v-243h-20v243h-50zM166 450v260h30l55 -234h1l55 234h31v-260h-19v233h-1l-54 -233h-25l-53 233h-1v-233h-19z" />
<glyph unicode="&#x25fc;" horiz-adv-x="500" d="M0 500h500v-500h-500v500z" />
</font>
</defs>
</svg>
